
<?xml version="1.0" standalone="no"?><!DOCTYPE svg PUBLIC "-//W3C//DTD SVG 1.1//EN" "http://www.w3.org/Graphics/SVG/1.1/DTD/svg11.dtd" ><svg xmlns="http://www.w3.org/2000/svg"><metadata></metadata><defs><font id="2.001;ADBO;SourceHanSerifSC-Regular;ADOBE" horiz-adv-x="1053"><font-face font-family="Source Han Serif SC" font-weight="400" font-stretch="normal" units-per-em="1000" panose-1="2 2 4 0 0 0 0 0 0 0" ascent="1151" descent="-286" x-height="0" bbox="-79 -271 1046 880" underline-thickness="50" underline-position="-75" unicode-range="U+0021-ff1f" /><missing-glyph horiz-adv-x="1000" d="M100 -120 l0 1000 l800 0 l0 -1000 l-800 0 ZM500 421 l318 409 l-636 0 l318 -409 ZM532 380 l318 -409 l0 818 l-318 -409 ZM182 -70 l636 0 l-318 409 l-318 -409 ZM150 789 l0 -818 l318 409 l-318 409 Z" /><glyph glyph-name="" unicode="!" d="M154 -13 q-25 0 -42 17.5 q-17 17.5 -17 41.5 q0 25 17 41.5 q17 16.5 42 16.5 q26 0 43 -16.5 q17 -16.5 17 -41.5 q0 -24 -17 -41.5 q-17 -17.5 -43 -17.5 ZM154 747 q24 0 38 -14.5 q14 -14.5 14 -43.5 q0 -39 -7 -104.5 q-7 -65.5 -19 -172.5 l-13 -195 l-26 0 l-12 195 q-12 107 -19.5 172.5 q-7.5 65.5 -7.5 104.5 q0 29 14 43.5 q14 14.5 38 14.5 Z" /><glyph glyph-name="" unicode="&quot;" d="M98 805 q45 0 45 -55 q0 -30 -6.5 -75 q-6.5 -45 -10.5 -84 l-15 -112 l-27 0 l-14 112 q-4 39 -11 84.5 q-7 45.5 -7 74.5 q0 55 46 55 ZM279 805 q45 0 45 -55 q0 -30 -6.5 -75 q-6.5 -45 -10.5 -84 l-15 -112 l-27 0 l-15 112 q-4 39 -11 84.5 q-7 45.5 -7 74.5 q0 55 47 55 Z" /><glyph glyph-name="" unicode="#" d="M327 0 l31 206 l-189 0 l-31 -206 l-35 0 l31 206 l-110 0 l0 65 l120 0 l26 176 l-109 0 l0 66 l119 0 l29 193 l36 0 l-29 -193 l189 0 l29 193 l36 0 l-29 -193 l110 0 l0 -66 l-120 0 l-27 -176 l111 0 l0 -65 l-121 0 l-31 -206 l-36 0 ZM179 271 l189 0 l27 176 l-189 0 l-27 -176 Z" /><glyph glyph-name="" unicode="$" d="M265 -125 l0 110 q-91 1 -144.5 41.5 q-53.5 40.5 -64.5 109.5 q10 33 41 33 q18 0 31 -10 q13 -10 17 -36 l19 -85 q42 -20 101 -21 l0 304 l-20 8 q-82 34 -124.5 82 q-42.5 48 -42.5 122 q0 80 53.5 128.5 q53.5 48.5 135.5 54.5 l0 102 l35 0 l0 -101 q75 -3 126 -43 q51 -40 61 -108 q-2 -16 -13.5 -24.5 q-11.5 -8.5 -25.5 -8.5 q-16 0 -30 10.5 q-14 10.5 -22 40.5 l-20 85 q-19 8 -37.5 11 q-18.5 3 -38.5 4 l0 -290 l7 -3 q74 -29 114 -62 q40 -33 56 -71 q16 -38 16 -82 q0 -54 -25 -94.5 q-25 -40.5 -69 -65 q-44 -24.5 -101 -30.5 l0 -111 l-35 0 ZM300 306 l0 -287 q57 8 90.5 44 q33.5 36 33.5 93 q0 52 -26 85 q-26 33 -98 65 ZM267 407 l0 275 q-54 -7 -87.5 -41 q-33.5 -34 -33.5 -90 q0 -51 30 -84.5 q30 -33.5 91 -59.5 Z" /><glyph glyph-name="" unicode="%" d="M193 291 q-38 0 -72 23 q-34 23 -55 72.5 q-21 49.5 -21 127.5 q0 80 21 129 q21 49 55 72 q34 23 72 23 q38 0 71.5 -23 q33.5 -23 54.5 -72 q21 -49 21 -129 q0 -78 -21 -127.5 q-21 -49.5 -54.5 -72.5 q-33.5 -23 -71.5 -23 ZM193 316 q22 0 40.5 17 q18.5 17 30.5 60.5 q12 43.5 12 120.5 q0 78 -12 121 q-12 43 -30.5 60 q-18.5 17 -40.5 17 q-21 0 -40 -17 q-19 -17 -31 -60 q-12 -43 -12 -121 q0 -77 12 -120.5 q12 -43.5 31 -60.5 q19 -17 40 -17 ZM731 -10 q-38 0 -72 23 q-34 23 -55 72.5 q-21 49.5 -21 128.5 q0 79 21 128 q21 49 55 72 q34 23 72 23 q38 0 71.5 -23 q33.5 -23 54.5 -72 q21 -49 21 -128 q0 -79 -21 -128.5 q-21 -49.5 -54.5 -72.5 q-33.5 -23 -71.5 -23 ZM731 16 q22 0 41 17 q19 17 31 60 q12 43 12 121 q0 77 -12 120 q-12 43 -31 60 q-19 17 -41 17 q-21 0 -40.5 -17 q-19.5 -17 -31.5 -60 q-12 -43 -12 -120 q0 -78 12 -121 q12 -43 31.5 -60 q19.5 -17 40.5 -17 ZM220 -28 l-26 18 l508 738 l26 -19 l-508 -737 Z" /><glyph glyph-name="" unicode="&amp;" d="M660 -10 q-38 0 -65.5 9 q-27.5 9 -50.5 32 l-55 60 q-37 -45 -92 -75.5 q-55 -30.5 -132 -30.5 q-69 0 -119 27 q-50 27 -77 72 q-27 45 -27 98 q0 70 41.5 124.5 q41.5 54.5 130.5 98.5 l-19 22 q-37 43 -53 82 q-16 39 -16 79 q0 72 49.5 113 q49.5 41 123.5 41 q78 0 119 -38.5 q41 -38.5 41 -97.5 q0 -61 -43 -104.5 q-43 -43.5 -120 -83.5 l89 -100 l139 -149 q36 56 56.5 115 q20.5 59 33.5 138 l-92 10 l0 28 l216 0 l0 -28 l-80 -10 q-12 -58 -27 -103.5 q-15 -45.5 -36 -85.5 q-21 -40 -53 -83 l109 -115 l87 -9 l-1 -27 q-22 -4 -40 -6.5 q-18 -2.5 -37 -2.5 ZM280 436 q53 39 85 78.5 q32 39.5 32 92.5 q0 48 -26.5 76.5 q-26.5 28.5 -72.5 28.5 q-43 0 -75 -30 q-32 -30 -32 -77 q0 -30 10 -58 q10 -28 42 -68 l37 -43 ZM471 111 l-134 150 l-108 127 q-58 -40 -84.5 -85.5 q-26.5 -45.5 -26.5 -95.5 q0 -45 21.5 -83.5 q21.5 -38.5 61 -62 q39.5 -23.5 93.5 -23.5 q105 0 177 73 Z" /><glyph glyph-name="" unicode="&#39;" d="M98 805 q45 0 45 -55 q0 -30 -6.5 -75 q-6.5 -45 -10.5 -84 l-15 -112 l-27 0 l-14 112 q-4 39 -11 84.5 q-7 45.5 -7 74.5 q0 55 46 55 Z" /><glyph glyph-name="" unicode="(" d="M163 302 q0 -93 15.5 -172.5 q15.5 -79.5 53.5 -158 q38 -78.5 103 -169.5 l-19 -17 q-114 117 -169 242 q-55 125 -55 275 q0 151 55 276 q55 125 169 241 l19 -16 q-66 -91 -103.5 -170 q-37.5 -79 -53 -158 q-15.5 -79 -15.5 -173 Z" /><glyph glyph-name="" unicode=")" d="M203 302 q0 94 -16 173.5 q-16 79.5 -54 158 q-38 78.5 -103 169.5 l19 16 q113 -116 168.5 -241 q55.5 -125 55.5 -276 q0 -150 -55.5 -275.5 q-55.5 -125.5 -168.5 -241.5 l-19 17 q67 92 104.5 170.5 q37.5 78.5 53 157.5 q15.5 79 15.5 172 Z" /><glyph glyph-name="" unicode="*" d="M230 600 l-10 61 q-14 84 -14 117 q0 37 33 37 q36 0 36 -37 q0 -17 -5.5 -47.5 q-5.5 -30.5 -10.5 -69.5 l-11 -61 l55 29 q37 19 63.5 32 q26.5 13 42.5 18 q17 5 30 -1 q13 -6 18 -20 q8 -34 -26 -45 q-16 -6 -46 -10.5 q-30 -4.5 -70 -10.5 l-61 -9 l45 -44 q59 -57 80 -85 q21 -30 -6 -51 q-13 -10 -26.5 -7.5 q-13.5 2.5 -24.5 17.5 q-9 14 -22.5 41 q-13.5 27 -32.5 63 l-27 55 l-28 -56 q-18 -36 -32 -62.5 q-14 -26.5 -24 -40.5 q-10 -14 -24 -17 q-14 -3 -26 7 q-28 21 -6 51 q9 14 31 35.5 q22 21.5 51 49.5 l43 43 l-62 10 q-40 6 -69.5 11 q-29.5 5 -45.5 11 q-16 5 -23 16.5 q-7 11.5 -2 27.5 q10 32 47 21 q15 -5 42.5 -19 q27.5 -14 63.5 -33 l54 -27 Z" /><glyph glyph-name="" unicode="+" d="M543 339 l-230 0 l0 -245 l-46 0 l0 245 l-229 0 l0 42 l229 0 l0 239 l46 0 l0 -239 l230 0 l0 -42 Z" /><glyph glyph-name="" unicode="," d="M76 -176 l-11 27 q47 24 74 50 q27 26 37 69 l-31 19 q-41 23 -41 59 q0 24 15.5 40.5 q15.5 16.5 42.5 16.5 q14 0 27.5 -4.5 q13.5 -4.5 25.5 -16.5 q5 -15 7 -28.5 q2 -13.5 2 -31.5 q0 -72 -40 -122 q-40 -50 -108 -78 Z" /><glyph glyph-name="" unicode="-­&#x2011;" d="M43 242 l0 51 l259 0 l0 -51 l-259 0 Z" /><glyph glyph-name="" unicode="." d="M163 -15 q-27 0 -44 18.5 q-17 18.5 -17 42.5 q0 26 17 44 q17 18 44 18 q26 0 44 -18 q18 -18 18 -44 q0 -24 -18 -42.5 q-18 -18.5 -44 -18.5 Z" /><glyph glyph-name="" unicode="/" d="M8 -174 l292 946 l44 0 l-290 -946 l-46 0 Z" /><glyph glyph-name="" unicode="0" d="M278 -15 q-60 0 -113 38.5 q-53 38.5 -85.5 122.5 q-32.5 84 -32.5 220 q0 134 32.5 217 q32.5 83 85.5 121.5 q53 38.5 113 38.5 q60 0 113 -38.5 q53 -38.5 85.5 -121.5 q32.5 -83 32.5 -217 q0 -136 -32.5 -220 q-32.5 -84 -85.5 -122.5 q-53 -38.5 -113 -38.5 ZM278 16 q37 0 71 32 q34 32 55.5 108.5 q21.5 76.5 21.5 209.5 q0 131 -21.5 206.5 q-21.5 75.5 -55.5 107 q-34 31.5 -71 31.5 q-37 0 -71 -31.5 q-34 -31.5 -55.5 -107 q-21.5 -75.5 -21.5 -206.5 q0 -133 21.5 -209.5 q21.5 -76.5 55.5 -108.5 q34 -32 71 -32 Z" /><glyph glyph-name="" unicode="1" d="M75 0 l0 28 l137 14 l2 188 l0 447 l-144 -24 l0 30 l215 55 l15 -11 l-4 -158 l0 -339 l2 -188 l129 -15 l0 -28 l-352 1 Z" /><glyph glyph-name="" unicode="2" d="M64 0 l0 54 q50 59 97.5 115.5 q47.5 56.5 84.5 99.5 q53 64 86 112 q33 48 48.5 89 q15.5 41 15.5 85 q0 75 -37.5 116 q-37.5 41 -104.5 41 q-19 0 -37.5 -3.5 q-18.5 -3.5 -38.5 -11.5 l-24 -87 q-7 -29 -19.5 -40.5 q-12.5 -11.5 -29.5 -11.5 q-32 0 -41 31 q8 51 39.5 85 q31.5 34 77.5 51.5 q46 17.5 97 17.5 q101 0 152 -50.5 q51 -50.5 51 -139.5 q0 -46 -21.5 -90 q-21.5 -44 -68.5 -98.5 q-47 -54.5 -123 -132.5 q-22 -22 -62.5 -67 q-40.5 -45 -86.5 -95 l392 0 l0 -70 l-447 0 Z" /><glyph glyph-name="" unicode="3" d="M256 -15 q-85 0 -139.5 36 q-54.5 36 -69.5 106 q11 31 41 31 q18 0 29 -11.5 q11 -11.5 18 -39.5 l24 -78 q17 -6 35 -9.5 q18 -3.5 39 -3.5 q83 0 129 48 q46 48 46 127 q0 83 -46 128 q-46 45 -136 45 l-45 0 l0 35 l40 0 q73 0 119.5 42.5 q46.5 42.5 46.5 122.5 q0 70 -35.5 109 q-35.5 39 -100.5 39 q-18 0 -35.5 -2.5 q-17.5 -2.5 -36.5 -8.5 l-23 -77 q-7 -25 -18.5 -35 q-11.5 -10 -30.5 -10 q-13 0 -23 6 q-10 6 -15 19 q9 50 38.5 80.5 q29.5 30.5 72.5 44.5 q43 14 90 14 q96 0 149 -48.5 q53 -48.5 53 -127.5 q0 -64 -42 -114 q-42 -50 -125 -69 q97 -13 142.5 -65 q45.5 -52 45.5 -131 q0 -61 -30 -107 q-30 -46 -83.5 -71 q-53.5 -25 -123.5 -25 Z" /><glyph glyph-name="" unicode="4" d="M339 -18 l0 210 l-305 0 l0 47 l324 500 l56 0 l0 -489 l120 0 l0 -58 l-120 0 l0 -210 l-75 0 ZM77 250 l262 0 l0 408 l-122 -191 l-140 -217 Z" /><glyph glyph-name="" unicode="5" d="M246 -15 q-81 0 -134.5 37 q-53.5 37 -67.5 106 q11 29 42 29 q19 0 29.5 -11 q10.5 -11 16.5 -38 l24 -77 q17 -7 35.5 -11 q18.5 -4 42.5 -4 q86 0 133 52 q47 52 47 148 q0 93 -46.5 137.5 q-46.5 44.5 -123.5 44.5 q-64 0 -117 -24 l-25 10 l23 344 l358 0 l0 -70 l-326 0 l-16 -243 q30 13 61 18 q31 5 65 5 q107 0 171 -55.5 q64 -55.5 64 -162.5 q0 -71 -31.5 -124 q-31.5 -53 -89 -82 q-57.5 -29 -135.5 -29 Z" /><glyph glyph-name="" unicode="6" d="M289 -15 q-72 0 -124.5 36 q-52.5 36 -80.5 101.5 q-28 65.5 -28 154.5 q0 87 29.5 166 q29.5 79 86 142.5 q56.5 63.5 135.5 104.5 q79 41 178 53 l5 -22 q-100 -21 -172 -72.5 q-72 -51.5 -115 -124.5 q-43 -73 -56 -161 q72 77 170 77 q91 0 141.5 -60.5 q50.5 -60.5 50.5 -158.5 q0 -68 -28.5 -121.5 q-28.5 -53.5 -78.5 -84 q-50 -30.5 -113 -30.5 ZM144 331 l-2 -45 q0 -128 39 -199 q39 -71 109 -71 q57 0 96.5 51.5 q39.5 51.5 39.5 147.5 q0 90 -36.5 137 q-36.5 47 -99.5 47 q-39 0 -75 -15.5 q-36 -15.5 -71 -52.5 Z" /><glyph glyph-name="" unicode="7" d="M154 0 l-8 7 l296 651 l-387 0 l0 70 l433 0 l0 -45 l-261 -683 l-73 0 Z" /><glyph glyph-name="" unicode="8" d="M274 -15 q-105 0 -161 48 q-56 48 -56 127 q0 66 42.5 113.5 q42.5 47.5 124.5 83.5 q-77 38 -111.5 90 q-34.5 52 -34.5 116 q0 55 27 95.5 q27 40.5 73.5 62.5 q46.5 22 102.5 22 q92 0 142 -47.5 q50 -47.5 50 -119.5 q0 -51 -32.5 -99 q-32.5 -48 -113.5 -86 q94 -43 135 -94 q41 -51 41 -121 q0 -58 -28.5 -101 q-28.5 -43 -80 -66.5 q-51.5 -23.5 -120.5 -23.5 ZM304 402 q53 36 76 77.5 q23 41.5 23 98.5 q0 54 -31.5 93.5 q-31.5 39.5 -91.5 39.5 q-34 0 -63 -15.5 q-29 -15.5 -47 -44 q-18 -28.5 -18 -68.5 q0 -33 13 -64.5 q13 -31.5 46 -60.5 q33 -29 93 -56 ZM248 346 q-63 -38 -90.5 -79 q-27.5 -41 -27.5 -98 q0 -71 39 -112 q39 -41 109 -41 q70 0 108.5 38 q38.5 38 38.5 100 q0 37 -16 69 q-16 32 -54.5 62.5 q-38.5 30.5 -106.5 60.5 Z" /><glyph glyph-name="" unicode="9" d="M105 -16 l-7 26 q138 49 216 136 q78 87 99 206 q-27 -28 -64.5 -44 q-37.5 -16 -84.5 -16 q-61 0 -108.5 26.5 q-47.5 26.5 -75 76 q-27.5 49.5 -27.5 117.5 q0 72 29.5 123.5 q29.5 51.5 80.5 79.5 q51 28 114 28 q70 0 121 -35.5 q51 -35.5 79.5 -101 q28.5 -65.5 28.5 -157.5 q0 -109 -45.5 -202 q-45.5 -93 -135 -161 q-89.5 -68 -220.5 -102 ZM419 388 q3 30 3 64 q0 131 -42 195.5 q-42 64.5 -104 64.5 q-57 0 -98.5 -48.5 q-41.5 -48.5 -41.5 -143.5 q0 -89 44.5 -139 q44.5 -50 112.5 -50 q72 0 126 57 Z" /><glyph glyph-name="" unicode=":" d="M163 -15 q-27 0 -44 18.5 q-17 18.5 -17 42.5 q0 26 17 44 q17 18 44 18 q26 0 44 -18 q18 -18 18 -44 q0 -24 -18 -42.5 q-18 -18.5 -44 -18.5 ZM163 381 q-27 0 -44 18.5 q-17 18.5 -17 42.5 q0 26 17 44 q17 18 44 18 q26 0 44 -18 q18 -18 18 -44 q0 -24 -18 -42.5 q-18 -18.5 -44 -18.5 Z" /><glyph glyph-name="" unicode="&lt;" d="M61 344 l0 33 l432 247 l21 -37 l-402 -227 l402 -227 l-21 -37 l-432 248 Z" /><glyph glyph-name="" unicode="=" d="M543 229 l-505 0 l0 42 l505 0 l0 -42 ZM543 449 l-505 0 l0 42 l505 0 l0 -42 Z" /><glyph glyph-name="" unicode="&gt;" d="M519 376 l0 -33 l-431 -247 l-22 37 l402 227 l-402 227 l22 37 l431 -248 Z" /><glyph glyph-name="" unicode="?" d="M161 -13 q-25 0 -42.5 17.5 q-17.5 17.5 -17.5 41.5 q0 25 17.5 41.5 q17.5 16.5 42.5 16.5 q26 0 42.5 -16.5 q16.5 -16.5 16.5 -41.5 q0 -24 -16.5 -41.5 q-16.5 -17.5 -42.5 -17.5 ZM374 521 q0 -57 -24.5 -92 q-24.5 -35 -76.5 -59 l-41 -19 q-36 -18 -47.5 -30.5 q-11.5 -12.5 -11.5 -38.5 l2 -69 l-27 0 l-10 41 q-7 27 -11 43 q-4 16 -4 30 q0 26 18.5 45 q18.5 19 62.5 40 l49 20 q45 24 62.5 47.5 q17.5 23.5 16.5 60.5 q0 48 -33 87 l-156 22 q-35 5 -48 19 q-13 14 -13 33 q0 20 11.5 31 q11.5 11 32.5 17 q42 -9 86 -27 q44 -18 80.5 -46 q36.5 -28 59 -66.5 q22.5 -38.5 22.5 -88.5 Z" /><glyph glyph-name="" unicode="@" d="M630 55 q-49 0 -75.5 24 q-26.5 24 -29.5 68 q-66 -92 -148 -92 q-51 0 -84.5 35 q-33.5 35 -33.5 108 q0 57 20 113 q20 56 54.5 102.5 q34.5 46.5 79 74.5 q44.5 28 93.5 28 q49 0 82 -42 l49 37 l14 -10 l-60 -315 q-10 -52 3.5 -75 q13.5 -23 52.5 -23 q42 0 85 32.5 q43 32.5 72.5 95 q29.5 62.5 29.5 152.5 q0 98 -41 169.5 q-41 71.5 -112.5 110.5 q-71.5 39 -164.5 39 q-92 0 -170.5 -37 q-78.5 -37 -136.5 -101.5 q-58 -64.5 -90.5 -149 q-32.5 -84.5 -32.5 -179.5 q0 -115 46.5 -194.5 q46.5 -79.5 125.5 -121 q79 -41.5 176 -41.5 q60 0 108 11 q48 11 91 33 l12 -22 q-49 -25 -104.5 -39 q-55.5 -14 -116.5 -14 q-109 0 -195.5 44 q-86.5 44 -136.5 128.5 q-50 84.5 -50 208.5 q0 105 36 196.5 q36 91.5 101 161 q65 69.5 152.5 109 q87.5 39.5 191.5 39.5 q105 0 183 -45 q78 -45 121 -125 q43 -80 43 -187 q0 -75 -22 -132.5 q-22 -57.5 -57.5 -96.5 q-35.5 -39 -77.5 -58.5 q-42 -19.5 -83 -19.5 ZM524 173 l50 265 q-14 21 -31.5 30 q-17.5 9 -39.5 9 q-34 0 -65.5 -23 q-31.5 -23 -56.5 -61.5 q-25 -38.5 -39 -84.5 q-14 -46 -14 -92 q0 -55 22 -84 q22 -29 57 -29 q24 0 51.5 14 q27.5 14 65.5 56 Z" /><glyph glyph-name="" unicode="a" d="M332 643 l-116 -362 l234 0 l-118 362 ZM418 0 l0 30 l111 9 l-68 210 l-255 0 l-67 -209 l97 -10 l0 -30 l-224 0 l0 30 l85 10 l231 694 l56 0 l235 -696 l92 -8 l0 -30 l-293 0 Z" /><glyph glyph-name="" unicode="b" d="M53 698 l0 30 l295 0 q123 0 181 -48 q58 -48 58 -125 q0 -58 -42 -105.5 q-42 -47.5 -140 -66.5 q117 -12 169 -62.5 q52 -50.5 52 -122.5 q0 -52 -28 -97 q-28 -45 -90 -73 q-62 -28 -165 -28 l-290 0 l0 30 l103 9 q1 74 1 149.5 q0 75.5 0 151.5 l0 53 q0 74 0 148.5 q0 74.5 -1 148.5 l-103 8 ZM245 364 q0 -94 0.5 -174.5 q0.5 -80.5 1.5 -156.5 l89 0 q95 0 147.5 42.5 q52.5 42.5 52.5 121.5 q0 82 -52.5 124.5 q-52.5 42.5 -166.5 42.5 l-72 0 ZM247 695 q-1 -73 -1.5 -147.5 q-0.5 -74.5 -0.5 -152.5 l62 0 q97 0 145.5 41.5 q48.5 41.5 48.5 117.5 q0 67 -40.5 104 q-40.5 37 -137.5 37 l-76 0 Z" /><glyph glyph-name="" unicode="c" d="M422 -16 q-107 0 -190 45.5 q-83 45.5 -129.5 130.5 q-46.5 85 -46.5 202 q0 117 48 203 q48 86 131 133 q83 47 187 47 q62 0 110.5 -13.5 q48.5 -13.5 96.5 -42.5 l3 -160 l-45 0 l-30 152 q-28 15 -57.5 21.5 q-29.5 6.5 -64.5 6.5 q-82 0 -146.5 -40 q-64.5 -40 -101 -117 q-36.5 -77 -36.5 -188 q0 -112 36.5 -189 q36.5 -77 100 -117 q63.5 -40 143.5 -40 q36 0 69.5 7.5 q33.5 7.5 64.5 23.5 l30 150 l45 0 l-2 -159 q-50 -30 -102.5 -43 q-52.5 -13 -113.5 -13 Z" /><glyph glyph-name="" unicode="d" d="M53 698 l0 30 l299 0 q113 0 193.5 -42.5 q80.5 -42.5 124 -124 q43.5 -81.5 43.5 -197.5 q0 -112 -45 -193.5 q-45 -81.5 -129 -126 q-84 -44.5 -201 -44.5 l-285 0 l0 30 l103 9 q1 74 1 152 q0 78 0 167 l0 27 q0 79 0 155 q0 76 -1 150 l-103 8 ZM247 33 l82 0 q143 0 216.5 88.5 q73.5 88.5 73.5 242.5 q0 162 -72 246.5 q-72 84.5 -207 84.5 l-93 0 q-1 -75 -1 -152 q0 -77 0 -158 l0 -27 q0 -91 0 -170 q0 -79 1 -155 Z" /><glyph glyph-name="" unicode="e" d="M548 548 l-28 145 l-273 0 q-1 -73 -1 -149 q0 -76 0 -158 l177 0 l13 105 l35 0 l0 -241 l-35 0 l-13 103 l-177 0 q0 -88 0 -166.5 q0 -78.5 1 -152.5 l290 0 l29 149 l42 0 l-6 -183 l-549 0 l0 30 l103 9 q1 74 1 148 q0 74 0 150 l0 54 q0 75 0 150 q0 75 -1 149 l-103 8 l0 30 l531 0 l7 -180 l-43 0 Z" /><glyph glyph-name="" unicode="f" d="M551 548 l-28 145 l-276 0 q-1 -73 -1 -149 q0 -76 0 -158 l178 0 l14 105 l35 0 l0 -245 l-35 0 l-14 107 l-178 0 q0 -87 0 -163.5 q0 -76.5 1 -149.5 l114 -10 l0 -30 l-308 0 l0 30 l103 9 q1 74 1 148 q0 74 0 150 l0 54 q0 75 0 150 q0 75 -1 149 l-103 8 l0 30 l534 0 l6 -180 l-42 0 Z" /><glyph glyph-name="" unicode="g" d="M449 319 l0 30 l280 0 l0 -30 l-73 -8 q-1 -48 -1.5 -100 q-0.5 -52 -0.5 -111 l0 -52 q-58 -34 -112 -49 q-54 -15 -120 -15 q-109 0 -191.5 48 q-82.5 48 -128.5 133.5 q-46 85.5 -46 199.5 q0 114 47 199.5 q47 85.5 130.5 133 q83.5 47.5 192.5 47.5 q68 0 118.5 -15 q50.5 -15 96.5 -43 l3 -160 l-46 0 l-29 149 q-59 33 -133 33 q-83 0 -147.5 -41 q-64.5 -41 -101 -118 q-36.5 -77 -36.5 -186 q0 -106 35.5 -183.5 q35.5 -77.5 98.5 -119.5 q63 -42 147 -42 q73 0 138 28 l0 54 q0 103 -3 208 l-118 10 Z" /><glyph glyph-name="" unicode="h" d="M504 698 l0 30 l297 0 l0 -30 l-103 -8 q-1 -73 -1.5 -148 q-0.5 -75 -0.5 -151 l0 -54 q0 -75 0.5 -149.5 q0.5 -74.5 1.5 -148.5 l103 -9 l0 -30 l-297 0 l0 30 l102 9 q2 73 2 151 q0 78 0 171 l-362 0 q0 -93 0 -171 q0 -78 1 -151 l103 -9 l0 -30 l-297 0 l0 30 l103 9 q1 74 1 148 q0 74 0 150 l0 54 q0 75 0 150 q0 75 -1 149 l-103 8 l0 30 l297 0 l0 -30 l-103 -8 q-1 -73 -1 -147 q0 -74 0 -149 l362 0 q0 74 0 148.5 q0 74.5 -2 147.5 l-102 8 Z" /><glyph glyph-name="" unicode="i" d="M53 698 l0 30 l299 0 l0 -30 l-104 -8 q-1 -73 -1.5 -148 q-0.5 -75 -0.5 -151 l0 -54 q0 -75 0.5 -149.5 q0.5 -74.5 1.5 -148.5 l104 -9 l0 -30 l-299 0 l0 30 l103 9 q2 74 2 148 q0 74 0 150 l0 54 q0 75 0 150 q0 75 -2 149 l-103 8 Z" /><glyph glyph-name="" unicode="j" d="M55 698 l0 30 l311 0 l0 -30 l-104 -8 q-1 -73 -1.5 -147.5 q-0.5 -74.5 -0.5 -151.5 l0 -211 q0 -74 -6.5 -122 q-6.5 -48 -19.5 -78.5 q-13 -30.5 -33 -55.5 q-28 -35 -62 -50.5 q-34 -15.5 -71 -15.5 q-34 0 -57 10.5 q-23 10.5 -26 35.5 q4 21 19 30 q15 9 36 9 q20 0 35.5 -6.5 q15.5 -6.5 36.5 -24.5 l15 -16 q26 37 37.5 97.5 q11.5 60.5 11.5 159.5 q0 50 0 99.5 q0 49.5 -0.5 109.5 q-0.5 60 -1 139.5 q-0.5 79.5 -2.5 187.5 l-117 9 Z" /><glyph glyph-name="" unicode="k" d="M573 0 l-113 0 l0 30 l92 8 l-194 349 l-115 -138 l1 -210 l103 -9 l0 -30 l-294 0 l0 30 l103 9 q1 74 1 148 q0 74 0 150 l0 54 q0 75 0 150 q0 75 -1 149 l-103 8 l0 30 l297 0 l0 -30 l-106 -8 q-1 -73 -1 -148 q0 -75 0 -151 l0 -94 l319 390 l-107 11 l0 30 l248 0 l0 -30 l-93 -10 l-197 -235 l233 -415 l86 -8 l0 -30 l-159 0 Z" /><glyph glyph-name="" unicode="l" d="M53 698 l0 30 l301 0 l0 -30 l-107 -8 q-1 -74 -1 -151 q0 -77 0 -161 l0 -58 q0 -64 0 -137.5 q0 -73.5 1 -148.5 l268 0 l30 161 l44 0 l-7 -195 l-529 0 l0 30 l103 9 q1 74 1 147 q0 73 0 143 l0 62 q0 75 0 150.5 q0 75.5 -1 148.5 l-103 8 Z" /><glyph glyph-name="" unicode="m" d="M728 0 l-101 0 l0 30 l102 9 q1 74 1 146.5 q0 72.5 0 139.5 l3 325 l-259 -650 l-33 0 l-266 650 l5 -263 l0 -346 l106 -11 l0 -30 l-245 0 l0 30 l100 11 l2 648 l-101 9 l0 30 l191 0 l249 -611 l244 611 l196 0 l0 -30 l-103 -8 q-1 -73 -1 -148.5 q0 -75.5 0 -150.5 l0 -54 q0 -76 0 -150 q0 -74 1 -148 l105 -9 l0 -30 l-196 0 Z" /><glyph glyph-name="" unicode="n" d="M616 -7 l-439 647 l2 -321 l0 -278 l122 -11 l0 -30 l-257 0 l0 30 l96 11 l0 651 l-97 6 l0 30 l176 0 l405 -600 l-2 267 l0 293 l-121 10 l0 30 l255 0 l0 -30 l-97 -10 l0 -695 l-43 0 Z" /><glyph glyph-name="" unicode="o" d="M383 -16 q-66 0 -125.5 25.5 q-59.5 25.5 -104.5 74 q-45 48.5 -71 119.5 q-26 71 -26 161 q0 89 26 159.5 q26 70.5 71 120 q45 49.5 104.5 75.5 q59.5 26 125.5 26 q89 0 163.5 -45 q74.5 -45 119 -130 q44.5 -85 44.5 -206 q0 -89 -25.5 -159.5 q-25.5 -70.5 -71 -119.5 q-45.5 -49 -104.5 -75 q-59 -26 -126 -26 ZM383 18 q77 0 128.5 47 q51.5 47 77.5 126 q26 79 26 173 q0 94 -26 172.5 q-26 78.5 -77.5 125.5 q-51.5 47 -128.5 47 q-76 0 -127.5 -47 q-51.5 -47 -78 -125.5 q-26.5 -78.5 -26.5 -172.5 q0 -94 26.5 -173 q26.5 -79 78 -126 q51.5 -47 127.5 -47 Z" /><glyph glyph-name="" unicode="p" d="M53 698 l0 30 l283 0 q137 0 202.5 -57 q65.5 -57 65.5 -155 q0 -61 -30.5 -110.5 q-30.5 -49.5 -96.5 -78.5 q-66 -29 -171 -29 l-60 0 l1 -258 l114 -10 l0 -30 l-308 0 l0 30 l103 9 q1 74 1 148 q0 74 0 150 l0 54 q0 75 0 150 q0 75 -1 149 l-103 8 ZM246 331 l58 0 q114 0 164 52 q50 52 50 134 q0 87 -45.5 132.5 q-45.5 45.5 -143.5 45.5 l-82 0 q-1 -75 -1 -151 q0 -76 0 -153 l0 -60 Z" /><glyph glyph-name="" unicode="q" d="M383 18 q77 0 128.5 47 q51.5 47 77.5 126 q26 79 26 173 q0 94 -26 172.5 q-26 78.5 -77.5 125.5 q-51.5 47 -128.5 47 q-76 0 -127.5 -47 q-51.5 -47 -78 -125.5 q-26.5 -78.5 -26.5 -172.5 q0 -94 26.5 -173 q26.5 -79 78 -126 q51.5 -47 127.5 -47 ZM538 -221 q-69 0 -113.5 29.5 q-44.5 29.5 -65.5 77.5 q-21 48 -22 101 q-78 11 -141.5 58.5 q-63.5 47.5 -101.5 128 q-38 80.5 -38 190.5 q0 89 26 159.5 q26 70.5 71 120 q45 49.5 104.5 75.5 q59.5 26 125.5 26 q89 0 163.5 -45 q74.5 -45 119 -130 q44.5 -85 44.5 -206 q0 -111 -39 -192 q-39 -81 -104.5 -128.5 q-65.5 -47.5 -146.5 -57.5 q0 -79 39 -124 q39 -45 105 -45 q26 0 47.5 4.5 q21.5 4.5 44.5 12.5 l9 -22 q-28 -17 -61.5 -25 q-33.5 -8 -65.5 -8 Z" /><glyph glyph-name="" unicode="r" d="M53 698 l0 30 l306 0 q120 0 185.5 -48.5 q65.5 -48.5 65.5 -139.5 q0 -67 -47 -118.5 q-47 -51.5 -142 -67.5 q58 -11 84 -42 q26 -31 42 -89 l56 -186 l97 -7 l0 -30 q-17 -4 -37.5 -6.5 q-20.5 -2.5 -48.5 -2.5 q-50 0 -73.5 15.5 q-23.5 15.5 -31.5 50.5 l-50 171 q-11 42 -26 66.5 q-15 24.5 -41 35.5 q-26 11 -71 11 l-76 0 q0 -79 0.5 -154 q0.5 -75 1.5 -148 l105 -9 l0 -30 l-299 0 l0 30 l103 9 q1 74 1 148 q0 74 0 150 l0 54 q0 75 0 150 q0 75 -1 149 l-103 8 ZM247 695 q-1 -73 -1.5 -151.5 q-0.5 -78.5 -0.5 -170.5 l103 0 q56 0 95.5 22 q39.5 22 60.5 60 q21 38 21 84 q0 73 -43.5 114.5 q-43.5 41.5 -135.5 41.5 l-99 0 Z" /><glyph glyph-name="" unicode="s" d="M264 -16 q-62 0 -118 17 q-56 17 -93 41 l6 149 l41 0 l27 -140 q32 -18 62 -24.5 q30 -6.5 69 -6.5 q82 0 131.5 36.5 q49.5 36.5 49.5 108.5 q0 37 -13.5 63.5 q-13.5 26.5 -44.5 49 q-31 22.5 -86 44.5 l-43 17 q-89 38 -135 88.5 q-46 50.5 -46 126.5 q0 63 31.5 105.5 q31.5 42.5 84.5 64 q53 21.5 117 21.5 q57 0 100 -14.5 q43 -14.5 80 -40.5 l-4 -142 l-43 0 l-27 135 q-43 25 -101 25 q-70 0 -115.5 -33 q-45.5 -33 -45.5 -99 q0 -56 33.5 -90.5 q33.5 -34.5 92.5 -59.5 l45 -18 q76 -31 119.5 -62.5 q43.5 -31.5 61.5 -69.5 q18 -38 18 -89 q0 -62 -31.5 -108 q-31.5 -46 -88.5 -70.5 q-57 -24.5 -134 -24.5 Z" /><glyph glyph-name="" unicode="t" d="M22 538 l8 190 l599 0 l9 -190 l-43 0 l-29 155 l-191 0 q-1 -74 -1 -149.5 q0 -75.5 0 -152.5 l0 -54 q0 -75 0 -149.5 q0 -74.5 1 -148.5 l115 -9 l0 -30 l-320 0 l0 30 l114 9 q2 74 2 148 q0 74 0 150 l0 54 q0 76 0 151.5 q0 75.5 -2 150.5 l-190 0 l-29 -155 l-43 0 Z" /><glyph glyph-name="" unicode="u" d="M498 698 l0 30 l258 0 l0 -30 l-97 -10 l-2 -402 q-1 -153 -66 -227.5 q-65 -74.5 -190 -74.5 q-77 0 -135.5 29.5 q-58.5 29.5 -91 93.5 q-32.5 64 -32.5 169 l0 115 q0 75 0 150 q0 75 -1 149 l-96 8 l0 30 l296 0 l0 -30 l-110 -9 q-1 -73 -1 -147 q0 -74 0 -151 l0 -100 q0 -93 23 -148.5 q23 -55.5 65.5 -80 q42.5 -24.5 101.5 -24.5 q102 0 151.5 62 q49.5 62 48.5 206 l-1 382 l-121 10 Z" /><glyph glyph-name="" unicode="v" d="M461 698 l0 30 l245 0 l0 -29 l-91 -10 l-233 -696 l-47 0 l-244 698 l-86 7 l0 30 l293 0 l0 -30 l-113 -9 l196 -589 l190 588 l-110 10 Z" /><glyph glyph-name="" unicode="w" d="M802 698 l0 30 l244 0 l0 -30 l-100 -10 l-190 -695 l-47 0 l-184 611 l-181 -611 l-47 0 l-196 697 l-89 8 l0 30 l282 0 l0 -30 l-103 -9 l154 -574 l170 574 l-101 9 l0 30 l279 0 l0 -30 l-110 -10 l170 -574 l151 574 l-102 10 Z" /><glyph glyph-name="" unicode="x" d="M424 698 l0 30 l243 0 l0 -30 l-96 -10 l-187 -293 l211 -357 l89 -8 l0 -30 l-290 0 l0 30 l105 9 l-170 286 l-175 -284 l105 -11 l0 -30 l-243 0 l0 30 l93 10 l202 315 l-199 335 l-85 8 l0 30 l288 0 l0 -30 l-106 -9 l158 -267 l160 266 l-103 10 Z" /><glyph glyph-name="" unicode="y" d="M432 698 l0 30 l239 0 l0 -30 l-90 -10 l-193 -391 q0 -63 0 -107 q0 -44 0.5 -78.5 q0.5 -34.5 1.5 -72.5 l116 -9 l0 -30 l-322 0 l0 30 l115 9 q1 36 1.5 70 q0.5 34 0.5 76.5 q0 42.5 0 103.5 l-201 402 l-73 7 l0 30 l282 0 l0 -30 l-110 -9 l171 -355 l169 354 l-107 10 Z" /><glyph glyph-name="" unicode="z" d="M27 0 l0 33 l434 660 l-345 0 l-30 -155 l-44 0 l9 190 l507 0 l0 -33 l-433 -661 l375 0 l34 159 l42 0 l-8 -193 l-541 0 Z" /><glyph glyph-name="" unicode="[" d="M144 -173 l-37 0 q3 84 3.5 171 q0.5 87 0.5 174 l0 261 q0 86 -0.5 172.5 q-0.5 86.5 -3.5 172.5 l196 0 l0 -32 l-122 -10 q-2 -75 -2.5 -150.5 q-0.5 -75.5 -0.5 -152.5 l0 -261 q0 -75 0.5 -151 q0.5 -76 2.5 -152 l122 -10 l0 -32 l-159 0 Z" /><glyph glyph-name="" unicode="]" d="M200 778 l36 0 q-2 -85 -2.5 -171.5 q-0.5 -86.5 -0.5 -173.5 l0 -261 q0 -85 0.5 -172 q0.5 -87 2.5 -173 l-195 0 l0 32 l122 11 q2 74 2 150 q0 76 0 152 l0 261 q0 75 0 150.5 q0 75.5 -2 151.5 l-122 11 l0 32 l159 0 Z" /><glyph glyph-name="" unicode="^" d="M92 247 l178 288 l40 0 l183 -288 l-35 -23 l-168 262 l-164 -262 l-34 23 Z" /><glyph glyph-name="" unicode="_" d="M-5 -70 l0 48 l574 0 l0 -48 l-574 0 Z" /><glyph glyph-name="" unicode="`" d="M280 624 l-18 -14 q-30 29 -61 57.5 q-31 28.5 -64 56.5 q-44 35 -44 60 q0 16 11 25 q11 9 24 9 q14 0 26.5 -10 q12.5 -10 28.5 -35 q25 -40 49.5 -76.5 q24.5 -36.5 47.5 -72.5 Z" /><glyph glyph-name="" unicode="a" d="M457 -14 q-41 0 -63 25.5 q-22 25.5 -28 70.5 q-44 -48 -83 -72.5 q-39 -24.5 -93 -24.5 q-59 0 -98.5 34 q-39.5 34 -39.5 96 q0 59 40 99 q40 40 139 68 q32 10 66 19.5 q34 9.5 67 16.5 l0 41 q0 83 -27.5 112 q-27.5 29 -86.5 29 q-37 0 -78 -15 l-15 -72 q-4 -27 -16.5 -38 q-12.5 -11 -31.5 -11 q-35 0 -44 36 q15 62 68.5 96.5 q53.5 34.5 138.5 34.5 q87 0 129.5 -41.5 q42.5 -41.5 42.5 -134.5 l0 -247 q0 -47 11 -63.5 q11 -16.5 31 -16.5 q13 0 23 5.5 q10 5.5 22 18.5 l16 -15 q-31 -51 -90 -51 ZM364 113 l0 179 q-31 -8 -60 -16.5 q-29 -8.5 -55 -18.5 q-63 -23 -90 -55.5 q-27 -32.5 -27 -73.5 q0 -46 25.5 -70 q25.5 -24 67.5 -24 q30 0 61 17 q31 17 78 62 Z" /><glyph glyph-name="" unicode="b" d="M370 -15 q-42 0 -84 19 q-42 19 -78 62 l-10 -75 l-156 9 l0 28 l84 7 q1 28 1 62.5 q0 34.5 0.5 69.5 q0.5 35 0.5 62 l0 514 l-88 5 l0 27 l156 30 l15 -9 l-3 -155 l0 -192 q38 44 83 63 q45 19 90 19 q61 0 108 -33 q47 -33 74 -93 q27 -60 27 -142 q0 -81 -27.5 -144 q-27.5 -63 -77 -98.5 q-49.5 -35.5 -115.5 -35.5 ZM210 420 l0 -325 q34 -33 66.5 -47.5 q32.5 -14.5 68.5 -14.5 q42 0 77.5 22.5 q35.5 22.5 57.5 72.5 q22 50 22 134 q0 113 -43.5 168 q-43.5 55 -111.5 55 q-31 0 -64 -13.5 q-33 -13.5 -73 -51.5 Z" /><glyph glyph-name="" unicode="c" d="M297 -15 q-73 0 -129.5 31.5 q-56.5 31.5 -88 91.5 q-31.5 60 -31.5 143 q0 90 37 152.5 q37 62.5 96.5 95 q59.5 32.5 128.5 32.5 q67 0 118 -36 q51 -36 67 -96 q-9 -35 -42 -35 q-21 0 -33 11.5 q-12 11.5 -17 37.5 l-21 73 q-32 13 -67 13 q-51 0 -91.5 -29 q-40.5 -29 -64.5 -82 q-24 -53 -24 -126 q0 -108 53 -167.5 q53 -59.5 137 -59.5 q90 0 156 72 l16 -13 q-34 -52 -81.5 -80.5 q-47.5 -28.5 -118.5 -28.5 Z" /><glyph glyph-name="" unicode="d" d="M432 -10 l-3 75 q-32 -40 -73.5 -60 q-41.5 -20 -88.5 -20 q-63 0 -112.5 33.5 q-49.5 33.5 -78 94 q-28.5 60.5 -28.5 139.5 q0 86 31 148.5 q31 62.5 84 96.5 q53 34 118 34 q40 0 77.5 -17.5 q37.5 -17.5 71.5 -58.5 l0 288 l-91 5 l0 27 l159 30 l14 -9 l-3 -152 l0 -610 l94 -6 l0 -28 l-171 -10 ZM428 97 l0 327 q-32 32 -61.5 46.5 q-29.5 14.5 -63.5 14.5 q-45 0 -83 -23.5 q-38 -23.5 -61 -74.5 q-23 -51 -23 -133 q0 -114 46 -167.5 q46 -53.5 114 -53.5 q38 0 69.5 15 q31.5 15 62.5 49 Z" /><glyph glyph-name="" unicode="e" d="M303 -15 q-74 0 -131.5 30.5 q-57.5 30.5 -90.5 91 q-33 60.5 -33 150.5 q0 84 34 145.5 q34 61.5 90.5 95 q56.5 33.5 122.5 33.5 q65 0 111.5 -27.5 q46.5 -27.5 71 -74.5 q24.5 -47 24.5 -106 q0 -38 -7 -60 l-360 0 q2 -119 55 -173.5 q53 -54.5 135 -54.5 q53 0 92.5 18.5 q39.5 18.5 70.5 54.5 l16 -14 q-33 -51 -83 -80 q-50 -29 -118 -29 ZM136 294 l241 0 q26 0 35.5 14 q9.5 14 9.5 44 q0 64 -34 105.5 q-34 41.5 -95 41.5 q-62 0 -107 -53.5 q-45 -53.5 -50 -151.5 Z" /><glyph glyph-name="" unicode="f" d="M125 0 l-89 0 l0 28 l90 9 l2 192 l0 250 l-95 0 l0 30 l95 8 q5 92 26.5 149 q21.5 57 61.5 94 q31 29 66 42.5 q35 13.5 72 13.5 q36 0 65 -13 q29 -13 36 -39 q-1 -18 -14 -29.5 q-13 -11.5 -36 -11.5 q-19 0 -36.5 10.5 q-17.5 10.5 -38.5 32.5 l-19 20 q-19 -7 -34.5 -21 q-15.5 -14 -26.5 -31 q-23 -35 -32.5 -83.5 q-9.5 -48.5 -7.5 -134.5 l155 0 l0 -37 l-154 0 l0 -250 l2 -192 l102 -9 l0 -28 l-190 0 Z" /><glyph glyph-name="" unicode="g" d="M261 204 q54 0 87 41 q33 41 33 108 q0 68 -33 108 q-33 40 -86 40 q-54 0 -86.5 -40.5 q-32.5 -40.5 -32.5 -108.5 q0 -67 31.5 -107.5 q31.5 -40.5 86.5 -40.5 ZM261 174 q-52 0 -92 17 q-19 -21 -28 -37.5 q-9 -16.5 -9 -37.5 q0 -25 18 -41.5 q18 -16.5 59 -16.5 l146 0 q91 0 134.5 -35 q43.5 -35 43.5 -98 q0 -46 -32.5 -88.5 q-32.5 -42.5 -95.5 -69.5 q-63 -27 -156 -27 q-112 0 -160 37 q-48 37 -48 95 q0 41 26 71.5 q26 30.5 77 54.5 q-68 21 -68 86 q0 29 17 57 q17 28 56 59 q-40 23 -61.5 62 q-21.5 39 -21.5 90 q0 81 52.5 130 q52.5 49 143.5 49 q42 0 76.5 -11.5 q34.5 -11.5 57.5 -31.5 l125 39 l17 -11 l0 -54 l-118 4 q37 -46 37 -114 q0 -80 -53 -129 q-53 -49 -143 -49 ZM164 -10 q-31 -25 -45.5 -48 q-14.5 -23 -14.5 -56 q0 -54 38.5 -82 q38.5 -28 108.5 -28 q104 0 157.5 36.5 q53.5 36.5 53.5 90.5 q0 34 -24 58.5 q-24 24.5 -87 24.5 l-123 0 q-39 0 -64 4 Z" /><glyph glyph-name="" unicode="h" d="M465 0 l-81 0 l0 28 l82 8 l2 193 l0 115 q0 74 -24.5 103.5 q-24.5 29.5 -68.5 29.5 q-32 0 -73.5 -18 q-41.5 -18 -91.5 -68 l0 -162 l2 -193 l75 -8 l0 -28 l-245 0 l0 28 l84 8 l2 193 l0 515 l-88 4 l0 27 l156 30 l15 -9 l-3 -155 l0 -220 q50 58 100.5 84 q50.5 26 101.5 26 q65 0 102.5 -43.5 q37.5 -43.5 37.5 -146.5 l0 -112 q0 -42 0.5 -97 q0.5 -55 1.5 -96 l77 -8 l0 -28 l-164 0 Z" /><glyph glyph-name="" unicode="i" d="M163 655 q-24 0 -41 15.5 q-17 15.5 -17 40.5 q0 25 17 41 q17 16 41 16 q23 0 40.5 -16 q17.5 -16 17.5 -41 q0 -25 -17.5 -40.5 q-17.5 -15.5 -40.5 -15.5 ZM126 0 l-83 0 l0 28 l84 8 q1 28 1.5 62.5 q0.5 34.5 1 69 q0.5 34.5 0.5 61.5 l0 60 q0 50 -1 91.5 q-1 41.5 -3 78.5 l-89 4 l0 26 l165 39 l12 -8 l-3 -140 l0 -151 q0 -27 0.5 -61.5 q0.5 -34.5 1 -69 q0.5 -34.5 0.5 -62.5 l77 -8 l0 -28 l-164 0 Z" /><glyph glyph-name="" unicode="j" d="M160 655 q-24 0 -41.5 15.5 q-17.5 15.5 -17.5 40.5 q0 25 17.5 41 q17.5 16 41.5 16 q23 0 40 -16 q17 -16 17 -41 q0 -25 -17 -40.5 q-17 -15.5 -40 -15.5 ZM8 -271 q-40 0 -61.5 13.5 q-21.5 13.5 -25.5 32.5 q9 41 55 41 q35 0 67 -31 l20 -19 q11 8 19.5 17.5 q8.5 9.5 15.5 22.5 q20 38 23.5 113 q3.5 75 3.5 177 l0 192 q0 50 -0.5 92 q-0.5 42 -2.5 79 l-88 4 l0 26 l161 39 l15 -9 l-4 -139 l0 -276 q0 -91 -4.5 -151 q-4.5 -60 -19 -99.5 q-14.5 -39.5 -45.5 -69.5 q-29 -29 -60 -42 q-31 -13 -69 -13 Z" /><glyph glyph-name="" unicode="k" d="M333 487 l0 29 l246 0 l0 -29 l-99 -8 l-136 -133 l182 -311 l78 -7 l0 -28 l-148 0 l-170 290 l-76 -75 l2 -179 l80 -8 l0 -28 l-251 0 l0 28 l85 9 l2 192 l0 515 l-88 4 l0 27 l158 30 l15 -9 l-3 -155 l0 -385 l110 111 l109 109 l-96 11 Z" /><glyph glyph-name="" unicode="l" d="M125 0 l-90 0 l0 28 l91 9 l2 192 l0 515 l-88 4 l0 27 l158 30 l15 -9 l-3 -155 l0 -412 l2 -193 l89 -8 l0 -28 l-176 0 Z" /><glyph glyph-name="" unicode="m" d="M778 0 l-80 0 l0 28 l82 8 q1 42 1.5 96.5 q0.5 54.5 0.5 96.5 l0 113 q0 77 -24 106 q-24 29 -67 29 q-34 0 -74 -18.5 q-40 -18.5 -85 -65.5 q3 -24 3 -51 l0 -113 l2 -193 l77 -8 l0 -28 l-244 0 l0 28 l83 8 l2 193 l0 113 q0 74 -23 104.5 q-23 30.5 -64 30.5 q-34 0 -73.5 -20 q-39.5 -20 -85.5 -68 l0 -160 l2 -193 l76 -8 l0 -28 l-245 0 l0 28 l83 8 l2 193 l0 61 q0 51 -0.5 91 q-0.5 40 -2.5 77 l-88 5 l0 25 l154 40 l13 -8 l5 -97 q46 53 93 80.5 q47 27.5 98 27.5 q50 0 82.5 -25.5 q32.5 -25.5 45.5 -82.5 q46 56 94 82 q48 26 100 26 q69 0 105.5 -43.5 q36.5 -43.5 36.5 -144.5 l0 -114 l2 -193 l76 -8 l0 -28 l-163 0 Z" /><glyph glyph-name="" unicode="n" d="M464 0 l-82 0 l0 28 l83 9 l2 192 l0 115 q0 74 -24 103.5 q-24 29.5 -68 29.5 q-31 0 -73.5 -18.5 q-42.5 -18.5 -92.5 -68.5 l0 -161 l2 -193 l76 -8 l0 -28 l-245 0 l0 28 l83 8 l2 193 l0 60 q0 52 -0.5 92 q-0.5 40 -2.5 77 l-88 4 l0 26 l154 40 l13 -8 l5 -98 q51 58 101 83.5 q50 25.5 99 25.5 q66 0 103 -44 q37 -44 37 -145 l0 -113 l2 -193 l77 -8 l0 -28 l-163 0 Z" /><glyph glyph-name="" unicode="o" d="M297 -15 q-66 0 -122.5 31 q-56.5 31 -91.5 91.5 q-35 60.5 -35 150.5 q0 90 35.5 150.5 q35.5 60.5 92.5 91.5 q57 31 121 31 q65 0 122 -30.5 q57 -30.5 92.5 -91.5 q35.5 -61 35.5 -151 q0 -90 -35 -151 q-35 -61 -91.5 -91.5 q-56.5 -30.5 -123.5 -30.5 ZM297 16 q74 0 117 62 q43 62 43 179 q0 117 -43 179.5 q-43 62.5 -117 62.5 q-74 0 -117 -62.5 q-43 -62.5 -43 -179.5 q0 -117 43 -179 q43 -62 117 -62 Z" /><glyph glyph-name="" unicode="p" d="M367 -15 q-40 0 -81 16 q-41 16 -77 57 l0 -85 l2 -197 l97 -8 l0 -28 l-267 0 l0 28 l85 8 l2 197 l0 314 q0 51 -0.5 92.5 q-0.5 41.5 -2.5 78.5 l-89 4 l0 26 l154 40 l13 -8 l5 -74 q38 45 82 65 q44 20 90 20 q61 0 108 -33 q47 -33 74 -93 q27 -60 27 -142 q0 -85 -28.5 -147.5 q-28.5 -62.5 -78.5 -96.5 q-50 -34 -115 -34 ZM211 420 l0 -332 q32 -31 63.5 -43 q31.5 -12 68.5 -12 q44 0 79.5 22.5 q35.5 22.5 57 72.5 q21.5 50 21.5 133 q0 114 -42.5 169 q-42.5 55 -110.5 55 q-33 0 -66 -13.5 q-33 -13.5 -71 -51.5 Z" /><glyph glyph-name="" unicode="q" d="M428 -260 l-96 0 l0 28 l97 8 q1 48 1.5 96.5 q0.5 48.5 0.5 96.5 l0 99 q-35 -43 -77 -63 q-42 -20 -89 -20 q-63 0 -112 33 q-49 33 -77 93 q-28 60 -28 140 q0 86 31 149 q31 63 84 97 q53 34 119 34 q40 0 80 -18.5 q40 -18.5 74 -62.5 l61 75 l17 -6 l-4 -148 l0 -402 q0 -97 3 -193 l85 -8 l0 -28 l-170 0 ZM429 97 l0 327 q-31 32 -62 46.5 q-31 14.5 -66 14.5 q-46 0 -83.5 -24.5 q-37.5 -24.5 -59.5 -75.5 q-22 -51 -22 -133 q0 -114 46 -166.5 q46 -52.5 114 -52.5 q39 0 70 15 q31 15 63 49 Z" /><glyph glyph-name="" unicode="r" d="M124 0 l-83 0 l0 28 l84 9 l2 192 l0 60 q0 52 -0.5 92 q-0.5 40 -2.5 77 l-88 4 l0 26 l154 40 l13 -8 l6 -138 q25 68 71 108.5 q46 40.5 96 40.5 q29 0 51 -11.5 q22 -11.5 29 -33.5 q-1 -26 -13.5 -41.5 q-12.5 -15.5 -38.5 -15.5 q-19 0 -34 10 q-15 10 -32 28 l-9 9 q-76 -36 -120 -154 l0 -93 l2 -191 l95 -10 l0 -28 l-182 0 Z" /><glyph glyph-name="" unicode="s" d="M221 -15 q-48 0 -87 10.5 q-39 10.5 -80 29.5 l0 119 l44 0 l20 -107 q21 -10 45.5 -15 q24.5 -5 55.5 -5 q66 0 99.5 26.5 q33.5 26.5 33.5 69.5 q0 37 -22.5 60.5 q-22.5 23.5 -83.5 42.5 l-52 19 q-61 22 -96.5 56.5 q-35.5 34.5 -35.5 90.5 q0 63 48.5 106 q48.5 43 138.5 43 q45 0 80.5 -11 q35.5 -11 72.5 -34 l-3 -107 l-40 0 l-20 95 q-42 24 -90 24 q-57 0 -86 -25 q-29 -25 -29 -65 q0 -36 23.5 -58.5 q23.5 -22.5 78.5 -41.5 l51 -18 q76 -26 108 -61.5 q32 -35.5 32 -88.5 q0 -65 -52 -110 q-52 -45 -154 -45 Z" /><glyph glyph-name="" unicode="t" d="M236 -15 q-123 0 -123 133 q0 24 0.5 43 q0.5 19 0.5 46 l0 272 l-100 0 l0 30 l103 9 l28 154 l55 0 l-4 -156 l144 0 l0 -37 l-144 0 l0 -361 q0 -46 17.5 -67.5 q17.5 -21.5 50.5 -21.5 q23 0 39.5 6.5 q16.5 6.5 36.5 18.5 l15 -17 q-43 -52 -119 -52 Z" /><glyph glyph-name="" unicode="u" d="M456 -9 l-2 101 q-38 -48 -86 -77.5 q-48 -29.5 -107 -29.5 q-71 0 -110 44.5 q-39 44.5 -38 156.5 l3 284 l-83 11 l0 26 l157 16 l10 -12 l-4 -131 l0 -195 q0 -80 25.5 -112 q25.5 -32 74.5 -32 q43 0 83 23 q40 23 74 63 l1 344 l-81 9 l0 26 l155 17 l10 -12 l-4 -131 l0 -345 l76 -8 l0 -27 l-154 -9 Z" /><glyph glyph-name="" unicode="v" d="M347 487 l0 29 l197 0 l0 -29 l-70 -9 l-181 -483 l-40 0 l-194 485 l-67 7 l0 29 l248 0 l0 -29 l-89 -8 l147 -394 l138 393 l-89 9 Z" /><glyph glyph-name="" unicode="w" d="M633 487 l0 29 l199 0 l0 -29 l-69 -9 l-161 -483 l-37 0 l-146 425 l-152 -425 l-37 0 l-169 485 l-66 7 l0 29 l241 0 l0 -29 l-89 -7 l124 -388 l136 387 l-79 8 l0 29 l224 0 l0 -29 l-81 -8 l135 -387 l118 386 l-91 9 Z" /><glyph glyph-name="" unicode="x" d="M351 487 l0 29 l190 0 l0 -29 l-67 -8 l-153 -204 l165 -240 l68 -7 l0 -28 l-246 0 l0 28 l82 7 l-129 189 l-66 -92 l-66 -95 l78 -9 l0 -28 l-196 0 l0 28 l72 8 l161 213 l-158 231 l-68 7 l0 29 l237 0 l0 -29 l-77 -8 l126 -179 l63 90 l62 88 l-78 9 Z" /><glyph glyph-name="" unicode="y" d="M350 488 l0 28 l202 0 l0 -28 l-68 -7 l-197 -528 q-45 -119 -95.5 -171.5 q-50.5 -52.5 -111.5 -52.5 q-33 0 -60 14.5 q-27 14.5 -30 39.5 q4 21 20.5 31 q16.5 10 37.5 10 q20 0 37.5 -10 q17.5 -10 34.5 -27 l12 -12 q38 22 67.5 64.5 q29.5 42.5 52.5 102.5 l11 29 l-205 510 l-66 7 l0 28 l248 0 l0 -28 l-91 -9 l151 -409 l74 204 l71 206 l-95 8 Z" /><glyph glyph-name="" unicode="z" d="M42 0 l0 28 l320 457 l-248 0 l-30 -123 l-39 4 l8 150 l398 0 l0 -28 l-317 -457 l260 0 l33 134 l40 0 l-10 -165 l-415 0 Z" /><glyph glyph-name="" unicode="&#x2014;" d="M43 242 l0 51 l803 0 l0 -51 l-803 0 Z" /><glyph glyph-name="" unicode="&#x2026;&#x22ef;" d="M111 380 q0 23 16.5 39.5 q16.5 16.5 39.5 16.5 q23 0 39.5 -16.5 q16.5 -16.5 16.5 -39.5 q0 -23 -16.5 -39.5 q-16.5 -16.5 -39.5 -16.5 q-23 0 -39.5 16.5 q-16.5 16.5 -16.5 39.5 ZM444 380 q0 23 16.5 39.5 q16.5 16.5 39.5 16.5 q23 0 39.5 -16.5 q16.5 -16.5 16.5 -39.5 q0 -23 -16.5 -39.5 q-16.5 -16.5 -39.5 -16.5 q-23 0 -39.5 16.5 q-16.5 16.5 -16.5 39.5 ZM777 380 q0 23 16.5 39.5 q16.5 16.5 39.5 16.5 q23 0 39.5 -16.5 q16.5 -16.5 16.5 -39.5 q0 -23 -16.5 -39.5 q-16.5 -16.5 -39.5 -16.5 q-23 0 -39.5 16.5 q-16.5 16.5 -16.5 39.5 Z" /><glyph glyph-name="" unicode="&#x3001;" d="M50 173 q90 -28 140.5 -64.5 q50.5 -36.5 75.5 -72.5 q14 -19 19 -34.5 q5 -15.5 5 -32.5 q0 -22 -11.5 -33.5 q-11.5 -11.5 -29.5 -11.5 q-28 0 -48 42 q-24 50 -59.5 96.5 q-35.5 46.5 -102.5 93.5 l11 17 Z" /><glyph glyph-name="" unicode="&#x3002;" d="M42 59 q0 39 19 70.5 q19 31.5 51.5 50.5 q32.5 19 70.5 19 q39 0 70.5 -19 q31.5 -19 50.5 -50.5 q19 -31.5 19 -70.5 q0 -38 -19 -70.5 q-19 -32.5 -50.5 -51.5 q-31.5 -19 -70.5 -19 q-38 0 -70.5 19 q-32.5 19 -51.5 51.5 q-19 32.5 -19 70.5 ZM76 59 q0 -44 31 -75.5 q31 -31.5 76 -31.5 q44 0 75 31.5 q31 31.5 31 75.5 q0 44 -31 75 q-31 31 -75 31 q-45 0 -76 -31 q-31 -31 -31 -75 Z" /><glyph glyph-name="" unicode="&#x300a;" d="M819 -68 l-29 -18 l-267 466 l267 466 l29 -18 l-256 -448 l256 -448 ZM962 -68 l-29 -18 l-268 466 l268 466 l29 -18 l-257 -448 l257 -448 Z" /><glyph glyph-name="" unicode="&#x300b;" d="M181 -68 l256 448 l-256 448 l29 18 l267 -466 l-267 -466 l-29 18 ZM38 -68 l257 448 l-257 448 l29 18 l268 -466 l-268 -466 l-29 18 Z" /><glyph glyph-name="" unicode="&#x300c;" d="M657 843 l306 0 l0 -35 l-269 0 l0 -615 l-37 0 l0 650 Z" /><glyph glyph-name="" unicode="&#x300d;" d="M343 -83 l-306 0 l0 35 l269 0 l0 615 l37 0 l0 -650 Z" /><glyph glyph-name="" unicode="&#x300e;" d="M755 698 l0 -513 l-150 0 l0 659 l358 0 l0 -146 l-208 0 ZM633 816 l0 -603 l94 0 l0 513 l208 0 l0 90 l-302 0 Z" /><glyph glyph-name="" unicode="&#x300f;" d="M245 63 l0 512 l150 0 l0 -658 l-358 0 l0 146 l208 0 ZM367 -55 l0 602 l-94 0 l0 -512 l-208 0 l0 -90 l302 0 Z" /><glyph glyph-name="" unicode="&#x3014;" d="M713 21 l0 718 l233 109 l16 -32 l-211 -99 l0 -674 l211 -99 l-16 -32 l-233 109 Z" /><glyph glyph-name="" unicode="&#x3015;" d="M38 -56 l211 100 l0 672 l-211 100 l16 32 l233 -109 l0 -718 l-233 -109 l-16 32 Z" /><glyph glyph-name="" unicode="&#x2f00;&#x4e00;" d="M841 514 q0 0 20 -16.5 q20 -16.5 48 -40 q28 -23.5 50 -44.5 q-2 -9 -10.5 -12 q-8.5 -3 -20.5 -3 l-870 0 l-10 33 l730 0 l63 83 Z" /><glyph glyph-name="" unicode="&#x4e0a;" d="M41 4 l395 0 l0 825 l104 -12 q-1 -10 -9 -17.5 q-8 -7.5 -26 -10.5 l0 -324 l229 0 l52 64 q0 0 16 -12.5 q16 -12.5 38 -30.5 q22 -18 40 -35 q-4 -16 -27 -16 l-348 0 l0 -431 l307 0 l52 64 q0 0 16.5 -12.5 q16.5 -12.5 39 -30.5 q22.5 -18 40.5 -35 q-4 -16 -28 -16 l-882 0 l-9 30 Z" /><glyph glyph-name="" unicode="&#x4e0b;" d="M863 815 q0 0 17 -13 q17 -13 40 -31.5 q23 -18.5 42 -35.5 q-4 -16 -27 -16 l-425 0 l0 -198 q120 -33 194.5 -72.5 q74.5 -39.5 112 -77.5 q37.5 -38 45 -67.5 q7.5 -29.5 -7 -42 q-14.5 -12.5 -43.5 -0.5 q-21 30 -55 62.5 q-34 32.5 -76 64.5 q-42 32 -86 60.5 q-44 28.5 -84 50.5 l0 -553 q0 -4 -15.5 -13.5 q-15.5 -9.5 -39.5 -9.5 l-12 0 l0 796 l-393 0 l-9 29 l768 0 l54 67 Z" /><glyph glyph-name="" unicode="&#x4e0d;&#xf967;" d="M583 530 q122 -39 197.5 -82.5 q75.5 -43.5 113 -83 q37.5 -39.5 45 -69 q7.5 -29.5 -7 -42.5 q-14.5 -13 -42.5 -1 q-21 33 -57.5 69.5 q-36.5 36.5 -81 73 q-44.5 36.5 -90.5 68 q-46 31.5 -87 55.5 l10 12 ZM52 753 l747 0 l53 66 q0 0 16.5 -13 q16.5 -13 39.5 -31 q23 -18 41 -35 q-3 -16 -27 -16 l-301 0 q-22 -38 -49 -76 q-27 -38 -58 -74 l48 -18 q-4 -13 -30 -18 l0 -593 q-1 -4 -18.5 -12 q-17.5 -8 -35.5 -8 l-12 0 l0 596 q-88 -92 -195.5 -170 q-107.5 -78 -226.5 -135 l-9 14 q103 61 198.5 142 q95.5 81 172 171.5 q76.5 90.5 121.5 180.5 l-467 0 l-8 29 Z" /><glyph glyph-name="" unicode="&#x4e0e;" d="M605 306 q0 0 15.5 -12 q15.5 -12 37.5 -29.5 q22 -17.5 39 -34.5 q-4 -16 -26 -16 l-618 0 l-8 30 l511 0 l49 62 ZM837 717 q0 0 16 -12 q16 -12 38 -29.5 q22 -17.5 40 -34.5 q-4 -16 -27 -16 l-600 0 q-7 -46 -14.5 -90 q-7.5 -44 -14.5 -82 l501 0 l40 41 l78 -64 q-6 -6 -16 -10 q-10 -4 -26 -5 q-8 -107 -23 -201.5 q-15 -94.5 -36.5 -160.5 q-21.5 -66 -48.5 -91 q-45 -41 -125 -41 q0 15 -5 28 q-5 13 -18 21 q-13 10 -50 18.5 q-37 8.5 -74 13.5 l1 18 q29 -3 66 -6.5 q37 -3.5 69 -6 q32 -2.5 45 -2.5 q17 0 26 3 q9 3 19 11 q20 16 37 74.5 q17 58.5 30 145 q13 86.5 20 184.5 l-508 0 l-32 -34 l-74 54 q8 5 18.5 10.5 q10.5 5.5 21.5 9.5 q8 39 16.5 89.5 q8.5 50.5 16.5 104 q8 53.5 14 101.5 q6 48 8 82 l99 -26 q-3 -8 -11.5 -14.5 q-8.5 -6.5 -26.5 -5.5 q-3 -28 -8 -64 q-5 -36 -11 -75 l478 0 l51 62 Z" /><glyph glyph-name="" unicode="&#x4e14;" d="M255 757 l0 32 l77 -32 l340 0 l35 46 l88 -69 q-9 -12 -45 -18 l0 -723 l73 0 l50 65 q0 0 16 -12.5 q16 -12.5 37.5 -30.5 q21.5 -18 39.5 -35 q-4 -15 -27 -15 l-890 0 l-9 28 l215 0 l0 764 ZM320 -7 l363 0 l0 236 l-363 0 l0 -236 ZM320 482 l0 -224 l363 0 l0 224 l-363 0 ZM320 511 l363 0 l0 216 l-363 0 l0 -216 Z" /><glyph glyph-name="" unicode="&#x4e16;" d="M811 809 q-2 -10 -9.5 -17.5 q-7.5 -7.5 -27.5 -9.5 l0 -235 l56 0 l49 62 q0 0 15 -12 q15 -12 36 -29.5 q21 -17.5 37 -33.5 q-4 -16 -26 -16 l-167 0 l0 -332 q0 -7 -16.5 -15 q-16.5 -8 -36.5 -8 l-12 0 l0 67 l-197 0 l0 -66 q0 -7 -16.5 -16 q-16.5 -9 -35.5 -9 l-13 0 l0 379 l-184 0 l0 -502 l537 0 l52 66 q0 0 16 -13 q16 -13 38 -31.5 q22 -18.5 39 -35.5 q-4 -16 -26 -16 l-649 0 l-25 -38 l-75 50 q5 5 12.5 11 q7.5 6 15.5 10 l0 499 l-150 0 l-9 29 l159 0 l0 269 l102 -11 q-3 -22 -37 -28 l0 -230 l184 0 l0 287 l102 -11 q-2 -10 -9.5 -17 q-7.5 -7 -27.5 -10 l0 -249 l197 0 l0 273 l102 -11 ZM512 259 l197 0 l0 259 l-197 0 l0 -259 Z" /><glyph glyph-name="" unicode="&#x4e1a;" d="M122 614 q76 -83 118.5 -158 q42.5 -75 58.5 -134.5 q16 -59.5 12 -98 q-4 -38.5 -21 -50 q-17 -11.5 -40 10.5 q-1 49 -15 105 q-14 56 -35 113 q-21 57 -46 110 q-25 53 -49 96 l17 6 ZM878 76 q0 0 16 -13 q16 -13 38.5 -31 q22.5 -18 39.5 -35 q-4 -16 -26 -16 l-891 0 l-9 29 l310 0 l0 812 l97 -11 q-1 -10 -8 -16.5 q-7 -6.5 -24 -8.5 l0 -776 l171 0 l0 811 l96 -10 q-1 -10 -8 -16.5 q-7 -6.5 -24 -8.5 l0 -571 q33 64 65.5 135.5 q32.5 71.5 61.5 142 q29 70.5 50 130.5 l99 -55 q-12 -19 -42 -10 q-25 -53 -62.5 -120.5 q-37.5 -67.5 -82 -137.5 q-44.5 -70 -89.5 -131 l0 -159 l173 0 l49 66 Z" /><glyph glyph-name="" unicode="&#x4e2a;" d="M508 777 q-44 -75 -115 -154.5 q-71 -79.5 -160.5 -151.5 q-89.5 -72 -190.5 -123 l-8 15 q67 44 131 101 q64 57 120.5 121 q56.5 64 99.5 128.5 q43 64.5 67 123.5 l114 -28 q-4 -17 -40 -20 q72 -105 185.5 -197 q113.5 -92 252.5 -152 l-2 -14 q-22 -6 -36.5 -22 q-14.5 -16 -21.5 -36 q-131 76 -234 181.5 q-103 105.5 -162 227.5 ZM567 549 q-2 -10 -9.5 -17.5 q-7.5 -7.5 -27.5 -9.5 l0 -579 q0 -7 -17.5 -15 q-17.5 -8 -37.5 -8 l-13 0 l0 640 l105 -11 Z" /><glyph glyph-name="" unicode="&#x4e3a;" d="M549 417 q69 -36 105 -75 q36 -39 47.5 -73 q11.5 -34 4.5 -57.5 q-7 -23.5 -25 -29.5 q-18 -6 -40 13 q-3 35 -19 74.5 q-16 39.5 -39 76.5 q-23 37 -46 64 l12 7 ZM183 801 q69 -26 106.5 -57.5 q37.5 -31.5 50.5 -61.5 q13 -30 7.5 -51.5 q-5.5 -21.5 -22.5 -27.5 q-17 -6 -39 10 q-5 30 -23.5 63.5 q-18.5 33.5 -43 64 q-24.5 30.5 -47.5 52.5 l11 8 ZM542 798 q-1 -57 -3.5 -116 q-2.5 -59 -10.5 -119 l300 0 l40 44 l79 -67 q-6 -5 -16 -9 q-10 -4 -27 -6 q-4 -100 -11 -191 q-7 -91 -18 -165 q-11 -74 -26.5 -125 q-15.5 -51 -35.5 -72 q-22 -25 -54.5 -35.5 q-32.5 -10.5 -73.5 -10.5 q0 14 -4.5 26.5 q-4.5 12.5 -17.5 20.5 q-15 10 -53.5 18.5 q-38.5 8.5 -76.5 14.5 l1 18 q29 -3 66.5 -6.5 q37.5 -3.5 70 -6 q32.5 -2.5 45.5 -2.5 q18 0 27 2 q9 2 19 11 q15 14 27.5 60.5 q12.5 46.5 21.5 117 q9 70.5 16 156.5 q7 86 11 178 l-313 0 q-12 -82 -39.5 -164 q-27.5 -82 -80 -160 q-52.5 -78 -137.5 -149.5 q-85 -71.5 -212 -133.5 l-13 18 q109 64 183 134 q74 70 120.5 145 q46.5 75 71.5 153 q25 78 36 157 l-378 0 l-9 29 l391 0 q8 68 9 137 q1 69 1 137 l109 -11 q-1 -10 -8.5 -18 q-7.5 -8 -26.5 -10 Z" /><glyph glyph-name="" unicode="&#x4e3d;" d="M670 453 q52 -49 79.5 -93.5 q27.5 -44.5 35.5 -79.5 q8 -35 2 -57.5 q-6 -22.5 -20.5 -27 q-14.5 -4.5 -31.5 11.5 q-3 37 -16 80.5 q-13 43.5 -30 85.5 q-17 42 -33 74 l14 6 ZM228 453 q52 -49 79.5 -93 q27.5 -44 35.5 -79.5 q8 -35.5 2 -57.5 q-6 -22 -20.5 -27 q-14.5 -5 -31.5 12 q-3 37 -16 80 q-13 43 -30 85 q-17 42 -34 74 l15 6 ZM866 823 q0 0 16 -12.5 q16 -12.5 37.5 -30.5 q21.5 -18 39.5 -35 q-3 -16 -27 -16 l-872 0 l-9 29 l764 0 l51 65 ZM614 -52 q0 -6 -15 -15 q-15 -9 -37 -9 l-11 0 l0 711 l67 -33 l204 0 l34 40 l83 -62 q-5 -5 -17 -11 q-12 -6 -28 -8 l0 -545 q0 -25 -6 -43.5 q-6 -18.5 -25 -29.5 q-19 -11 -59 -16 q-1 14 -4.5 26 q-3.5 12 -11.5 19 q-9 6 -24 11.5 q-15 5.5 -41 9.5 l0 16 q0 0 11.5 -1 q11.5 -1 27 -2 q15.5 -1 30 -2 q14.5 -1 20.5 -1 q12 0 16 4.5 q4 4.5 4 14.5 l0 551 l-218 0 l0 -625 ZM176 -52 q0 -6 -15 -15 q-15 -9 -37 -9 l-11 0 l0 710 l67 -32 l204 0 l33 40 l83 -62 q-5 -5 -17 -11 q-12 -6 -27 -8 l0 -546 q0 -25 -6 -43.5 q-6 -18.5 -25 -29.5 q-19 -11 -59 -16 q-1 14 -4.5 26 q-3.5 12 -11.5 19 q-9 7 -24 12.5 q-15 5.5 -41 8.5 l0 16 q0 0 18.5 -1.5 q18.5 -1.5 40.5 -3 q22 -1.5 30 -1.5 q12 0 16 4.5 q4 4.5 4 14.5 l0 552 l-218 0 l0 -625 Z" /><glyph glyph-name="" unicode="&#x4e48;" d="M524 790 q-4 -8 -14.5 -13 q-10.5 -5 -27.5 -2 q-82 -151 -190 -270 q-108 -119 -225 -193 l-12 12 q64 57 130 138 q66 81 126 178 q60 97 105 201 l108 -51 ZM650 293 q101 -63 160 -123 q59 -60 83.5 -110 q24.5 -50 23.5 -83 q-1 -33 -19 -43 q-18 -10 -45 10 q-7 26 -20.5 55.5 q-13.5 29.5 -30.5 60.5 q-109 -16 -262.5 -37 q-153.5 -21 -338.5 -41 q-10 -15 -24 -20 l-34 91 q0 0 14 3.5 q14 3.5 21 10.5 q40 36 85 86 q45 50 90.5 108.5 q45.5 58.5 87.5 118 q42 59.5 76 115 q34 55.5 55 99.5 l101 -59 q-4 -7 -14.5 -12 q-10.5 -5 -26.5 -1 q-32 -50 -79.5 -111 q-47.5 -61 -104.5 -125.5 q-57 -64.5 -117.5 -125 q-60.5 -60.5 -118.5 -110.5 q63 3 153 7.5 q90 4.5 198.5 11 q108.5 6.5 225.5 13.5 q-34 55 -74.5 108.5 q-40.5 53.5 -77.5 94.5 l13 8 Z" /><glyph glyph-name="" unicode="&#x4e4b;" d="M362 836 q71 -26 110 -59 q39 -33 53 -64.5 q14 -31.5 9 -54.5 q-5 -23 -22.5 -30.5 q-17.5 -7.5 -39.5 8.5 q-5 33 -24.5 68.5 q-19.5 35.5 -45 68 q-25.5 32.5 -51.5 55.5 l11 8 ZM217 150 l5 0 q74 39 148 87.5 q74 48.5 143 103.5 q69 55 128 113 q59 58 102 115 l-647 0 l-9 30 l666 0 l49 42 l73 -69 q-7 -7 -16.5 -9 q-9.5 -2 -29.5 -2 q-64 -80 -154.5 -158 q-90.5 -78 -199 -145.5 q-108.5 -67.5 -227.5 -118.5 l4 -3 q45 -47 99.5 -71.5 q54.5 -24.5 124.5 -33 q70 -8.5 163 -8.5 q84 0 158 0.5 q74 0.5 161 4.5 l0 -14 q-23 -4 -36.5 -19.5 q-13.5 -15.5 -16.5 -38.5 q-68 0 -138 0 q-70 0 -151 0 q-95 0 -162 13.5 q-67 13.5 -118 46.5 q-51 33 -98 93 q-10 11 -17.5 10 q-7.5 -1 -15.5 -11 q-10 -15 -29.5 -41 q-19.5 -26 -40 -54.5 q-20.5 -28.5 -36.5 -52.5 q6 -14 -6 -23 l-60 77 q23 17 50.5 39.5 q27.5 22.5 55 45 q27.5 22.5 48.5 37 q21 14.5 30 14.5 Z" /><glyph glyph-name="" unicode="&#x4e5f;" d="M224 759 l101 -12 q-1 -10 -10 -17.5 q-9 -7.5 -26 -10.5 l0 -237 l201 68 l0 286 l102 -10 q-2 -10 -9.5 -18 q-7.5 -8 -26.5 -11 l0 -224 l220 75 l6 2 l35 38 l73 -60 q-11 -12 -39 -15 q-4 -185 -18.5 -280.5 q-14.5 -95.5 -43.5 -123.5 q-18 -17 -42 -24 q-24 -7 -50 -7 q0 14 -3 25 q-3 11 -11 17 q-9 8 -29 13.5 q-20 5.5 -42 8.5 l0 18 q16 -1 36 -3 q20 -2 38.5 -3 q18.5 -1 27.5 -1 q21 0 33 9 q17 19 28 108 q11 89 15 253 l-234 -80 l0 -372 q0 -7 -17 -15 q-17 -8 -37 -8 l-12 0 l0 372 l-201 -68 l0 -388 q0 -20 8 -32 q8 -12 30.5 -17 q22.5 -5 66.5 -5 l219 0 q77 0 129.5 1 q52.5 1 74.5 3 q17 2 25 7 q8 5 14 13 q8 17 19 57.5 q11 40.5 25 108.5 l13 0 l3 -172 q23 -7 31.5 -13.5 q8.5 -6.5 8.5 -17.5 q0 -16 -13.5 -25.5 q-13.5 -9.5 -50.5 -14.5 q-37 -5 -105 -7 q-68 -2 -177 -2 l-214 0 q-63 0 -101 8 q-38 8 -54.5 30.5 q-16.5 22.5 -16.5 64.5 l0 379 l-175 -60 l-18 24 l193 66 l0 299 Z" /><glyph glyph-name="" unicode="&#x4e70;" d="M157 501 q86 -16 138.5 -41 q52.5 -25 77 -51.5 q24.5 -26.5 27 -48.5 q2.5 -22 -11.5 -31.5 q-14 -9.5 -37 -0.5 q-19 26 -54 56.5 q-35 30.5 -75 59 q-40 28.5 -74 46.5 l9 11 ZM237 660 q82 -15 131 -38.5 q49 -23.5 71.5 -48.5 q22.5 -25 24 -45 q1.5 -20 -12 -29.5 q-13.5 -9.5 -36.5 -1.5 q-18 24 -50.5 52 q-32.5 28 -69 55 q-36.5 27 -67.5 46 l9 10 ZM870 354 q0 0 16 -12.5 q16 -12.5 38 -30.5 q22 -18 39 -35 q-4 -16 -26 -16 l-359 0 q-5 -14 -10.5 -27.5 q-5.5 -13.5 -12.5 -26.5 q115 -34 191 -71 q76 -37 119.5 -72 q43.5 -35 61.5 -64.5 q18 -29.5 16.5 -50 q-1.5 -20.5 -16 -26.5 q-14.5 -6 -35.5 5 q-23 36 -71.5 81 q-48.5 45 -118 92.5 q-69.5 47.5 -156.5 88.5 q-33 -59 -92.5 -108.5 q-59.5 -49.5 -154 -89.5 q-94.5 -40 -233.5 -72 l-8 19 q141 39 231.5 86.5 q90.5 47.5 142.5 106.5 q52 59 77 129 l-448 0 l-8 30 l465 0 q23 82 25 180 q2 98 2 215 l105 -12 q-2 -10 -9.5 -16.5 q-7.5 -6.5 -25.5 -8.5 q-1 -103 -4.5 -192.5 q-3.5 -89.5 -23.5 -165.5 l231 0 l52 64 ZM812 749 l42 41 l74 -70 q-5 -5 -14 -6.5 q-9 -1.5 -25 -2.5 q-14 -16 -34.5 -39 q-20.5 -23 -42 -45.5 q-21.5 -22.5 -40.5 -39.5 l-16 0 q13 27 28 64 q15 37 28 68 l-684 0 l-9 30 l693 0 Z" /><glyph glyph-name="" unicode="&#x4e86;&#xf9ba;" d="M110 758 l674 0 l48 45 l80 -74 q-11 -9 -45 -10 q-38 -27 -88.5 -59.5 q-50.5 -32.5 -105.5 -64 q-55 -31.5 -110 -57.5 l6 -1 q-3 -22 -35 -26 l0 -488 q0 -27 -8 -47.5 q-8 -20.5 -34.5 -33.5 q-26.5 -13 -81.5 -19 q-3 16 -9 28.5 q-6 12.5 -20 20.5 q-15 9 -42 15.5 q-27 6.5 -72 10.5 l0 16 q0 0 22 -1.5 q22 -1.5 53 -3.5 q31 -2 58.5 -3.5 q27.5 -1.5 37.5 -1.5 q17 0 23 5.5 q6 5.5 6 18.5 l0 521 l69 -8 q41 27 83 59.5 q42 32.5 80 66 q38 33.5 67 61.5 l-647 0 l-9 30 Z" /><glyph glyph-name="" unicode="&#x4e8b;" d="M183 626 l0 31 l71 -31 l211 0 l0 79 l-412 0 l-9 30 l421 0 l0 103 l102 -11 q-2 -10 -10.5 -17.5 q-8.5 -7.5 -26.5 -9.5 l0 -65 l282 0 l51 62 q0 0 16 -12 q16 -12 37.5 -29.5 q21.5 -17.5 39.5 -34.5 q-3 -16 -27 -16 l-399 0 l0 -79 l208 0 l36 39 l81 -60 q-12 -14 -41 -20 l0 -132 q-1 -4 -20 -12 q-19 -8 -36 -8 l-10 0 l0 35 l-218 0 l0 -93 l212 0 l35 39 l80 -60 q-12 -14 -42 -20 l0 -81 l24 0 l45 60 q0 0 14.5 -12 q14.5 -12 34 -28.5 q19.5 -16.5 34.5 -32.5 q-3 -15 -26 -15 l-126 0 l0 -155 q-1 -5 -19.5 -14 q-18.5 -9 -35.5 -9 l-9 0 l0 55 l-221 0 l0 -84 q0 -26 -7.5 -46 q-7.5 -20 -31.5 -33 q-24 -13 -76 -18 q-3 14 -8.5 26 q-5.5 12 -17.5 20 q-13 8 -37 14 q-24 6 -64 10 l0 16 q0 0 19.5 -1.5 q19.5 -1.5 46 -3 q26.5 -1.5 50 -3 q23.5 -1.5 32.5 -1.5 q17 0 23 5.5 q6 5.5 6 18.5 l0 80 l-302 0 l-9 29 l311 0 l0 94 l-414 0 l-9 28 l423 0 l0 93 l-297 0 l-8 29 l305 0 l0 93 l-216 0 l0 -32 q0 -4 -18 -12 q-18 -8 -38 -8 l-10 0 l0 210 ZM530 225 l0 -94 l221 0 l0 94 l-221 0 ZM530 253 l221 0 l0 93 l-221 0 l0 -93 ZM465 597 l-216 0 l0 -100 l216 0 l0 100 ZM530 597 l0 -100 l218 0 l0 100 l-218 0 Z" /><glyph glyph-name="" unicode="&#x4e9b;" d="M191 229 l511 0 l48 60 q0 0 15 -12 q15 -12 35.5 -29 q20.5 -17 36.5 -32 q-1 -16 -25 -16 l-613 0 l-8 29 ZM64 -19 l736 0 l50 63 q0 0 15.5 -12.5 q15.5 -12.5 37 -30 q21.5 -17.5 39.5 -32.5 q-4 -16 -27 -16 l-842 0 l-9 28 ZM130 719 l93 -10 q-3 -20 -33 -24 l0 -309 l107 18 l0 443 l99 -9 q-1 -11 -9 -18 q-8 -7 -27 -11 l0 -167 l57 0 l43 60 q0 0 13.5 -12 q13.5 -12 31.5 -29 q18 -17 33 -32 q-4 -16 -27 -16 l-151 0 l0 -198 l172 31 l4 -16 q-77 -25 -184 -56 q-107 -31 -253 -70 q-8 -17 -23 -22 l-41 81 l95 13 l0 353 ZM837 729 l83 -58 q-11 -14 -47 -4 q-45 -23 -112.5 -47 q-67.5 -24 -136.5 -40 l0 -165 q0 -13 7.5 -18 q7.5 -5 36.5 -5 l99 0 q34 0 58.5 0.5 q24.5 0.5 34.5 1.5 q15 1 21 12 q5 11 13 46 q8 35 16 75 l13 0 l2 -125 q18 -6 23.5 -12.5 q5.5 -6.5 5.5 -16.5 q0 -15 -15 -24 q-15 -9 -55.5 -13 q-40.5 -4 -119.5 -4 l-107 0 q-59 0 -77.5 15 q-18.5 15 -18.5 54 l0 436 l94 -10 q-2 -22 -31 -26 l0 -197 q41 18 81.5 40 q40.5 22 75 44 q34.5 22 56.5 41 Z" /><glyph glyph-name="" unicode="&#x2f08;&#x4eba;" d="M508 778 q8 -138 32.5 -256 q24.5 -118 74.5 -216 q50 -98 135 -177 q85 -79 215 -139 l-2 -11 q-27 -3 -45.5 -15 q-18.5 -12 -26.5 -41 q-134 75 -214 176.5 q-80 101.5 -120 228 q-40 126.5 -56 275.5 q-7 -91 -28 -182 q-21 -91 -68.5 -179 q-47.5 -88 -131.5 -169 q-84 -81 -218 -150 l-14 17 q119 74 194.5 156.5 q75.5 82.5 117 170.5 q41.5 88 59 180 q17.5 92 21.5 185 q4 93 4 185 l106 -11 q-1 -11 -8.5 -18.5 q-7.5 -7.5 -26.5 -9.5 Z" /><glyph glyph-name="" unicode="&#x4ec0;&#xf9fd;" d="M318 499 l276 0 l0 328 l105 -12 q-1 -11 -8.5 -18.5 q-7.5 -7.5 -27.5 -9.5 l0 -288 l165 0 l49 62 q0 0 15 -12.5 q15 -12.5 36 -29.5 q21 -17 37 -33 q-3 -16 -26 -16 l-276 0 l0 -513 q0 -7 -17.5 -17 q-17.5 -10 -37.5 -10 l-14 0 l0 540 l-268 0 l-8 29 ZM274 838 l107 -35 q-2 -9 -11.5 -15 q-9.5 -6 -27.5 -5 q-22 -56 -46.5 -110 q-24.5 -54 -53.5 -104 l38 -14 q-7 -15 -31 -19 l0 -589 q-1 -4 -17.5 -13.5 q-16.5 -9.5 -36.5 -9.5 l-13 0 l0 550 q-62 -89 -132 -156 l-15 9 q45 61 90 143.5 q45 82.5 83.5 177 q38.5 94.5 65.5 190.5 Z" /><glyph glyph-name="" unicode="&#x4eca;" d="M407 550 q72 -27 111.5 -58 q39.5 -31 54 -60 q14.5 -29 10 -50 q-4.5 -21 -20.5 -27.5 q-16 -6.5 -38 8.5 q-10 29 -31.5 61.5 q-21.5 32.5 -47 63.5 q-25.5 31 -49.5 54 l11 8 ZM519 790 q-36 -62 -89 -126.5 q-53 -64.5 -117.5 -126 q-64.5 -61.5 -136 -115 q-71.5 -53.5 -143.5 -92.5 l-8 15 q65 41 132.5 102 q67.5 61 129.5 131.5 q62 70.5 108.5 141.5 q46.5 71 67.5 132 l116 -30 q-5 -16 -41 -19 q45 -74 112.5 -141.5 q67.5 -67.5 151.5 -125 q84 -57.5 176 -102.5 l-2 -15 q-22 -3 -38 -17.5 q-16 -14.5 -22 -32.5 q-85 50 -162.5 116.5 q-77.5 66.5 -138 144.5 q-60.5 78 -96.5 160 ZM734 308 l42 41 l74 -72 q-14 -10 -50 -12 q-21 -32 -50.5 -75 q-29.5 -43 -63 -90.5 q-33.5 -47.5 -67.5 -94.5 q-34 -47 -64 -86 q-15 -1 -30.5 2.5 q-15.5 3.5 -35.5 16.5 q40 54 83 114.5 q43 60.5 83.5 119 q40.5 58.5 70.5 106.5 l-555 0 l-9 30 l572 0 Z" /><glyph glyph-name="" unicode="&#x4ece;" d="M680 774 q6 -128 21.5 -242 q15.5 -114 47.5 -213 q32 -99 87 -180.5 q55 -81.5 140 -145.5 l-3 -11 q-49 -6 -65 -59 q-75 69 -122.5 163.5 q-47.5 94.5 -74 209 q-26.5 114.5 -38.5 242.5 q-6 -89 -22.5 -173.5 q-16.5 -84.5 -52 -162.5 q-35.5 -78 -96.5 -148 q-61 -70 -157 -130 l-14 17 q87 67 140.5 143.5 q53.5 76.5 82.5 161.5 q29 85 40.5 177 q11.5 92 13.5 189.5 q2 97.5 2 199.5 l104 -10 q-1 -11 -8.5 -18.5 q-7.5 -7.5 -25.5 -9.5 ZM257 809 l103 -11 q-1 -11 -9 -18.5 q-8 -7.5 -27 -9.5 q-1 -75 -4 -159 q-3 -84 -16 -172 q72 -54 111 -105.5 q39 -51.5 53 -93 q14 -41.5 8.5 -69 q-5.5 -27.5 -22.5 -34 q-17 -6.5 -40 12.5 q-5 39 -23 83 q-18 44 -42 88 q-24 44 -50 82 q-14 -84 -43 -167.5 q-29 -83.5 -78.5 -162 q-49.5 -78.5 -125.5 -148.5 l-16 16 q67 77 109.5 162.5 q42.5 85.5 65.5 176 q23 90.5 32.5 181.5 q9.5 91 11.5 179 q2 88 2 169 Z" /><glyph glyph-name="" unicode="&#x4ed6;" d="M818 623 l6 2 l36 38 l75 -61 q-9 -10 -38 -15 q-1 -117 -5.5 -193.5 q-4.5 -76.5 -14 -120 q-9.5 -43.5 -26.5 -61.5 q-16 -16 -39.5 -24.5 q-23.5 -8.5 -49.5 -8.5 q0 15 -3 28 q-3 13 -11 20 q-7 7 -26.5 12.5 q-19.5 5.5 -40.5 9.5 l0 17 q22 -2 52 -4.5 q30 -2.5 43 -2.5 q21 0 29 9 q14 15 20 95 q6 80 8 233 l-165 -57 l0 -411 q0 -7 -17 -15 q-17 -8 -34 -8 l-12 0 l0 412 l-147 -52 l0 -401 q0 -23 14.5 -33 q14.5 -10 63.5 -10 l161 0 q56 0 95 1 q39 1 57 2 q21 3 29 17 q7 13 17 53 q10 40 21 95 l13 0 l3 -154 q21 -7 27.5 -13 q6.5 -6 6.5 -17 q0 -13 -11 -22 q-11 -9 -40 -14 q-29 -5 -82 -7 q-53 -2 -138 -2 l-163 0 q-78 0 -108.5 18 q-30.5 18 -30.5 72 l0 392 l-112 -39 l-19 25 l131 46 l0 272 l100 -11 q-1 -10 -9 -17.5 q-8 -7.5 -26 -10.5 l0 -210 l147 51 l0 278 l100 -11 q-2 -10 -9.5 -18 q-7.5 -8 -27.5 -11 l0 -216 l150 53 ZM255 837 l104 -33 q-3 -8 -12 -14 q-9 -6 -26 -5 q-41 -111 -94 -212 l36 -14 q-5 -15 -29 -18 l0 -597 q-1 -4 -17.5 -13 q-16.5 -9 -35.5 -9 l-12 0 l0 554 q-28 -43 -57.5 -80 q-29.5 -37 -60.5 -69 l-15 10 q42 60 82.5 140.5 q40.5 80.5 76 173 q35.5 92.5 60.5 186.5 Z" /><glyph glyph-name="" unicode="&#x4ee3;" d="M692 801 q64 -12 99.5 -32.5 q35.5 -20.5 48.5 -43.5 q13 -23 9 -41 q-4 -18 -19.5 -25 q-15.5 -7 -36.5 5 q-9 21 -28 45 q-19 24 -41 46 q-22 22 -43 38 l11 8 ZM529 826 l108 -14 q-1 -9 -9 -17 q-8 -8 -27 -11 q-2 -134 15 -262 l208 23 l42 65 q0 0 16.5 -10 q16.5 -10 38.5 -24.5 q22 -14.5 40 -26.5 q-2 -18 -25 -20 l-315 -36 q15 -97 45 -184.5 q30 -87.5 78.5 -157.5 q48.5 -70 118.5 -115 q14 -10 20.5 -9.5 q6.5 0.5 12.5 14.5 q10 18 23 51 q13 33 23 63 l12 -3 l-17 -150 q23 -28 27.5 -42.5 q4.5 -14.5 -2.5 -22.5 q-11 -16 -33.5 -14.5 q-22.5 1.5 -49 14.5 q-26.5 13 -51.5 31 q-116 82 -181 216 q-65 134 -93 302 l-238 -27 l-10 28 l244 27 q-11 74 -16 152 q-5 78 -5 160 ZM273 838 l107 -35 q-3 -9 -12.5 -15 q-9.5 -6 -26.5 -5 q-21 -55 -45.5 -107.5 q-24.5 -52.5 -52.5 -101.5 l46 -17 q-6 -14 -32 -18 l0 -595 q-1 -4 -17 -13 q-16 -9 -36 -9 l-13 0 l0 568 q-66 -99 -142 -172 l-15 9 q45 61 89.5 143.5 q44.5 82.5 83.5 177 q39 94.5 66 190.5 Z" /><glyph glyph-name="" unicode="&#x4ee5;" d="M369 785 q82 -54 127 -106.5 q45 -52.5 62 -96.5 q17 -44 13 -73 q-4 -29 -22 -37 q-18 -8 -42 12 q-9 46 -34 99.5 q-25 53.5 -56.5 104.5 q-31.5 51 -60.5 91 l13 6 ZM276 771 q-3 -23 -38 -29 l-1 -36 l0 -578 q60 34 140 81 q80 47 165 99 l9 -14 q-55 -43 -145 -113 q-90 -70 -198 -149 q-4 -13 -12 -22 q-8 -9 -15 -12 l-45 89 q23 12 29.5 19.5 q6.5 7.5 6.5 22.5 l0 653 l104 -11 ZM870 788 q-2 -11 -11 -19 q-9 -8 -27 -10 q-3 -106 -9.5 -198.5 q-6.5 -92.5 -23.5 -171.5 q-17 -79 -53 -147 q86 -51 134.5 -102.5 q48.5 -51.5 67.5 -96.5 q19 -45 15.5 -76 q-3.5 -31 -22 -40.5 q-18.5 -9.5 -43.5 9.5 q-8 46 -33.5 97 q-25.5 51 -60 100 q-34.5 49 -70.5 88 q-55 -95 -162 -169.5 q-107 -74.5 -291 -133.5 l-11 20 q139 56 229 119 q90 63 142.5 138 q52.5 75 77.5 165 q25 90 32.5 198.5 q7.5 108.5 9.5 240.5 l109 -11 Z" /><glyph glyph-name="" unicode="&#x4eec;" d="M419 820 q59 -27 90 -57 q31 -30 41 -57.5 q10 -27.5 4 -46.5 q-6 -19 -21.5 -24.5 q-15.5 -5.5 -35.5 9.5 q-5 27 -20 58 q-15 31 -33.5 60.5 q-18.5 29.5 -36.5 50.5 l12 7 ZM473 655 q-1 -10 -9 -17.5 q-8 -7.5 -28 -9.5 l0 -682 q0 -7 -16 -15.5 q-16 -8.5 -35 -8.5 l-12 0 l0 745 l100 -12 ZM265 556 q-7 -15 -31 -19 l0 -590 q-1 -4 -17.5 -13.5 q-16.5 -9.5 -36.5 -9.5 l-13 0 l0 551 q-27 -44 -56 -83.5 q-29 -39.5 -61 -72.5 l-15 9 q40 63 78.5 145.5 q38.5 82.5 72 176 q33.5 93.5 55.5 188.5 l107 -32 q-3 -9 -12 -15 q-9 -6 -26 -5 q-19 -55 -41.5 -109.5 q-22.5 -54.5 -47.5 -104.5 l44 -16 ZM841 732 l33 42 l84 -63 q-12 -15 -44 -20 l0 -672 q0 -26 -7 -46 q-7 -20 -30 -32.5 q-23 -12.5 -72 -17.5 q-2 15 -7.5 27.5 q-5.5 12.5 -16.5 20.5 q-13 8 -35 14.5 q-22 6.5 -60 11.5 l0 15 q0 0 18 -1 q18 -1 43 -3 q25 -2 47 -3 q22 -1 30 -1 q16 0 21.5 5 q5.5 5 5.5 18 l0 676 l-258 0 l-9 29 l257 0 Z" /><glyph glyph-name="" unicode="&#x4efb;" d="M814 815 l81 -71 q-14 -14 -53 0 q-41 -12 -92 -24.5 q-51 -12.5 -107 -23.5 l0 -302 l186 0 l49 61 q0 0 15 -12 q15 -12 35.5 -29.5 q20.5 -17.5 36.5 -33.5 q-1 -8 -8.5 -11.5 q-7.5 -3.5 -17.5 -3.5 l-296 0 l0 -371 l161 0 l49 61 q0 0 15 -12 q15 -12 36 -29.5 q21 -17.5 38 -33.5 q-4 -15 -27 -15 l-597 0 l-8 29 l266 0 l0 371 l-280 0 l-8 29 l288 0 l0 288 q-124 -23 -250 -35 l-4 18 q65 12 134 29.5 q69 17.5 135.5 38 q66.5 20.5 124 42 q57.5 21.5 98.5 40.5 ZM258 838 l103 -33 q-3 -8 -12 -14 q-9 -6 -26 -5 q-20 -55 -44 -108.5 q-24 -53.5 -52 -103.5 l40 -15 q-5 -15 -29 -18 l0 -597 q-1 -4 -18 -13 q-17 -9 -36 -9 l-12 0 l0 559 q-59 -90 -125 -154 l-14 10 q43 60 85.5 140.5 q42.5 80.5 78.5 173 q36 92.5 61 187.5 Z" /><glyph glyph-name="" unicode="&#x4f1a;" d="M519 785 q-36 -52 -88 -105.5 q-52 -53.5 -115.5 -104.5 q-63.5 -51 -133 -94.5 q-69.5 -43.5 -138.5 -74.5 l-8 14 q63 34 129 84.5 q66 50.5 126.5 109 q60.5 58.5 106 117.5 q45.5 59 66.5 111 l114 -26 q-5 -16 -40 -19 q45 -60 112.5 -114 q67.5 -54 149.5 -99 q82 -45 169 -79 l-2 -14 q-21 -4 -37 -18 q-16 -14 -22 -32 q-81 40 -156 93.5 q-75 53.5 -135.5 117.5 q-60.5 64 -97.5 133 ZM659 556 q0 0 15 -11.5 q15 -11.5 36 -28.5 q21 -17 38 -33 q-3 -16 -25 -16 l-470 0 l-8 29 l366 0 l48 60 ZM819 382 q0 0 16 -12 q16 -12 38 -29.5 q22 -17.5 40 -34.5 q-4 -16 -28 -16 l-794 0 l-9 29 l686 0 l51 63 ZM613 196 q95 -42 150.5 -85.5 q55.5 -43.5 79.5 -81.5 q24 -38 24 -64.5 q0 -26.5 -16.5 -35.5 q-16.5 -9 -41.5 6 q-8 19 -21.5 40 q-13.5 21 -30.5 43 q-100 -14 -241.5 -32.5 q-141.5 -18.5 -311.5 -35.5 q-9 -14 -20 -17 l-34 87 q0 0 10.5 2.5 q10.5 2.5 17.5 5.5 q35 20 74 52.5 q39 32.5 76 70 q37 37.5 67 73.5 q30 36 48 63 l95 -55 q-4 -7 -14 -11.5 q-10 -4.5 -26 -0.5 q-30 -30 -75 -66.5 q-45 -36.5 -96.5 -72.5 q-51.5 -36 -101.5 -65 q58 2 139.5 5 q81.5 3 177.5 8 q96 5 199 10 q-32 41 -69.5 79.5 q-37.5 38.5 -69.5 68.5 l11 9 Z" /><glyph glyph-name="" unicode="&#x4f38;" d="M596 435 l-182 0 l0 -182 l182 0 l0 182 ZM661 435 l0 -182 l188 0 l0 182 l-188 0 ZM596 464 l0 177 l-182 0 l0 -177 l182 0 ZM661 464 l188 0 l0 177 l-188 0 l0 -177 ZM350 670 l0 32 l70 -32 l176 0 l0 166 l101 -11 q-2 -10 -9 -17.5 q-7 -7.5 -27 -10.5 l0 -127 l178 0 l37 41 l81 -62 q-5 -6 -16.5 -12 q-11.5 -6 -26.5 -9 l0 -446 q-1 -5 -20 -14 q-19 -9 -36 -9 l-9 0 l0 65 l-188 0 l0 -275 q0 -7 -16.5 -17 q-16.5 -10 -35.5 -10 l-13 0 l0 302 l-182 0 l0 -52 q0 -5 -16.5 -13.5 q-16.5 -8.5 -37.5 -8.5 l-10 0 l0 520 ZM258 838 l104 -33 q-3 -8 -12.5 -14 q-9.5 -6 -26.5 -5 q-39 -107 -92 -206 l38 -14 q-4 -15 -29 -19 l0 -603 q-1 -4 -18 -13 q-17 -9 -36 -9 l-12 0 l0 558 q-59 -93 -126 -161 l-14 11 q43 61 84.5 143 q41.5 82 78 175.5 q36.5 93.5 61.5 189.5 Z" /><glyph glyph-name="" unicode="&#x4f46;" d="M291 8 l541 0 l48 62 q0 0 15.5 -12.5 q15.5 -12.5 36.5 -30 q21 -17.5 37 -33.5 q-3 -16 -26 -16 l-644 0 l-8 30 ZM791 716 l-329 0 l0 -240 l329 0 l0 240 ZM397 745 l0 32 l70 -32 l314 0 l37 41 l81 -63 q-10 -13 -43 -20 l0 -560 q-1 -5 -20 -14.5 q-19 -9.5 -36 -9.5 l-9 0 l0 62 l-329 0 l0 -60 q0 -6 -15.5 -15 q-15.5 -9 -38.5 -9 l-11 0 l0 648 ZM462 210 l329 0 l0 237 l-329 0 l0 -237 ZM256 838 l104 -32 q-3 -9 -12.5 -15 q-9.5 -6 -26.5 -5 q-41 -113 -94 -214 l41 -15 q-5 -15 -30 -18 l0 -594 q-1 -4 -17.5 -13 q-16.5 -9 -36.5 -9 l-12 0 l0 555 q-57 -91 -123 -159 l-14 11 q42 61 83 143 q41 82 77 176 q36 94 61 189 Z" /><glyph glyph-name="" unicode="&#x4f4e;" d="M599 105 q57 -21 87 -47.5 q30 -26.5 39 -51.5 q9 -25 3.5 -43 q-5.5 -18 -21 -23.5 q-15.5 -5.5 -33.5 8.5 q-6 38 -32 80.5 q-26 42.5 -54 69.5 l11 7 ZM869 510 q0 0 15 -12 q15 -12 35.5 -29 q20.5 -17 36.5 -33 q-4 -16 -26 -16 l-212 0 q13 -78 34.5 -150.5 q21.5 -72.5 53 -131 q31.5 -58.5 74.5 -96.5 q11 -10 17 -9 q6 1 12 15 q8 16 18.5 45.5 q10.5 29.5 17.5 57.5 l13 -3 l-15 -146 q18 -28 21 -43 q3 -15 -6 -24 q-13 -13 -33.5 -10 q-20.5 3 -42.5 17 q-22 14 -41 33 q-79 77 -123 193 q-44 116 -64 252 l-214 0 l0 -351 q43 22 94 50 q51 28 104 58 l8 -13 q-37 -31 -101 -83 q-64 -52 -139 -110 q-5 -12 -12.5 -19.5 q-7.5 -7.5 -13.5 -10.5 l-45 85 q26 14 33 21.5 q7 7.5 7 22.5 l0 672 l99 -32 q65 15 131 34.5 q66 19.5 124 40 q58 20.5 97 38.5 l77 -69 q-15 -15 -51 1 q-65 -18 -154 -35 q-1 -64 2 -133 q3 -69 13 -137 l109 0 l47 60 ZM440 623 l0 -173 l210 0 q-16 124 -18 258 q-47 -8 -96 -15 q-49 -7 -96 -12 l0 -58 ZM263 558 q-5 -15 -31 -18 l0 -597 q0 -4 -16 -12.5 q-16 -8.5 -35 -8.5 l-12 0 l0 559 q-28 -43 -59.5 -81 q-31.5 -38 -63.5 -70 l-15 9 q43 60 84.5 140 q41.5 80 77.5 172 q36 92 61 186 l104 -33 q-4 -8 -13 -14 q-9 -6 -26 -5 q-40 -111 -95 -212 l39 -15 Z" /><glyph glyph-name="" unicode="&#x4f55;" d="M328 727 l505 0 l49 63 q0 0 15 -12.5 q15 -12.5 36 -30 q21 -17.5 38 -34.5 q-4 -16 -26 -16 l-79 0 l0 -677 q0 -25 -7.5 -46 q-7.5 -21 -32 -34.5 q-24.5 -13.5 -75.5 -17.5 q-2 14 -8 26 q-6 12 -17 20 q-14 8 -38 14 q-24 6 -65 10 l0 15 q0 0 19 -1 q19 -1 46 -3 q27 -2 51 -3 q24 -1 33 -1 q17 0 23 5.5 q6 5.5 6 17.5 l0 675 l-465 0 l-8 30 ZM366 540 l0 30 l67 -30 l155 0 l36 41 l83 -64 q-11 -13 -45 -21 l0 -326 q-1 -3 -20 -9.5 q-19 -6.5 -33 -6.5 l-10 0 l0 70 l-171 0 l0 -67 q0 -5 -16 -13.5 q-16 -8.5 -36 -8.5 l-10 0 l0 405 ZM428 253 l171 0 l0 257 l-171 0 l0 -257 ZM257 838 l103 -33 q-4 -8 -13 -14 q-9 -6 -26 -5 q-21 -58 -46 -112.5 q-25 -54.5 -54 -105.5 l39 -14 q-4 -13 -30 -19 l0 -591 q-1 -4 -17.5 -13 q-16.5 -9 -36.5 -9 l-12 0 l0 554 q-59 -86 -125 -149 l-13 10 q44 60 87 140.5 q43 80.5 80.5 173 q37.5 92.5 63.5 187.5 Z" /><glyph glyph-name="" unicode="&#x4f5c;" d="M521 837 l101 -36 q-7 -20 -38 -19 q-16 -37 -34 -73.5 q-18 -36.5 -38 -71.5 l317 0 l50 61 q0 0 15 -12 q15 -12 35.5 -29 q20.5 -17 36.5 -33 q-4 -16 -26 -16 l-300 0 l0 -179 l154 0 l45 58 q0 0 14.5 -11.5 q14.5 -11.5 34 -28 q19.5 -16.5 34.5 -31.5 q-4 -16 -26 -16 l-256 0 l0 -185 l166 0 l47 60 q0 0 14.5 -12 q14.5 -12 35.5 -29 q21 -17 38 -33 q-4 -16 -27 -16 l-274 0 l0 -242 q0 -4 -15 -12.5 q-15 -8.5 -41 -8.5 l-11 0 l0 686 l-78 0 q-41 -68 -88 -126 q-47 -58 -97 -102 l-14 11 q42 53 84 124 q42 71 78.5 153.5 q36.5 82.5 62.5 168.5 ZM283 838 l102 -35 q-4 -9 -13 -14.5 q-9 -5.5 -26 -4.5 q-47 -119 -110 -223 l43 -16 q-5 -15 -30 -18 l0 -584 q0 -4 -17 -12.5 q-17 -8.5 -36 -8.5 l-12 0 l0 559 q-32 -46 -67 -85.5 q-35 -39.5 -71 -72.5 l-14 10 q47 60 94 140.5 q47 80.5 87.5 174 q40.5 93.5 69.5 190.5 Z" /><glyph glyph-name="" unicode="&#x4f60;" d="M756 444 q78 -65 122 -123.5 q44 -58.5 61.5 -105 q17.5 -46.5 14 -76 q-3.5 -29.5 -19.5 -37.5 q-16 -8 -39 11 q-9 50 -35 108 q-26 58 -58 115 q-32 57 -61 101 l15 7 ZM458 450 l99 -30 q-3 -9 -12 -15 q-9 -6 -26 -5 q-36 -99 -89.5 -182.5 q-53.5 -83.5 -116.5 -138.5 l-15 11 q50 64 92.5 159 q42.5 95 67.5 201 ZM609 605 l101 -11 q-2 -10 -10 -17 q-8 -7 -26 -10 l0 -547 q0 -26 -7 -46 q-7 -20 -30 -33 q-23 -13 -71 -18 q-2 16 -7 28.5 q-5 12.5 -16 20.5 q-12 8 -33.5 14.5 q-21.5 6.5 -57.5 10.5 l0 15 q0 0 17 -1 q17 -1 40.5 -2.5 q23.5 -1.5 45 -2.5 q21.5 -1 29.5 -1 q14 0 19.5 5 q5.5 5 5.5 16 l0 579 ZM479 835 l102 -33 q-3 -9 -12 -15 q-9 -6 -26 -5 q-25 -70 -57 -135 l359 0 l42 43 l75 -73 q-6 -5 -15 -6.5 q-9 -1.5 -24 -3.5 q-16 -32 -44 -72.5 q-28 -40.5 -54 -67.5 l-13 7 q10 29 21 70 q11 41 18 75 l-380 0 q-34 -65 -75 -120 q-41 -55 -87 -96 l-14 10 q37 50 72 117 q35 67 64 145 q29 78 48 160 ZM259 838 l103 -33 q-3 -8 -12.5 -14 q-9.5 -6 -26.5 -5 q-20 -55 -44 -109 q-24 -54 -52 -104 l41 -15 q-5 -15 -29 -18 l0 -595 q-1 -4 -18 -13 q-17 -9 -36 -9 l-12 0 l0 559 q-29 -44 -60.5 -83.5 q-31.5 -39.5 -64.5 -71.5 l-14 10 q43 60 85 140.5 q42 80.5 78.5 173 q36.5 92.5 61.5 187.5 Z" /><glyph glyph-name="" unicode="&#x4fbf;&#xf965;" d="M415 230 q43 -67 116 -114 q24 37 36.5 79.5 q12.5 42.5 17.5 92.5 l-173 0 l0 -37 q0 -5 -16.5 -13 q-16.5 -8 -36.5 -8 l-11 0 l0 414 l70 -31 l170 0 l0 112 l-254 0 l-8 29 l502 0 l48 61 q0 0 15 -12 q15 -12 35.5 -29 q20.5 -17 37.5 -33 q-3 -16 -26 -16 l-284 0 l0 -112 l173 0 l36 40 l82 -62 q-5 -6 -16.5 -12 q-11.5 -6 -26.5 -9 l0 -315 q0 -4 -19.5 -12.5 q-19.5 -8.5 -35.5 -8.5 l-10 0 l0 54 l-187 0 q-5 -58 -21.5 -108 q-16.5 -50 -50.5 -92 q80 -40 180 -62 q100 -22 215 -27 l0 -11 q-22 -5 -38 -22 q-16 -17 -21 -43 q-116 14 -208.5 44.5 q-92.5 30.5 -163.5 82.5 q-44 -40 -112.5 -72 q-68.5 -32 -167.5 -55 l-10 15 q92 31 153 66 q61 35 99 77 q-64 60 -104 139 l15 10 ZM837 316 l0 121 l-183 0 l0 -65 l-1 -56 l184 0 ZM412 316 l175 0 l1 54 l0 67 l-176 0 l0 -121 ZM837 466 l0 117 l-183 0 l0 -117 l183 0 ZM412 466 l176 0 l0 117 l-176 0 l0 -117 ZM257 838 l104 -33 q-3 -8 -12.5 -14 q-9.5 -6 -26.5 -5 q-20 -55 -44 -108.5 q-24 -53.5 -51 -103.5 l40 -15 q-5 -15 -29 -18 l0 -597 q-1 -4 -18 -13 q-17 -9 -36 -9 l-12 0 l0 561 q-29 -45 -60.5 -84.5 q-31.5 -39.5 -64.5 -71.5 l-14 10 q43 60 85 140.5 q42 80.5 78 173 q36 92.5 61 187.5 Z" /><glyph glyph-name="" unicode="&#x5149;" d="M147 778 q75 -43 116 -87 q41 -44 55.5 -82 q14.5 -38 9.5 -64 q-5 -26 -22.5 -33 q-17.5 -7 -40.5 11 q-6 40 -27.5 85 q-21.5 45 -49 87.5 q-27.5 42.5 -54.5 74.5 l13 8 ZM791 784 l101 -48 q-4 -8 -14 -12.5 q-10 -4.5 -26 -1.5 q-45 -62 -98.5 -120.5 q-53.5 -58.5 -103.5 -99.5 l-14 11 q24 32 51.5 76.5 q27.5 44.5 54.5 95 q27 50.5 49 99.5 ZM464 838 l103 -11 q-1 -10 -9.5 -17.5 q-8.5 -7.5 -27.5 -10.5 l0 -346 l284 0 l51 63 q0 0 15.5 -12 q15.5 -12 37.5 -29.5 q22 -17.5 39 -34.5 q-3 -16 -26 -16 l-302 0 l0 -388 q0 -14 7.5 -19.5 q7.5 -5.5 36.5 -5.5 l100 0 q35 0 60.5 1 q25.5 1 35.5 2 q16 1 20 16 q7 15 15.5 63 q8.5 48 18.5 104 l13 0 l4 -174 q17 -6 21.5 -13 q4.5 -7 4.5 -17 q0 -15 -14.5 -24.5 q-14.5 -9.5 -56 -14 q-41.5 -4.5 -123.5 -4.5 l-110 0 q-61 0 -80.5 15 q-19.5 15 -19.5 55 l0 404 l-138 0 q-8 -99 -30.5 -177 q-22.5 -78 -65.5 -139 q-43 -61 -114 -107 q-71 -46 -176 -79 l-5 15 q89 40 148 88 q59 48 94 106.5 q35 58.5 52 131 q17 72.5 21 161.5 l-299 0 l-8 29 l423 0 l0 385 Z" /><glyph glyph-name="" unicode="&#x5173;" d="M243 832 q75 -25 116.5 -57 q41.5 -32 57 -63 q15.5 -31 11 -53.5 q-4.5 -22.5 -21.5 -30 q-17 -7.5 -40 8.5 q-8 31 -30 65.5 q-22 34.5 -50 66.5 q-28 32 -54 55 l11 8 ZM856 416 q0 0 16 -12.5 q16 -12.5 38 -30.5 q22 -18 40 -34 q-4 -16 -27 -16 l-386 0 q56 -125 166.5 -209 q110.5 -84 260.5 -114 l-2 -10 q-21 -5 -37.5 -22 q-16.5 -17 -23.5 -43 q-150 47 -243 145 q-93 98 -142 250 q-11 -58 -39.5 -114 q-28.5 -56 -82.5 -107.5 q-54 -51.5 -140.5 -95.5 q-86.5 -44 -214.5 -79 l-7 17 q144 54 230 115 q86 61 129 128 q43 67 57 139 l-390 0 l-9 30 l404 0 q2 20 3.5 39.5 q1.5 19.5 1.5 38.5 l0 145 l-337 0 l-8 29 l448 0 q21 34 41.5 74 q20.5 40 39.5 81.5 q19 41.5 32 76.5 l109 -33 q-3 -8 -12 -13.5 q-9 -5.5 -26 -4.5 q-28 -41 -71 -90.5 q-43 -49.5 -87 -90.5 l160 0 l50 61 q0 0 15.5 -12 q15.5 -12 37 -29 q21.5 -17 38.5 -33 q-3 -16 -27 -16 l-335 0 l0 -143 q0 -20 -1 -40 q-1 -20 -4 -40 l284 0 l51 63 Z" /><glyph glyph-name="" unicode="&#x5176;" d="M600 129 q110 -23 177.5 -50 q67.5 -27 102 -53.5 q34.5 -26.5 43 -49 q8.5 -22.5 0 -36.5 q-8.5 -14 -26 -15.5 q-17.5 -1.5 -35.5 13.5 q-35 42 -102 88.5 q-67 46.5 -165 86.5 l6 16 ZM353 144 l95 -50 q-9 -16 -47 -10 q-38 -29 -93 -60 q-55 -31 -119 -58 q-64 -27 -129 -45 l-8 14 q58 25 116.5 61 q58.5 36 107 75.5 q48.5 39.5 77.5 72.5 ZM660 836 l102 -10 q-1 -10 -9 -17.5 q-8 -7.5 -27 -10.5 l0 -112 l77 0 l48 59 q0 0 15 -12 q15 -12 36 -28.5 q21 -16.5 37 -32.5 q-3 -16 -26 -16 l-187 0 l0 -455 l92 0 l50 62 q0 0 16 -12.5 q16 -12.5 38 -30 q22 -17.5 39 -33.5 q-4 -16 -27 -16 l-883 0 l-9 30 l236 0 l0 455 l-204 0 l-9 30 l213 0 l0 150 l101 -10 q-1 -10 -9 -17.5 q-8 -7.5 -27 -10.5 l0 -112 l317 0 l0 150 ZM343 201 l317 0 l0 134 l-317 0 l0 -134 ZM343 656 l0 -127 l317 0 l0 127 l-317 0 ZM343 500 l0 -135 l317 0 l0 135 l-317 0 Z" /><glyph glyph-name="" unicode="&#x51b5;" d="M93 258 q9 0 13.5 3 q4.5 3 12.5 17 q6 10 11.5 20 q5.5 10 17 31.5 q11.5 21.5 33 64 q21.5 42.5 59.5 116 q38 73.5 97 189.5 l19 -6 q-15 -36 -35 -82 q-20 -46 -41 -94.5 q-21 -48.5 -40 -92.5 q-19 -44 -32.5 -76.5 q-13.5 -32.5 -18.5 -46.5 q-7 -22 -12.5 -44 q-5.5 -22 -4.5 -40 q0 -21 6.5 -44 q6.5 -23 12.5 -52 q6 -29 4 -69 q-1 -31 -14.5 -49 q-13.5 -18 -38.5 -18 q-13 0 -20.5 13.5 q-7.5 13.5 -9.5 35.5 q10 77 6 127.5 q-4 50.5 -21 60.5 q-10 7 -22 10 q-12 3 -28 4 l0 22 q0 0 9 0 q9 0 20.5 0 q11.5 0 16.5 0 ZM77 794 q70 -18 108 -44.5 q38 -26.5 51.5 -54 q13.5 -27.5 9 -48 q-4.5 -20.5 -21.5 -27.5 q-17 -7 -39 7 q-7 28 -26.5 57.5 q-19.5 29.5 -43.5 56 q-24 26.5 -48 45.5 l10 8 ZM383 761 l0 32 l74 -32 l363 0 l33 39 l73 -56 q-5 -6 -13.5 -10 q-8.5 -4 -23.5 -6 l0 -348 q0 -3 -16.5 -10.5 q-16.5 -7.5 -39.5 -7.5 l-10 0 l0 63 l-90 0 l0 -395 q0 -10 5 -14.5 q5 -4.5 25 -4.5 l59 0 q21 0 36 0 q15 0 22 1 q7 1 10 3.5 q3 2.5 5 10.5 q4 9 8.5 33 q4.5 24 10.5 56.5 q6 32.5 11 64.5 l13 0 l3 -160 q16 -6 20 -12.5 q4 -6.5 4 -16.5 q0 -13 -11.5 -22.5 q-11.5 -9.5 -42.5 -14 q-31 -4.5 -90 -4.5 l-73 0 q-49 0 -63.5 14.5 q-14.5 14.5 -14.5 49.5 l0 411 l-87 0 q-6 -97 -25 -174 q-19 -77 -57 -138 q-38 -61 -102 -108 q-64 -47 -161 -83 l-8 15 q83 42 136.5 91 q53.5 49 84.5 108 q31 59 45.5 130.5 q14.5 71.5 18.5 158.5 l-68 0 l0 -52 q0 -4 -14.5 -12 q-14.5 -8 -39.5 -8 l-10 0 l0 408 ZM447 454 l376 0 l0 278 l-376 0 l0 -278 Z" /><glyph glyph-name="" unicode="&#x5206;" d="M454 798 q-4 -7 -12.5 -11 q-8.5 -4 -27.5 -2 q-32 -72 -84.5 -150 q-52.5 -78 -124.5 -148 q-72 -70 -163 -120 l-11 12 q78 58 141 135 q63 77 108.5 161 q45.5 84 70.5 162 l103 -39 ZM676 822 q-5 -10 -13 -21 q-8 -11 -19 -24 q28 -71 75 -137 q47 -66 111.5 -118.5 q64.5 -52.5 144.5 -83.5 l-2 -11 q-20 -4 -37.5 -17.5 q-17.5 -13.5 -27.5 -33.5 q-122 71 -196.5 183.5 q-74.5 112.5 -112.5 278.5 l10 6 l67 -22 ZM474 436 l222 0 l40 41 l76 -64 q-5 -5 -14.5 -9 q-9.5 -4 -26.5 -5 q-7 -173 -26 -289 q-19 -116 -53 -149 q-20 -19 -49 -28 q-29 -9 -64 -9 q0 14 -4 27 q-4 13 -16 20 q-12 9 -43 17 q-31 8 -63 12 l1 17 q24 -2 55 -4.5 q31 -2.5 58.5 -4.5 q27.5 -2 38.5 -2 q26 0 39 11 q16 14 27.5 67 q11.5 53 20 136 q8.5 83 13.5 187 l-235 0 q-6 -61 -23 -125 q-17 -64 -56 -127.5 q-39 -63.5 -110.5 -123 q-71.5 -59.5 -185.5 -111.5 l-13 16 q100 56 161 116 q61 60 93.5 121 q32.5 61 45.5 120.5 q13 59.5 16 113.5 l-213 0 l-9 29 l297 0 Z" /><glyph glyph-name="" unicode="&#x5207;" d="M366 593 q0 0 16 -9 q16 -9 38 -22 q22 -13 39 -25 q0 -7 -6 -12.5 q-6 -5.5 -14 -7.5 l-195 -37 l0 -326 q44 25 99.5 57 q55.5 32 112.5 66 l9 -13 q-39 -32 -103.5 -87 q-64.5 -55 -142.5 -114 q-2 -10 -7 -17.5 q-5 -7.5 -10 -11.5 l-63 73 q25 19 32 28 q7 9 7 23 l0 310 l-134 -25 l-12 24 l146 28 l0 332 l99 -11 q-2 -10 -9 -16.5 q-7 -6.5 -24 -8.5 l0 -284 l90 17 l32 69 ZM847 732 l40 45 l79 -67 q-6 -6 -16.5 -10 q-10.5 -4 -27.5 -6 q-6 -313 -23.5 -493.5 q-17.5 -180.5 -55.5 -227.5 q-22 -27 -52.5 -39.5 q-30.5 -12.5 -66.5 -12.5 q0 16 -3 29 q-3 13 -14 22 q-11 8 -38.5 15.5 q-27.5 7.5 -58.5 12.5 l2 19 q22 -2 49 -5 q27 -3 51 -5 q24 -2 35 -2 q16 0 23.5 3 q7.5 3 17.5 13 q21 21 34.5 108.5 q13.5 87.5 22 232.5 q8.5 145 12.5 338 l-204 0 q-7 -153 -25 -277.5 q-18 -124.5 -59 -221.5 q-41 -97 -118 -167.5 q-77 -70.5 -204 -115.5 l-12 18 q110 46 176 119 q66 73 101 170.5 q35 97.5 49.5 217 q14.5 119.5 20.5 257.5 l-192 0 l-9 30 l466 0 Z" /><glyph glyph-name="" unicode="&#x5236;" d="M669 752 l97 -10 q-2 -10 -10 -17.5 q-8 -7.5 -26 -9.5 l0 -567 q0 -7 -16 -15 q-16 -8 -33 -8 l-12 0 l0 627 ZM848 819 l99 -11 q-2 -10 -10.5 -17.5 q-8.5 -7.5 -26.5 -9.5 l0 -764 q0 -26 -6 -46 q-6 -20 -27 -32 q-21 -12 -65 -17 q-1 15 -5.5 27 q-4.5 12 -15.5 21 q-10 8 -28.5 13.5 q-18.5 5.5 -50.5 9.5 l0 16 q0 0 14.5 -1 q14.5 -1 35 -2.5 q20.5 -1.5 39 -2.5 q18.5 -1 25.5 -1 q13 0 17.5 5 q4.5 5 4.5 16 l0 796 ZM95 356 l0 30 l67 -30 l131 0 l0 120 l-253 0 l-8 29 l261 0 l0 135 l-137 0 q-41 -66 -87 -109 l-15 10 q30 49 56.5 119.5 q26.5 70.5 42.5 144.5 l97 -29 q-7 -20 -36 -19 q-17 -45 -42 -88 l121 0 l0 165 l98 -11 q-1 -10 -8.5 -17.5 q-7.5 -7.5 -26.5 -10.5 l0 -126 l111 0 l45 58 q0 0 14.5 -11.5 q14.5 -11.5 34 -28 q19.5 -16.5 35.5 -31.5 q-3 -16 -27 -16 l-213 0 l0 -135 l143 0 l46 58 q0 0 14.5 -11.5 q14.5 -11.5 34 -28 q19.5 -16.5 35.5 -31.5 q-3 -16 -26 -16 l-247 0 l0 -120 l128 0 l33 38 l83 -61 q-4 -5 -16 -11 q-12 -6 -27 -8 l0 -231 q0 -26 -5 -44.5 q-5 -18.5 -22.5 -30 q-17.5 -11.5 -53.5 -16.5 q-1 14 -4 27.5 q-3 13.5 -10 21.5 q-7 7 -19 12 q-12 5 -32 9 l0 16 q0 0 14 -1 q14 -1 30.5 -2.5 q16.5 -1.5 23.5 -1.5 q15 0 15 17 l0 236 l-138 0 l0 -378 q0 -7 -16.5 -16 q-16.5 -9 -34.5 -9 l-12 0 l0 403 l-137 0 l0 -318 q0 -4 -16 -12.5 q-16 -8.5 -36 -8.5 l-9 0 l0 369 Z" /><glyph glyph-name="" unicode="&#x524d;" d="M588 532 l99 -11 q-1 -10 -9 -17 q-8 -7 -28 -9 l0 -401 q0 -6 -16 -14 q-16 -8 -34 -8 l-12 0 l0 460 ZM803 556 l98 -11 q-1 -11 -9 -18 q-8 -7 -26 -9 l0 -502 q0 -26 -6.5 -45 q-6.5 -19 -28.5 -31 q-22 -12 -69 -17 q-2 14 -7 25.5 q-5 11.5 -15 19.5 q-22 14 -86 23 l0 16 q0 0 16 -1 q16 -1 38.5 -3 q22.5 -2 42.5 -3 q20 -1 28 -1 q14 0 19 5 q5 5 5 16 l0 536 ZM248 835 q71 -22 107.5 -53 q36.5 -31 46 -60.5 q9.5 -29.5 0.5 -49.5 q-9 -20 -29 -21 l199 0 q26 43 52.5 94 q26.5 51 43.5 93 l105 -31 q-7 -19 -39 -18 q-24 -31 -59.5 -68 q-35.5 -37 -72.5 -70 l217 0 l50 62 q0 0 15.5 -12.5 q15.5 -12.5 37 -30 q21.5 -17.5 39.5 -33.5 q-4 -15 -27 -15 l-885 0 l-9 29 l329 0 q-11 0 -26 10 q-5 29 -21.5 59.5 q-16.5 30.5 -39 59 q-22.5 28.5 -45.5 48.5 l11 7 ZM389 489 l-194 0 l0 -121 l194 0 l0 121 ZM132 518 l0 33 l68 -33 l179 0 l33 41 l84 -63 q-5 -5 -17 -11 q-12 -6 -27 -8 l0 -466 q0 -25 -6 -43 q-6 -18 -25 -29.5 q-19 -11.5 -60 -15.5 q-1 14 -4.5 25.5 q-3.5 11.5 -11.5 19.5 q-8 7 -23.5 12 q-15.5 5 -41.5 9 l0 15 q0 0 11.5 -1 q11.5 -1 27.5 -1.5 q16 -0.5 30.5 -1.5 q14.5 -1 20.5 -1 q11 0 15 4.5 q4 4.5 4 14.5 l0 163 l-194 0 l0 -235 q0 -6 -15.5 -14.5 q-15.5 -8.5 -36.5 -8.5 l-11 0 l0 595 ZM389 338 l-194 0 l0 -128 l194 0 l0 128 Z" /><glyph glyph-name="" unicode="&#x5269;" d="M694 752 l94 -11 q-2 -10 -9.5 -17 q-7.5 -7 -25.5 -9 l0 -564 q0 -7 -15.5 -15 q-15.5 -8 -32.5 -8 l-11 0 l0 624 ZM851 819 l99 -11 q-2 -10 -10.5 -17.5 q-8.5 -7.5 -26.5 -9.5 l0 -765 q0 -26 -6 -45.5 q-6 -19.5 -27 -31.5 q-21 -12 -65 -17 q-1 15 -5.5 27 q-4.5 12 -15.5 21 q-10 8 -28.5 13.5 q-18.5 5.5 -49.5 9.5 l0 16 q0 0 14.5 -1 q14.5 -1 35 -3 q20.5 -2 38.5 -3 q18 -1 25 -1 q13 0 17.5 5 q4.5 5 4.5 16 l0 797 ZM37 342 q21 5 59 16 q38 11 80 24 l0 80 l-118 0 l-9 30 l127 0 l0 78 l83 -9 q-1 -8 -7 -14 q-6 -6 -20 -8 l0 -250 q0 -5 -14.5 -12.5 q-14.5 -7.5 -30.5 -7.5 l-11 0 l0 88 q-16 -12 -37.5 -26 q-21.5 -14 -47.5 -31 q-3 -18 -18 -23 l-36 65 ZM45 628 l262 0 l0 99 q-61 -8 -123.5 -14 q-62.5 -6 -123.5 -8 l-4 18 q62 9 128 22 q66 13 129 28.5 q63 15.5 117 32 q54 16.5 93 32.5 l74 -70 q-14 -13 -50 2 q-37 -9 -83 -17.5 q-46 -8.5 -96 -16.5 l0 -108 l141 0 l46 56 q0 0 14 -11.5 q14 -11.5 33.5 -27.5 q19.5 -16 34.5 -31 q-3 -16 -26 -16 l-243 0 l0 -345 q83 -21 132.5 -50 q49.5 -29 71 -58.5 q21.5 -29.5 21.5 -52 q0 -22.5 -15 -32 q-15 -9.5 -38 3.5 q-13 30 -41.5 61.5 q-28.5 31.5 -63 60.5 q-34.5 29 -67.5 49 l0 -292 q0 -4 -14.5 -12 q-14.5 -8 -37.5 -8 l-9 0 l0 282 q-52 -64 -122.5 -121.5 q-70.5 -57.5 -147.5 -98.5 l-8 15 q56 39 109 94.5 q53 55.5 97 120.5 q44 65 72 132 l0 251 l-254 0 l-8 30 ZM589 527 l49 -54 q-4 -4 -11 -4.5 q-7 -0.5 -20 5.5 q-20 -8 -51.5 -18 q-31.5 -10 -58.5 -17 l0 -87 q0 -8 2.5 -11 q2.5 -3 12.5 -3 l31 0 q10 0 17.5 0 q7.5 0 11.5 1 q8 0 11 5 q4 5 9.5 21 q5.5 16 9.5 35 l11 0 l3 -57 q23 -8 23 -23 q0 -16 -20.5 -24.5 q-20.5 -8.5 -78.5 -8.5 l-42 0 q-36 0 -46 11.5 q-10 11.5 -10 38.5 l0 229 l82 -10 q-2 -20 -27 -23 l0 -74 q23 16 48.5 35 q25.5 19 43.5 33 Z" /><glyph glyph-name="" unicode="&#x5272;" d="M272 846 q52 -13 78.5 -34 q26.5 -21 33 -42.5 q6.5 -21.5 -0.5 -37.5 q-7 -16 -23 -20 q-16 -4 -34 10 q-4 30 -23 63 q-19 33 -42 53 l11 8 ZM948 809 q-2 -10 -10.5 -17 q-8.5 -7 -26.5 -9 l0 -766 q0 -26 -6.5 -46 q-6.5 -20 -28 -32.5 q-21.5 -12.5 -66.5 -17.5 q-2 15 -6.5 27.5 q-4.5 12.5 -15.5 21.5 q-10 8 -29.5 14 q-19.5 6 -51.5 10 l0 16 q0 0 15 -1 q15 -1 36 -3 q21 -2 40 -3 q19 -1 26 -1 q14 0 18.5 5 q4.5 5 4.5 17 l0 797 l101 -12 ZM760 724 q-1 -10 -9 -17 q-8 -7 -27 -9 l0 -549 q0 -6 -16.5 -14 q-16.5 -8 -33.5 -8 l-12 0 l0 608 l98 -11 ZM462 183 l-272 0 l0 -163 l272 0 l0 163 ZM190 -58 q0 -4 -16.5 -12 q-16.5 -8 -36.5 -8 l-11 0 l0 321 l69 -30 l258 0 l35 38 l77 -60 q-10 -12 -40 -17 l0 -223 q-1 -4 -19 -12 q-18 -8 -34 -8 l-10 0 l0 59 l-272 0 l0 -48 ZM392 649 q-1 -10 -9 -16.5 q-8 -6.5 -26 -8.5 l0 -64 l86 0 l44 56 q0 0 14 -11.5 q14 -11.5 33 -27.5 q19 -16 34 -31 q-4 -16 -25 -16 l-186 0 l0 -82 l69 0 l45 57 q0 0 14 -11 q14 -11 33.5 -27.5 q19.5 -16.5 34.5 -31.5 q-4 -16 -27 -16 l-169 0 l0 -87 l133 0 l45 57 q0 0 14 -11.5 q14 -11.5 33.5 -27.5 q19.5 -16 35.5 -32 q-4 -16 -26 -16 l-235 0 l0 -42 q0 -5 -16.5 -13 q-16.5 -8 -33.5 -8 l-13 0 l0 63 l-229 0 l-8 30 l237 0 l0 87 l-162 0 l-8 29 l170 0 l0 82 l-181 0 l-8 30 l189 0 l0 100 l98 -11 ZM118 752 q4 -11 6.5 -22 q2.5 -11 3.5 -22 l411 0 l39 40 l73 -71 q-5 -4 -14 -5.5 q-9 -1.5 -23 -2.5 q-13 -19 -30.5 -40.5 q-17.5 -21.5 -34.5 -36.5 l-14 8 q3 15 6 36.5 q3 21.5 6 41.5 l-416 0 q3 -61 -23 -90 q-12 -12 -32 -13 q-20 -1 -29 15 q-8 15 -1.5 30.5 q6.5 15.5 21.5 25.5 q14 14 25.5 46.5 q11.5 32.5 7.5 60.5 l18 -1 Z" /><glyph glyph-name="" unicode="&#x52a8;" d="M429 556 q0 0 14.5 -11.5 q14.5 -11.5 34.5 -28 q20 -16.5 36 -32.5 q-4 -16 -26 -16 l-444 0 l-8 30 l347 0 l46 58 ZM377 777 q0 0 14.5 -11.5 q14.5 -11.5 34.5 -28 q20 -16.5 36 -32.5 q-3 -16 -26 -16 l-344 0 l-8 30 l247 0 l46 58 ZM334 345 q60 -49 90.5 -96 q30.5 -47 38 -86.5 q7.5 -39.5 -0.5 -65.5 q-8 -26 -25 -31.5 q-17 -5.5 -37 14.5 q1 16 -1 32.5 q-2 16.5 -5 32.5 q-54 -17 -126.5 -39.5 q-72.5 -22.5 -155.5 -43.5 q-10 -17 -24 -23 l-40 99 q0 0 11.5 3 q11.5 3 16.5 7 q20 26 41 66 q21 40 41 86 q20 46 35.5 90 q15.5 44 23.5 77 l103 -36 q-2 -7 -11 -13 q-9 -6 -25 -5 q-20 -42 -49.5 -92.5 q-29.5 -50.5 -62.5 -99.5 q-33 -49 -66 -89 q52 5 126.5 15 q74.5 10 156.5 22 q-11 46 -30 91 q-19 45 -39 79 l14 6 ZM727 826 q-2 -11 -9.5 -18 q-7.5 -7 -26.5 -10 l-3 -194 l159 0 l38 42 l77 -63 q-12 -13 -42 -16 q-5 -269 -20 -414 q-15 -145 -49 -183 q-19 -24 -46.5 -34.5 q-27.5 -10.5 -58.5 -10.5 q0 15 -3 28 q-3 13 -13 21 q-10 8 -33.5 14.5 q-23.5 6.5 -49.5 10.5 l1 19 q19 -2 42.5 -4 q23.5 -2 44 -3.5 q20.5 -1.5 30.5 -1.5 q25 0 37 12 q25 26 37.5 166.5 q12.5 140.5 17.5 387.5 l-169 0 q-4 -102 -18 -195.5 q-14 -93.5 -47.5 -177 q-33.5 -83.5 -96 -155.5 q-62.5 -72 -162.5 -132 l-14 16 q84 61 136.5 132 q52.5 71 81 151.5 q28.5 80.5 40.5 171 q12 90.5 15 189.5 l-166 0 l-9 29 l176 0 q2 56 1.5 114 q-0.5 58 -0.5 119 l102 -11 Z" /><glyph glyph-name="" unicode="&#x536b;" d="M865 90 q0 0 17 -13.5 q17 -13.5 40.5 -33 q23.5 -19.5 42.5 -37.5 q-4 -16 -27 -16 l-887 0 l-8 29 l362 0 l0 713 l-310 0 l-9 29 l681 0 l40 42 l77 -64 q-5 -6 -14.5 -10 q-9.5 -4 -24.5 -5 q-4 -217 -15.5 -337.5 q-11.5 -120.5 -41.5 -153.5 q-19 -20 -45.5 -30 q-26.5 -10 -58.5 -10 q0 15 -3 28.5 q-3 13.5 -13 21.5 q-11 8 -36 15.5 q-25 7.5 -53 10.5 l1 18 q20 -1 44.5 -3.5 q24.5 -2.5 46.5 -4 q22 -1.5 32 -1.5 q25 0 36 10 q19 22 27 135.5 q8 113.5 12 308.5 l-305 0 l0 -713 l336 0 l56 71 Z" /><glyph glyph-name="" unicode="&#x5371;" d="M327 840 l105 -31 q-3 -7 -11 -10.5 q-8 -3.5 -28 -0.5 q-18 -31 -42 -63 l227 0 l43 42 l76 -69 q-6 -6 -15.5 -7.5 q-9.5 -1.5 -24.5 -3.5 q-26 -26 -63.5 -60 q-37.5 -34 -76.5 -60 l286 0 l49 63 q0 0 16 -12.5 q16 -12.5 37.5 -30 q21.5 -17.5 39.5 -33.5 q-4 -16 -27 -16 l-670 0 l0 -156 q0 -55 -6 -117 q-6 -62 -25 -124.5 q-19 -62.5 -58 -121 q-39 -58.5 -106 -107.5 l-13 12 q62 68 93 143.5 q31 75.5 41 155.5 q10 80 10 159 l0 168 q-32 -25 -66.5 -48 q-34.5 -23 -69.5 -41 l-11 13 q60 41 116 99.5 q56 58.5 101.5 125 q45.5 66.5 72.5 131.5 ZM260 577 l230 0 q23 27 45.5 62.5 q22.5 35.5 38.5 65.5 l-246 0 q-47 -57 -105 -111 l37 -17 ZM353 434 l0 32 l76 -32 l264 0 l36 36 l73 -59 q-9 -11 -36 -14 q-2 -103 -10.5 -159.5 q-8.5 -56.5 -31.5 -76.5 q-15 -13 -38 -19.5 q-23 -6.5 -49 -6.5 q0 13 -3 25 q-3 12 -13 19 q-9 7 -32.5 12.5 q-23.5 5.5 -47.5 9.5 l1 17 q17 -1 40 -3 q23 -2 43.5 -3 q20.5 -1 29.5 -1 q22 0 29 7 q9 10 13 57 q4 47 5 129 l-286 0 l0 -375 q0 -19 12.5 -25.5 q12.5 -6.5 61.5 -6.5 l178 0 q60 0 104 1 q44 1 61 2 q14 1 20 4 q6 3 10 10 q8 13 16.5 44.5 q8.5 31.5 18.5 75.5 l12 0 l3 -124 q20 -5 27.5 -11 q7.5 -6 7.5 -16 q0 -13 -10.5 -21.5 q-10.5 -8.5 -40.5 -13.5 q-30 -5 -85.5 -7 q-55.5 -2 -145.5 -2 l-178 0 q-54 0 -83.5 6.5 q-29.5 6.5 -40.5 23.5 q-11 17 -11 49 l0 416 Z" /><glyph glyph-name="" unicode="&#x5374;" d="M464 699 q0 0 14.5 -11.5 q14.5 -11.5 34 -27.5 q19.5 -16 35.5 -32 q-4 -16 -27 -16 l-193 0 l0 -185 l117 0 l46 59 q0 0 14.5 -12 q14.5 -12 35 -28.5 q20.5 -16.5 36.5 -32.5 q-4 -16 -26 -16 l-267 0 l76 -29 q-3 -7 -12 -12.5 q-9 -5.5 -26 -4.5 q-23 -35 -57 -76 q-34 -41 -72.5 -81.5 q-38.5 -40.5 -76.5 -72.5 q59 6 144 17 q85 11 178 24 q-16 34 -36.5 65 q-20.5 31 -40.5 56 l13 8 q71 -44 108.5 -89.5 q37.5 -45.5 50 -85.5 q12.5 -40 6 -67 q-6.5 -27 -24.5 -34 q-18 -7 -39 12 q-1 27 -8.5 56.5 q-7.5 29.5 -19.5 58.5 q-60 -19 -146 -43.5 q-86 -24.5 -186 -48.5 q-10 -18 -24 -24 l-40 98 q0 0 11 2.5 q11 2.5 16 6.5 q24 21 50 53.5 q26 32.5 50.5 70.5 q24.5 38 45 74.5 q20.5 36.5 32.5 65.5 l-210 0 l-8 30 l226 0 l0 185 l-192 0 l-8 30 l200 0 l0 190 l101 -11 q-1 -10 -9.5 -17 q-8.5 -7 -27.5 -10 l0 -152 l91 0 l45 57 ZM590 778 l75 -40 l175 0 l34 41 l84 -63 q-11 -12 -44 -19 l0 -513 q0 -26 -6 -45.5 q-6 -19.5 -27 -31.5 q-21 -12 -65 -17 q-2 15 -6.5 28 q-4.5 13 -14.5 21 q-10 8 -28 14.5 q-18 6.5 -50 10.5 l0 15 q0 0 14 -1 q14 -1 34 -2.5 q20 -1.5 38 -2.5 q18 -1 25 -1 q14 0 18 5 q4 5 4 15 l0 517 l-197 0 l0 -764 q0 -4 -14.5 -13.5 q-14.5 -9.5 -38.5 -9.5 l-10 0 l0 856 Z" /><glyph glyph-name="" unicode="&#x53bb;" d="M630 255 q103 -52 163.5 -105.5 q60.5 -53.5 86.5 -99 q26 -45.5 26.5 -77.5 q0.5 -32 -16.5 -42.5 q-17 -10.5 -43 8.5 q-8 27 -24.5 57 q-16.5 30 -37.5 61 q-106 -20 -256.5 -43.5 q-150.5 -23.5 -333.5 -46.5 q-9 -16 -21 -22 l-46 96 q0 0 12 2.5 q12 2.5 18 6.5 q38 26 79 66.5 q41 40.5 80 86.5 q39 46 71.5 90.5 q32.5 44.5 52.5 78.5 l-387 0 l-9 29 l418 0 l0 212 l-334 0 l-9 30 l343 0 l0 196 l105 -11 q-2 -11 -10 -18 q-8 -7 -27 -10 l0 -157 l214 0 l51 64 q0 0 16 -12.5 q16 -12.5 38 -30.5 q22 -18 40 -35 q-4 -16 -27 -16 l-332 0 l0 -212 l282 0 l52 65 q0 0 16.5 -12.5 q16.5 -12.5 39 -30.5 q22.5 -18 40.5 -35 q-4 -16 -26 -16 l-486 0 l89 -45 q-4 -7 -14.5 -11.5 q-10.5 -4.5 -26.5 -1.5 q-32 -40 -80.5 -89.5 q-48.5 -49.5 -104.5 -98 q-56 -48.5 -111 -87.5 q64 3 154 8.5 q90 5.5 196.5 13 q106.5 7.5 219.5 16.5 q-34 47 -74.5 91.5 q-40.5 44.5 -78.5 77.5 l12 9 Z" /><glyph glyph-name="" unicode="&#x53cc;" d="M119 595 q58 -43 106 -89 q48 -46 87 -92 q22 75 36.5 152.5 q14.5 77.5 23.5 154.5 l-311 0 l-9 30 l313 0 l40 42 l74 -69 q-5 -7 -13.5 -9.5 q-8.5 -2.5 -24.5 -4.5 q-12 -89 -31 -179.5 q-19 -90.5 -50 -177.5 q29 -40 51 -78 q22 -38 38 -72 q22 -52 23.5 -87 q1.5 -35 -9.5 -50.5 q-11 -15.5 -27.5 -8 q-16.5 7.5 -30.5 40.5 q-19 82 -72 185 q-45 -103 -114 -196 q-69 -93 -170 -167 l-15 12 q92 84 155.5 192.5 q63.5 108.5 103.5 229.5 q-38 64 -85.5 124 q-47.5 60 -102.5 107 l14 10 ZM671 229 q-46 104 -75.5 227 q-29.5 123 -42.5 265 l-59 0 l-9 30 l348 0 l43 43 l76 -71 q-10 -11 -41 -14 q-22 -130 -62.5 -254 q-40.5 -124 -111.5 -233 q47 -76 106.5 -137 q59.5 -61 132.5 -107 l-3 -10 q-22 -1 -39.5 -14 q-17.5 -13 -23.5 -33 q-64 48 -116.5 110.5 q-52.5 62.5 -93.5 138.5 q-57 -75 -134.5 -138.5 q-77.5 -63.5 -180.5 -113.5 l-12 13 q96 59 170 134.5 q74 75.5 128 163.5 ZM702 284 q53 99 86.5 210 q33.5 111 51.5 227 l-262 0 q29 -251 124 -437 Z" /><glyph glyph-name="" unicode="&#x53d1;" d="M624 809 q70 -22 109 -50.5 q39 -28.5 53 -56.5 q14 -28 9 -48.5 q-5 -20.5 -21.5 -27 q-16.5 -6.5 -38.5 8.5 q-8 28 -28.5 58.5 q-20.5 30.5 -45 59 q-24.5 28.5 -47.5 48.5 l10 8 ZM861 631 q0 0 15 -12 q15 -12 36 -29 q21 -17 37 -33 q-4 -16 -26 -16 l-489 0 q-9 -31 -19 -61 q-10 -30 -21 -59 l317 0 l46 41 l72 -69 q-6 -7 -15.5 -8.5 q-9.5 -1.5 -27.5 -3.5 q-31 -76 -75 -141 q-44 -65 -103 -119 q65 -37 152 -70.5 q87 -33.5 202 -61.5 l-2 -11 q-27 -3 -45.5 -13.5 q-18.5 -10.5 -24.5 -37.5 q-109 34 -190 73 q-81 39 -140 82 q-75 -56 -173 -97 q-98 -41 -224 -65 l-8 17 q225 60 365 177 q-64 56 -100 116 q-36 60 -56 119 q-52 -115 -130 -212 q-78 -97 -191 -167 l-13 10 q86 68 150.5 156 q64.5 88 110 191 q45.5 103 74.5 214 l-171 0 l-34 -34 l-75 60 q8 5 20 10 q12 5 24 9 q12 30 25 67 q13 37 24.5 72.5 q11.5 35.5 17.5 58.5 l100 -36 q-4 -9 -13.5 -14 q-9.5 -5 -26.5 -2 q-10 -32 -27 -77.5 q-17 -45.5 -32 -83.5 l176 0 q17 68 28.5 137 q11.5 69 18.5 138 l107 -20 q-6 -23 -39 -25 q-8 -58 -19.5 -116 q-11.5 -58 -26.5 -114 l370 0 l49 60 ZM382 391 l-5 -14 q20 -58 63 -115.5 q43 -57.5 120 -110.5 q100 100 152 240 l-330 0 Z" /><glyph glyph-name="" unicode="&#x53d7;" d="M208 693 q57 -22 86 -48.5 q29 -26.5 37 -51 q8 -24.5 1 -42 q-7 -17.5 -23.5 -22 q-16.5 -4.5 -35.5 11.5 q-5 36 -28 77 q-23 41 -48 68 l11 7 ZM432 712 q54 -26 80.5 -55.5 q26.5 -29.5 32.5 -56 q6 -26.5 -2.5 -44.5 q-8.5 -18 -25 -21.5 q-16.5 -3.5 -34.5 12.5 q-1 40 -20.5 84.5 q-19.5 44.5 -41.5 74.5 l11 6 ZM781 837 l73 -71 q-16 -15 -53 3 q-91 -15 -207 -29 q-116 -14 -241.5 -24.5 q-125.5 -10.5 -245.5 -14.5 l-4 20 q87 8 181.5 21 q94.5 13 186.5 29 q92 16 172 33 q80 17 138 33 ZM751 725 l105 -34 q-7 -21 -38 -18 q-27 -35 -66.5 -77 q-39.5 -42 -80.5 -77 l180 0 l43 44 l78 -75 q-10 -9 -38 -10 q-21 -25 -54.5 -54.5 q-33.5 -29.5 -62.5 -49.5 l-11 8 q11 21 23.5 51.5 q12.5 30.5 22.5 56.5 l-678 0 q3 -49 -13 -81.5 q-16 -32.5 -39 -46.5 q-19 -11 -40.5 -10 q-21.5 1 -29.5 18 q-7 17 1.5 31 q8.5 14 24.5 23 q29 15 48.5 55 q19.5 40 14.5 88 l17 0 q5 -13 8 -25 q3 -12 5 -23 l472 0 q31 44 60 101.5 q29 57.5 48 104.5 ZM685 330 l-363 0 q34 -58 83.5 -106 q49.5 -48 110.5 -86 q108 84 169 192 ZM172 359 l516 0 l50 43 l73 -71 q-6 -7 -15.5 -9.5 q-9.5 -2.5 -29.5 -3.5 q-75 -124 -196 -210 q84 -43 183 -70.5 q99 -27.5 206 -42.5 l-2 -11 q-50 -9 -65 -63 q-109 23 -204.5 59.5 q-95.5 36.5 -173.5 90.5 q-181 -109 -454 -149 l-6 17 q122 27 226.5 68.5 q104.5 41.5 189.5 97.5 q-55 45 -98 101 q-43 56 -74 124 l-118 0 l-8 29 Z" /><glyph glyph-name="" unicode="&#x53d8;" d="M417 847 q61 -14 94 -35.5 q33 -21.5 44.5 -44.5 q11.5 -23 6 -40.5 q-5.5 -17.5 -21.5 -23.5 q-16 -6 -37 6 q-8 21 -24 45 q-16 24 -35 46.5 q-19 22.5 -37 38.5 l10 8 ZM328 567 q-4 -7 -14.5 -11 q-10.5 -4 -25.5 0 q-48 -67 -110 -119 q-62 -52 -124 -82 l-13 14 q52 39 105.5 105 q53.5 66 92.5 144 l89 -51 ZM693 602 q88 -24 139.5 -56 q51.5 -32 73.5 -64 q22 -32 22 -57 q0 -25 -16 -34.5 q-16 -9.5 -40 3.5 q-14 34 -45.5 71 q-31.5 37 -69.5 70.5 q-38 33.5 -74 56.5 l10 10 ZM455 101 q-52 40 -94.5 88.5 q-42.5 48.5 -74.5 106.5 l-122 0 l-9 30 l530 0 l50 42 l72 -71 q-11 -10 -47 -11 q-40 -53 -91 -99 q-51 -46 -112 -86 q89 -42 192.5 -68.5 q103.5 -26.5 215.5 -40.5 l-1 -12 q-46 -7 -60 -57 q-115 21 -217 56.5 q-102 35.5 -185 88.5 q-195 -108 -462 -150 l-7 17 q118 28 225.5 69.5 q107.5 41.5 196.5 96.5 ZM500 130 q53 37 97.5 78.5 q44.5 41.5 78.5 87.5 l-364 0 q35 -50 82.5 -91 q47.5 -41 105.5 -75 ZM856 762 q0 0 15 -12 q15 -12 36.5 -29.5 q21.5 -17.5 38.5 -33.5 q-3 -16 -26 -16 l-279 0 l0 -295 q0 -3 -14.5 -11 q-14.5 -8 -39.5 -8 l-10 0 l0 314 l-153 0 l0 -298 q0 -3 -14.5 -10.5 q-14.5 -7.5 -39.5 -7.5 l-10 0 l0 316 l-297 0 l-9 30 l752 0 l50 61 Z" /><glyph glyph-name="" unicode="&#x53d9;" d="M394 292 q58 -33 88 -68 q30 -35 38 -65.5 q8 -30.5 0.5 -51 q-7.5 -20.5 -23.5 -25 q-16 -4.5 -35 12.5 q-2 31 -14.5 65.5 q-12.5 34.5 -30 67.5 q-17.5 33 -35.5 57 l12 7 ZM135 295 l95 -28 q-3 -9 -11.5 -15 q-8.5 -6 -24.5 -5 q-25 -64 -61 -119 q-36 -55 -77 -93 l-15 9 q29 47 54 114 q25 67 40 137 ZM326 786 q83 -35 127 -69 q44 -34 58.5 -63.5 q14.5 -29.5 8.5 -49 q-6 -19.5 -22.5 -25 q-16.5 -5.5 -33.5 8.5 q-16 40 -53.5 90.5 q-37.5 50.5 -91.5 96.5 q-30 -50 -73.5 -104.5 q-43.5 -54.5 -96.5 -104.5 q-53 -50 -112 -87 l-11 10 q37 33 73 76.5 q36 43.5 67.5 92 q31.5 48.5 56 95.5 q24.5 47 39.5 86 l105 -35 q-2 -9 -11.5 -13.5 q-9.5 -4.5 -29.5 -4.5 ZM55 383 l212 0 l0 130 l-125 0 l-8 30 l235 0 l42 52 q0 0 13.5 -10.5 q13.5 -10.5 31.5 -25.5 q18 -15 33 -30 q-4 -16 -27 -16 l-132 0 l0 -130 l91 0 l44 58 q0 0 14 -11.5 q14 -11.5 33 -28.5 q19 -17 34 -32 q-3 -15 -26 -15 l-190 0 l0 -334 q0 -25 -6 -45.5 q-6 -20.5 -26 -34 q-20 -13.5 -62 -18.5 q-1 15 -4.5 28 q-3.5 13 -11.5 21 q-10 8 -27 13.5 q-17 5.5 -46 9.5 l0 15 q0 0 12.5 -1 q12.5 -1 30 -2 q17.5 -1 33.5 -2 q16 -1 23 -1 q13 0 17 4 q4 4 4 14 l0 333 l-204 0 l-8 29 ZM837 702 l-239 0 q14 -124 42.5 -231.5 q28.5 -107.5 72.5 -197.5 q49 98 78.5 206.5 q29.5 108.5 45.5 222.5 ZM514 732 l317 0 l42 44 l76 -71 q-6 -7 -14.5 -9.5 q-8.5 -2.5 -25.5 -4.5 q-20 -127 -56.5 -250 q-36.5 -123 -104.5 -230 q44 -71 99.5 -129 q55.5 -58 123.5 -102 l-2 -9 q-22 -3 -39.5 -16 q-17.5 -13 -23.5 -34 q-120 91 -195 236 q-52 -68 -121 -127 q-69 -59 -161 -106 l-12 14 q86 56 151.5 126.5 q65.5 70.5 114.5 152.5 q-44 101 -71 223 q-27 122 -39 262 l-50 0 l-9 30 Z" /><glyph glyph-name="" unicode="&#x53ea;" d="M612 238 q112 -46 179.5 -94 q67.5 -48 99 -91 q31.5 -43 36 -74 q4.5 -31 -11.5 -43 q-16 -12 -42 3 q-16 35 -46.5 74.5 q-30.5 39.5 -69 79 q-38.5 39.5 -79.5 74.5 q-41 35 -78 61 l12 10 ZM353 248 l93 -50 q-6 -7 -14 -9.5 q-8 -2.5 -25 1.5 q-37 -45 -94 -94.5 q-57 -49.5 -126 -94.5 q-69 -45 -144 -78 l-9 12 q64 41 125.5 95 q61.5 54 112 111 q50.5 57 81.5 107 ZM183 752 l0 32 l73 -32 l490 0 l37 41 l83 -64 q-12 -14 -42 -20 l0 -425 q-1 -5 -21 -14 q-20 -9 -37 -9 l-10 0 l0 63 l-505 0 l0 -51 q0 -6 -17.5 -15 q-17.5 -9 -39.5 -9 l-11 0 l0 503 ZM251 354 l505 0 l0 368 l-505 0 l0 -368 Z" /><glyph glyph-name="" unicode="&#x53ef;" d="M41 761 l772 0 l51 64 q0 0 16.5 -12.5 q16.5 -12.5 38.5 -30.5 q22 -18 40 -35 q-3 -16 -27 -16 l-131 0 l0 -705 q0 -26 -8 -48 q-8 -22 -33.5 -36.5 q-25.5 -14.5 -78.5 -19.5 q-2 16 -8.5 29 q-6.5 13 -20.5 21 q-15 8 -41 14.5 q-26 6.5 -70 12.5 l0 15 q0 0 21.5 -1.5 q21.5 -1.5 51 -3.5 q29.5 -2 56 -3.5 q26.5 -1.5 36.5 -1.5 q17 0 23 6 q6 6 6 19 l0 702 l-685 0 l-9 30 ZM467 529 l-245 0 l0 -266 l245 0 l0 266 ZM159 558 l0 31 l68 -31 l230 0 l36 40 l80 -62 q-10 -14 -42 -20 l0 -338 q-1 -4 -20 -12.5 q-19 -8.5 -35 -8.5 l-9 0 l0 78 l-245 0 l0 -95 q0 -4 -16.5 -12.5 q-16.5 -8.5 -36.5 -8.5 l-10 0 l0 439 Z" /><glyph glyph-name="" unicode="&#x53f9;" d="M626 178 q-54 99 -84 226 q-30 127 -42 286 l-88 0 l-9 29 l406 0 l42 43 l69 -70 q-6 -7 -14.5 -9.5 q-8.5 -2.5 -25.5 -4.5 q-22 -142 -62.5 -268.5 q-40.5 -126.5 -119.5 -230.5 q99 -130 262 -202 l-4 -9 q-49 2 -74 -46 q-143 80 -226 207 q-61 -66 -145 -119.5 q-84 -53.5 -197 -91.5 l-10 15 q107 46 186 107.5 q79 61.5 136 137.5 ZM662 230 q62 98 96.5 214 q34.5 116 51.5 246 l-287 0 q14 -140 48 -255 q34 -115 91 -205 ZM286 221 l0 451 l-147 0 l0 -451 l147 0 ZM139 96 q0 -5 -14.5 -14 q-14.5 -9 -35.5 -9 l-10 0 l0 661 l66 -32 l131 0 l36 40 l79 -62 q-11 -13 -43 -19 l0 -515 q-1 -5 -18.5 -14 q-17.5 -9 -34.5 -9 l-9 0 l0 68 l-147 0 l0 -95 Z" /><glyph glyph-name="" unicode="&#x540c;" d="M247 604 l383 0 l47 58 q0 0 14.5 -11.5 q14.5 -11.5 34.5 -28 q20 -16.5 36 -31.5 q-4 -16 -26 -16 l-481 0 l-8 29 ZM111 761 l0 33 l71 -33 l632 0 l34 42 l83 -65 q-5 -5 -16 -11 q-11 -6 -27 -9 l0 -700 q0 -25 -7.5 -45 q-7.5 -20 -32.5 -33 q-25 -13 -78 -18 q-3 15 -9 26.5 q-6 11.5 -18 18.5 q-15 8 -40 14.5 q-25 6.5 -68 10.5 l0 16 q0 0 20.5 -1.5 q20.5 -1.5 49 -3 q28.5 -1.5 54 -3 q25.5 -1.5 35.5 -1.5 q17 0 23 6 q6 6 6 20 l0 706 l-647 0 l0 -783 q0 -7 -15.5 -16.5 q-15.5 -9.5 -37.5 -9.5 l-12 0 l0 839 ZM316 450 l0 31 l68 -31 l220 0 l34 38 l76 -58 q-9 -13 -37 -18 l0 -276 q-1 -5 -19.5 -14 q-18.5 -9 -35.5 -9 l-9 0 l0 85 l-233 0 l0 -85 q0 -4 -16.5 -12 q-16.5 -8 -36.5 -8 l-11 0 l0 357 ZM380 227 l233 0 l0 195 l-233 0 l0 -195 Z" /><glyph glyph-name="" unicode="&#x5411;" d="M102 654 l0 34 l71 -34 l206 0 q20 42 38.5 92.5 q18.5 50.5 30.5 90.5 l110 -29 q-4 -8 -12.5 -14 q-8.5 -6 -25.5 -5 q-19 -30 -47 -66.5 q-28 -36.5 -58 -68.5 l410 0 l35 42 l84 -64 q-5 -5 -17 -11 q-12 -6 -27 -8 l0 -592 q0 -26 -7 -46.5 q-7 -20.5 -30.5 -33.5 q-23.5 -13 -74.5 -18 q-2 16 -8 28.5 q-6 12.5 -17 20.5 q-13 8 -36 15 q-23 7 -61 11 l0 16 q0 0 18.5 -1.5 q18.5 -1.5 44 -3 q25.5 -1.5 48.5 -3 q23 -1.5 32 -1.5 q16 0 21 5.5 q5 5.5 5 18.5 l0 597 l-669 0 l0 -678 q0 -7 -16 -16 q-16 -9 -37 -9 l-11 0 l0 731 ZM315 474 l0 31 l67 -31 l225 0 l35 39 l80 -61 q-5 -6 -16 -11.5 q-11 -5.5 -26 -7.5 l0 -292 q-1 -4 -19.5 -13 q-18.5 -9 -34.5 -9 l-9 0 l0 79 l-240 0 l0 -85 q0 -5 -16 -13 q-16 -8 -36 -8 l-10 0 l0 382 ZM377 228 l240 0 l0 217 l-240 0 l0 -217 Z" /><glyph glyph-name="" unicode="&#x547c;" d="M415 634 q55 -45 82.5 -89 q27.5 -44 34 -81 q6.5 -37 -1.5 -60.5 q-8 -23.5 -25 -28.5 q-17 -5 -36 14 q2 39 -8.5 82 q-10.5 43 -26.5 84.5 q-16 41.5 -33 73.5 l14 5 ZM829 656 l102 -34 q-3 -7 -12 -13 q-9 -6 -24 -6 q-28 -62 -64.5 -124.5 q-36.5 -62.5 -72.5 -107.5 l-16 9 q15 35 30.5 80.5 q15.5 45.5 30.5 96.5 q15 51 26 99 ZM840 831 l76 -71 q-15 -12 -51 2 q-38 -10 -85 -20 q-47 -10 -100 -19 l0 -393 l168 0 l47 59 q0 0 15 -11.5 q15 -11.5 35.5 -28.5 q20.5 -17 36.5 -33 q-3 -15 -25 -15 l-277 0 l0 -282 q0 -25 -7.5 -45.5 q-7.5 -20.5 -30.5 -33.5 q-23 -13 -72 -18 q-3 32 -23 46 q-13 8 -36 14 q-23 6 -61 10 l0 16 q0 0 18 -1.5 q18 -1.5 43 -3 q25 -1.5 47.5 -3 q22.5 -1.5 31.5 -1.5 q15 0 20.5 5.5 q5.5 5.5 5.5 17.5 l0 279 l-279 0 l-8 29 l287 0 l0 384 q-122 -17 -245 -20 l-3 16 q64 8 131 21.5 q67 13.5 130.5 30 q63.5 16.5 118 34 q54.5 17.5 92.5 35.5 ZM78 707 l0 32 l65 -32 l114 0 l36 41 l79 -62 q-12 -14 -43 -20 l0 -510 q-1 -4 -18.5 -13.5 q-17.5 -9.5 -34.5 -9.5 l-9 0 l0 90 l-129 0 l0 -116 q0 -6 -15 -14.5 q-15 -8.5 -35 -8.5 l-10 0 l0 623 ZM267 678 l-129 0 l0 -427 l129 0 l0 427 Z" /><glyph glyph-name="" unicode="&#x547d;" d="M283 544 l298 0 l45 54 q0 0 14.5 -11 q14.5 -11 34 -26.5 q19.5 -15.5 35.5 -30.5 q-4 -16 -26 -16 l-393 0 l-8 30 ZM520 787 q-35 -48 -87.5 -98.5 q-52.5 -50.5 -117 -97.5 q-64.5 -47 -135.5 -86.5 q-71 -39.5 -143 -67.5 l-6 15 q65 32 132 78.5 q67 46.5 127.5 100.5 q60.5 54 105.5 109.5 q45 55.5 65 104.5 l118 -27 q-4 -15 -40 -19 q46 -55 115 -103.5 q69 -48.5 151.5 -88.5 q82.5 -40 168.5 -69 l-1 -15 q-22 -4 -38.5 -19.5 q-16.5 -15.5 -21.5 -33.5 q-82 35 -157.5 84.5 q-75.5 49.5 -136.5 109 q-61 59.5 -99 123.5 ZM153 396 l0 31 l67 -31 l157 0 l34 38 l75 -58 q-10 -12 -38 -17 l0 -313 q-1 -4 -19 -12.5 q-18 -8.5 -33 -8.5 l-10 0 l0 76 l-171 0 l0 -87 q0 -5 -16 -13 q-16 -8 -35 -8 l-11 0 l0 403 ZM386 130 l0 238 l-171 0 l0 -238 l171 0 ZM548 401 l0 32 l67 -32 l171 0 l32 39 l81 -60 q-9 -13 -40 -18 l0 -262 q0 -25 -6 -43 q-6 -18 -26 -29 q-20 -11 -62 -15 q-2 30 -16 44 q-9 7 -25.5 12.5 q-16.5 5.5 -43.5 8.5 l0 16 q0 0 12 -1 q12 -1 29 -2 q17 -1 32.5 -2 q15.5 -1 22.5 -1 q12 0 16 4.5 q4 4.5 4 14.5 l0 265 l-186 0 l0 -425 q0 -4 -16 -13 q-16 -9 -36 -9 l-10 0 l0 476 Z" /><glyph glyph-name="" unicode="&#x548c;" d="M433 579 q0 0 14 -12 q14 -12 34 -28.5 q20 -16.5 36 -32.5 q-4 -16 -27 -16 l-182 0 l0 -62 q68 -28 106.5 -58 q38.5 -30 53 -57 q14.5 -27 11.5 -45.5 q-3 -18.5 -17.5 -24 q-14.5 -5.5 -34.5 7.5 q-9 24 -28.5 51.5 q-19.5 27.5 -43.5 54.5 q-24 27 -47 49 l0 -462 q0 -4 -15 -13 q-15 -9 -39 -9 l-10 0 l0 440 q-34 -79 -83 -148 q-49 -69 -112 -128 l-14 13 q65 80 110.5 182.5 q45.5 102.5 70.5 208.5 l-166 0 l-8 30 l202 0 l0 194 q-50 -10 -102 -19 q-52 -9 -102 -15 l-6 17 q67 16 139 40 q72 24 136 49.5 q64 25.5 106 47.5 l79 -68 q-14 -14 -50 -1 q-28 -9 -63 -18 q-35 -9 -73 -18 l0 -209 l80 0 l45 59 ZM826 651 l-226 0 l0 -530 l226 0 l0 530 ZM600 -3 q0 -6 -15.5 -15 q-15.5 -9 -36.5 -9 l-12 0 l0 741 l69 -33 l210 0 l38 43 l85 -66 q-11 -15 -47 -21 l0 -628 q-1 -4 -19.5 -11 q-18.5 -7 -35.5 -7 l-10 0 l0 101 l-226 0 l0 -95 Z" /><glyph glyph-name="" unicode="&#x54c0;" d="M419 844 q58 -14 89 -36 q31 -22 41 -44.5 q10 -22.5 4 -40 q-6 -17.5 -21.5 -22.5 q-15.5 -5 -35.5 8 q-7 33 -33.5 69 q-26.5 36 -53.5 58 l10 8 ZM857 756 q0 0 15 -12 q15 -12 36 -29 q21 -17 37 -33 q-3 -16 -27 -16 l-853 0 l-9 29 l754 0 l47 61 ZM268 331 q0 -4 -17 -12.5 q-17 -8.5 -37 -8.5 l-9 0 l0 301 l68 -31 l442 0 l37 40 l80 -62 q-4 -6 -16 -11 q-12 -5 -27 -9 l0 -187 q-1 -4 -19.5 -11.5 q-18.5 -7.5 -34.5 -7.5 l-10 0 l0 31 l-189 0 l-12 -14 q18 -48 44 -90 q26 -42 58 -77 q34 23 69 50.5 q35 27.5 65 55 q30 27.5 49 50.5 l84 -54 q-4 -7 -12 -9 q-8 -2 -24 2 q-37 -27 -96 -58 q-59 -31 -119 -54 q63 -63 147 -106 q84 -43 183 -68 l-2 -11 q-47 -6 -62 -56 q-151 54 -251.5 152 q-100.5 98 -149.5 255 q-65 -66 -149 -118 l0 -197 q44 18 98.5 41 q54.5 23 110.5 47 l7 -15 q-41 -25 -110.5 -68.5 q-69.5 -43.5 -149.5 -90.5 q-8 -13 -18 -18 l-38 69 q23 13 29 20 q6 7 6 18 l0 157 q-55 -28 -115 -52 q-60 -24 -124 -44 l-9 17 q122 47 225 117.5 q103 70.5 171 148.5 l-173 0 l0 -32 ZM725 393 l0 157 l-457 0 l0 -157 l457 0 Z" /><glyph glyph-name="" unicode="&#x5546;" d="M435 846 q55 -11 83.5 -30 q28.5 -19 37 -39.5 q8.5 -20.5 2 -36 q-6.5 -15.5 -22.5 -20 q-16 -4.5 -35 8.5 q-8 28 -30.5 59.5 q-22.5 31.5 -44.5 50.5 l10 7 ZM472 438 q-4 -7 -15 -10.5 q-11 -3.5 -25 0.5 q-44 -47 -94.5 -89.5 q-50.5 -42.5 -96.5 -71.5 l-12 13 q36 35 79.5 91.5 q43.5 56.5 79.5 117.5 l84 -51 ZM579 477 q72 -25 113.5 -53.5 q41.5 -28.5 58.5 -55.5 q17 -27 15.5 -47 q-1.5 -20 -15.5 -27 q-14 -7 -35 5 q-12 27 -37.5 58 q-25.5 31 -55 60.5 q-29.5 29.5 -55.5 50.5 l11 9 ZM869 781 q0 0 16.5 -12 q16.5 -12 38.5 -29.5 q22 -17.5 40 -34.5 q-4 -16 -27 -16 l-886 0 l-9 29 l776 0 l51 63 ZM282 683 q59 -16 89 -39 q30 -23 38.5 -46 q8.5 -23 1 -39 q-7.5 -16 -23.5 -19 l208 0 q17 32 34 72 q17 40 28 71 l102 -27 q-4 -8 -13 -14 q-9 -6 -25 -5 q-18 -22 -42.5 -48 q-24.5 -26 -49.5 -49 l168 0 l34 41 l84 -64 q-11 -13 -44 -19 l0 -483 q0 -26 -6.5 -45.5 q-6.5 -19.5 -28.5 -32 q-22 -12.5 -69 -17.5 q-2 15 -6 28 q-4 13 -15 20 q-11 8 -31 14 q-20 6 -55 10 l0 16 q0 0 16 -1 q16 -1 38 -3 q22 -2 41.5 -3 q19.5 -1 27.5 -1 q14 0 19 5 q5 5 5 17 l0 488 l-610 0 l0 -563 q0 -6 -16 -14.5 q-16 -8.5 -37 -8.5 l-11 0 l0 649 l71 -33 l172 0 q-10 1 -22 9 q-8 32 -33 68 q-25 36 -49 58 l10 8 ZM608 107 l0 165 l-213 0 l0 -165 l213 0 ZM395 31 q0 -4 -16 -12.5 q-16 -8.5 -35 -8.5 l-10 0 l0 322 l66 -30 l200 0 l33 34 l70 -54 q-10 -13 -33 -15 l0 -220 q-1 -4 -19.5 -11 q-18.5 -7 -33.5 -7 l-9 0 l0 48 l-213 0 l0 -46 Z" /><glyph glyph-name="" unicode="&#x56f4;" d="M829 750 l-662 0 l0 -730 l662 0 l0 730 ZM167 -51 q0 -7 -15 -16.5 q-15 -9.5 -38 -9.5 l-12 0 l0 891 l71 -34 l646 0 l38 42 l81 -64 q-5 -7 -17 -12 q-12 -5 -27 -8 l0 -782 q-1 -5 -19.5 -15 q-18.5 -10 -36.5 -10 l-9 0 l0 60 l-662 0 l0 -42 ZM681 676 q0 0 13 -10 q13 -10 31 -25 q18 -15 32 -29 q-4 -16 -26 -16 l-227 0 l0 -109 l118 0 l42 52 q0 0 13.5 -10.5 q13.5 -10.5 31.5 -25.5 q18 -15 33 -30 q-4 -16 -26 -16 l-212 0 l0 -109 l164 0 l33 36 l71 -57 q-8 -10 -37 -15 q-2 -82 -10.5 -123 q-8.5 -41 -29.5 -58 q-15 -10 -34.5 -15 q-19.5 -5 -42.5 -5 q0 11 -2.5 21.5 q-2.5 10.5 -10.5 17.5 q-7 6 -23.5 10.5 q-16.5 4.5 -33.5 6.5 l0 17 q20 -1 46 -3 q26 -2 38 -2 q17 0 25 7 q16 14 20 132 l-173 0 l0 -232 q0 -7 -16 -15 q-16 -8 -34 -8 l-12 0 l0 255 l-222 0 l-9 30 l231 0 l0 109 l-179 0 l-8 30 l187 0 l0 109 l-217 0 l-8 29 l225 0 l0 101 l99 -11 q-2 -10 -10 -17 q-8 -7 -27 -10 l0 -63 l135 0 l42 51 Z" /><glyph glyph-name="" unicode="&#x5728;" d="M851 707 q0 0 15.5 -12 q15.5 -12 36.5 -29.5 q21 -17.5 38 -33.5 q-3 -16 -27 -16 l-505 0 q-25 -49 -56 -97 q-31 -48 -69 -93 l32 -12 q-6 -14 -31 -18 l0 -452 q-1 -4 -17.5 -13 q-16.5 -9 -35.5 -9 l-12 0 l0 433 q-38 -37 -81.5 -71 q-43.5 -34 -92.5 -63 l-11 12 q99 74 174 174.5 q75 100.5 126 208.5 l-262 0 l-9 30 l285 0 q22 49 38.5 98 q16.5 49 28.5 95 l109 -30 q-4 -9 -12.5 -13.5 q-8.5 -4.5 -28.5 -4.5 q-12 -35 -26.5 -71.5 q-14.5 -36.5 -32.5 -73.5 l377 0 l49 61 ZM804 397 q0 0 14.5 -11.5 q14.5 -11.5 34.5 -27.5 q20 -16 35 -32 q-3 -16 -25 -16 l-217 0 l0 -304 l174 0 l48 60 q0 0 15 -12 q15 -12 36 -29 q21 -17 38 -33 q-4 -16 -26 -16 l-609 0 l-8 30 l266 0 l0 304 l-203 0 l-8 30 l211 0 l0 230 l98 -10 q-1 -10 -8 -16.5 q-7 -6.5 -24 -9.5 l0 -194 l112 0 l46 57 Z" /><glyph glyph-name="" unicode="&#x5730;" d="M819 623 l9 3 l36 39 l75 -61 q-9 -11 -39 -15 q-1 -131 -6 -212 q-5 -81 -15 -123.5 q-10 -42.5 -27 -60.5 q-16 -16 -37.5 -23.5 q-21.5 -7.5 -45.5 -7.5 q0 14 -1.5 26 q-1.5 12 -9.5 19 q-7 7 -21 12 q-14 5 -31 9 l0 17 q17 -1 39.5 -3 q22.5 -2 34.5 -2 q19 0 28 10 q14 14 20 94.5 q6 80.5 9 252.5 l-153 -57 l0 -418 q0 -6 -16.5 -15 q-16.5 -9 -35.5 -9 l-11 0 l0 418 l-134 -50 l0 -407 q0 -22 13.5 -32 q13.5 -10 60.5 -10 l148 0 q53 0 89.5 1 q36.5 1 52.5 3 q21 3 29 15 q6 14 16.5 55 q10.5 41 20.5 96 l13 0 l3 -155 q20 -7 27 -13.5 q7 -6.5 7 -17.5 q0 -13 -10.5 -22 q-10.5 -9 -38.5 -14 q-28 -5 -79 -7 q-51 -2 -132 -2 l-151 0 q-76 0 -104.5 18.5 q-28.5 18.5 -28.5 71.5 l0 396 l-123 -46 l-19 24 l142 54 l0 287 l99 -12 q-1 -10 -9.5 -17.5 q-8.5 -7.5 -25.5 -10.5 l0 -223 l134 50 l0 288 l98 -10 q-1 -10 -9 -17.5 q-8 -7.5 -26 -10.5 l0 -226 l135 51 ZM33 111 q44 14 133 51 l0 343 l-118 0 l-8 30 l126 0 l0 283 l100 -11 q-1 -10 -9 -17.5 q-8 -7.5 -27 -10.5 l0 -244 l34 0 l41 59 q0 0 13.5 -12 q13.5 -12 32 -28.5 q18.5 -16.5 31.5 -32.5 q-3 -16 -25 -16 l-127 0 l0 -316 l151 67 l6 -14 q-52 -34 -126 -83 q-74 -49 -169 -107 q-5 -19 -19 -27 l-40 86 Z" /><glyph glyph-name="" unicode="&#x573a;" d="M446 492 q46 34 100.5 77.5 q54.5 43.5 107 87.5 q52.5 44 91.5 81 l-345 0 l-9 30 l373 0 l37 39 l78 -67 q-7 -7 -22.5 -11 q-15.5 -4 -34.5 -5 q-27 -24 -65 -57 q-38 -33 -81.5 -69.5 q-43.5 -36.5 -87 -71 q-43.5 -34.5 -81.5 -63.5 l339 0 l38 41 l76 -63 q-11 -12 -41 -15 q-9 -200 -32.5 -315 q-23.5 -115 -58.5 -149 q-21 -21 -48 -30 q-27 -9 -58 -9 q0 14 -3.5 27 q-3.5 13 -14.5 21 q-10 7 -33 13.5 q-23 6.5 -49 10.5 l1 18 q19 -1 43 -3.5 q24 -2.5 46 -4 q22 -1.5 32 -1.5 q23 0 38 12 q26 23 45 130.5 q19 107.5 29 287.5 l-76 0 q-38 -170 -138 -295 q-100 -125 -288 -205 l-10 16 q158 82 245.5 203.5 q87.5 121.5 121.5 280.5 l-80 0 q-45 -121 -129.5 -214.5 q-84.5 -93.5 -212.5 -160.5 l-10 16 q104 67 175 159 q71 92 110 200 l-85 0 l-40 -27 l-57 70 q11 5 29.5 9.5 q18.5 4.5 34.5 5.5 ZM331 615 q0 0 13.5 -11.5 q13.5 -11.5 31.5 -28.5 q18 -17 33 -32 q-4 -16 -27 -16 l-137 0 l0 -318 l159 51 l5 -13 q-52 -28 -127 -68 q-75 -40 -176 -89 q-3 -18 -20 -25 l-47 84 q23 5 59.5 16 q36.5 11 82.5 25 l0 337 l-132 0 l-8 29 l140 0 l0 263 l101 -11 q-2 -10 -10 -17.5 q-8 -7.5 -27 -9.5 l0 -225 l43 0 l43 59 Z" /><glyph glyph-name="" unicode="&#x57df;" d="M766 797 q48 -10 72.5 -27 q24.5 -17 31.5 -35.5 q7 -18.5 1 -32.5 q-6 -14 -20 -18 q-14 -4 -31 8 q-5 25 -24.5 53 q-19.5 28 -40.5 44 l11 8 ZM270 109 q33 6 92 21 q59 15 134 35.5 q75 20.5 155 42.5 l4 -15 q-58 -25 -139 -60 q-81 -35 -187 -76 q-6 -19 -21 -24 l-38 76 ZM655 827 l99 -12 q-1 -9 -8.5 -17 q-7.5 -8 -26.5 -11 q-2 -65 0 -130 l127 0 l44 54 q0 0 13.5 -11 q13.5 -11 32 -26.5 q18.5 -15.5 33.5 -30.5 q-4 -15 -26 -15 l-223 0 q4 -92 15 -180 q11 -88 31 -165 q58 110 98 263 l96 -31 q-4 -10 -12.5 -13.5 q-8.5 -3.5 -29.5 -2.5 q-26 -87 -58 -158 q-32 -71 -72 -130 q20 -53 45 -95.5 q25 -42.5 57 -70.5 q8 -9 14.5 -9 q6.5 0 12.5 13 q8 18 19 48 q11 30 18 60 l12 -2 l-16 -156 q14 -21 17.5 -38 q3.5 -17 -4.5 -25 q-19 -18 -49.5 -2 q-30.5 16 -58.5 47 q-34 35 -61 79 q-27 44 -48 95 q-61 -73 -141 -126.5 q-80 -53.5 -181 -93.5 l-8 18 q98 50 174.5 112.5 q76.5 62.5 134.5 148.5 q-28 88 -43.5 192 q-15.5 104 -21.5 222 l-330 0 l-8 29 l337 0 q-2 41 -3 84 q-1 43 -1 86 ZM421 486 l0 -173 l129 0 l0 173 l-129 0 ZM366 515 l0 28 l65 -28 l111 0 l31 31 l65 -50 q-8 -10 -32 -15 l0 -228 q0 -4 -16.5 -12 q-16.5 -8 -30.5 -8 l-9 0 l0 51 l-129 0 l0 -56 q0 -4 -13 -12.5 q-13 -8.5 -34 -8.5 l-8 0 l0 308 ZM30 116 q43 15 130 50 l0 356 l-113 0 l-8 30 l121 0 l0 269 l100 -11 q-1 -10 -9 -17.5 q-8 -7.5 -27 -10.5 l0 -230 l21 0 l42 57 q0 0 13.5 -11.5 q13.5 -11.5 31.5 -28 q18 -16.5 33 -31.5 q-4 -16 -27 -16 l-114 0 l0 -329 l126 53 l6 -12 q-46 -31 -111 -76 q-65 -45 -151 -98 q-2 -9 -6.5 -16.5 q-4.5 -7.5 -12.5 -10.5 l-45 83 Z" /><glyph glyph-name="" unicode="&#x582a;" d="M659 221 q-4 -7 -13.5 -11.5 q-9.5 -4.5 -24.5 -2.5 q-30 -46 -65.5 -92 q-35.5 -46 -70.5 -80 l-14 10 q23 40 51 99.5 q28 59.5 50 118.5 l87 -42 ZM717 252 q60 -31 92.5 -64 q32.5 -33 43.5 -62 q11 -29 6 -48 q-5 -19 -19.5 -24.5 q-14.5 -5.5 -33.5 9.5 q-6 29 -23 62 q-17 33 -37.5 65 q-20.5 32 -40.5 56 l12 6 ZM891 386 q0 0 14 -12 q14 -12 33.5 -28.5 q19.5 -16.5 35.5 -32.5 q-4 -16 -27 -16 l-514 0 l0 -303 l391 0 l46 58 q0 0 14.5 -11.5 q14.5 -11.5 34 -28 q19.5 -16.5 35.5 -32.5 q-4 -16 -26 -16 l-486 0 l-28 -34 l-78 48 q6 6 16 12 q10 6 20 10 l0 297 l-81 0 l-8 30 l166 0 l0 342 l-108 0 l-8 30 l116 0 l0 137 l98 -10 q-2 -10 -10 -17 q-8 -7 -26 -10 l0 -100 l237 0 l0 139 l98 -11 q-2 -10 -10 -17 q-8 -7 -26 -10 l0 -101 l25 0 l44 57 q0 0 14 -11.5 q14 -11.5 33 -28 q19 -16.5 34 -31.5 q-4 -16 -27 -16 l-123 0 l0 -342 l35 0 l46 59 ZM748 669 l-237 0 l0 -92 l237 0 l0 92 ZM748 327 l0 95 l-237 0 l0 -95 l237 0 ZM748 452 l0 96 l-237 0 l0 -96 l237 0 ZM310 590 q0 0 13 -11.5 q13 -11.5 31.5 -28 q18.5 -16.5 32.5 -31.5 q-3 -16 -26 -16 l-135 0 l0 -319 l126 43 l5 -13 q-43 -27 -105.5 -64 q-62.5 -37 -145.5 -83 q-5 -20 -19 -26 l-48 84 q20 5 51.5 15 q31.5 10 71.5 23 l0 340 l-113 0 l-8 29 l121 0 l0 282 l101 -11 q-1 -10 -9 -17 q-8 -7 -28 -9 l0 -245 l43 0 l41 58 Z" /><glyph glyph-name="" unicode="&#x5883;" d="M458 683 q53 -14 80 -34.5 q27 -20.5 34.5 -42 q7.5 -21.5 0.5 -37 q-7 -15.5 -22.5 -20 q-15.5 -4.5 -33.5 9.5 q-5 30 -26 63 q-21 33 -44 54 l11 7 ZM854 783 q0 0 13.5 -11 q13.5 -11 32.5 -27 q19 -16 34 -31 q-3 -16 -26 -16 l-537 0 l-8 30 l260 0 l-9 6 q-3 26 -18.5 57 q-15.5 31 -32.5 50 l11 6 q59 -16 82 -40.5 q23 -24.5 21 -47 q-2 -22.5 -18 -31.5 l150 0 l45 55 ZM456 185 q0 -5 -17 -13 q-17 -8 -37 -8 l-9 0 l0 316 l69 -31 l330 0 l34 37 l76 -58 q-10 -12 -38 -17 l0 -219 q-1 -4 -19 -12 q-18 -8 -34 -8 l-9 0 l0 36 l-69 0 l0 -184 q0 -9 4.5 -11.5 q4.5 -2.5 21.5 -2.5 l61 0 q20 0 35 0 q15 0 22 0 q10 0 15 10 q5 11 11.5 40.5 q6.5 29.5 13.5 63.5 l13 0 l3 -106 q14 -6 18.5 -12 q4.5 -6 4.5 -14 q0 -13 -10.5 -21.5 q-10.5 -8.5 -40.5 -12.5 q-30 -4 -87 -4 l-74 0 q-47 0 -60 13 q-13 13 -13 44 l0 197 l-77 0 q-6 -41 -22 -80 q-16 -39 -51 -75.5 q-35 -36.5 -98 -69.5 q-63 -33 -163 -60 l-12 17 q86 30 138.5 62 q52.5 32 80.5 66 q28 34 39.5 69 q11.5 35 15.5 71 l-66 0 l0 -23 ZM802 419 l-346 0 l0 -74 l346 0 l0 74 ZM456 315 l0 -78 l346 0 l0 78 l-346 0 ZM881 596 q0 0 13.5 -11 q13.5 -11 32 -26.5 q18.5 -15.5 33.5 -30.5 q-4 -16 -26 -16 l-594 0 l-8 30 l351 0 q17 35 34 75.5 q17 40.5 30 73.5 l95 -38 q-8 -19 -39 -15 q-16 -21 -40 -47 q-24 -26 -48 -49 l123 0 l43 54 ZM301 647 q0 0 12.5 -10.5 q12.5 -10.5 29.5 -26 q17 -15.5 30 -30.5 q-4 -16 -25 -16 l-123 0 l0 -339 l145 63 l6 -12 q-45 -32 -110.5 -77.5 q-65.5 -45.5 -153.5 -101.5 q-2 -19 -16 -27 l-55 80 q20 7 51 19.5 q31 12.5 70 28.5 l0 366 l-113 0 l-8 29 l121 0 l0 240 l100 -11 q-2 -10 -9.5 -17 q-7.5 -7 -27.5 -9 l0 -203 l37 0 l39 54 Z" /><glyph glyph-name="" unicode="&#x58f0;" d="M176 464 l0 34 l78 -34 l492 0 l35 39 l78 -60 q-11 -13 -38 -18 l0 -238 q-1 -4 -20.5 -11.5 q-19.5 -7.5 -36.5 -7.5 l-9 0 l0 64 l-518 0 q-5 -53 -23 -109 q-18 -56 -56 -108.5 q-38 -52.5 -106 -95.5 l-12 12 q60 57 89 121 q29 64 38 131 q9 67 9 133 l0 148 ZM239 261 l229 0 l0 174 l-227 0 l0 -118 l-2 -56 ZM531 261 l224 0 l0 174 l-224 0 l0 -174 ZM465 838 l103 -10 q-1 -10 -9.5 -17.5 q-8.5 -7.5 -27.5 -10.5 l0 -70 l266 0 l50 59 q0 0 15.5 -11.5 q15.5 -11.5 37.5 -28 q22 -16.5 40 -32.5 q-4 -16 -27 -16 l-382 0 l0 -116 l232 0 l49 60 q0 0 15 -12 q15 -12 36 -28.5 q21 -16.5 37 -32.5 q-4 -16 -25 -16 l-746 0 l-9 29 l345 0 l0 116 l-397 0 l-9 29 l406 0 l0 108 Z" /><glyph glyph-name="" unicode="&#x5916;" d="M362 809 q-3 -9 -12 -15 q-9 -6 -27 -6 q-8 -33 -17 -64.5 q-9 -31.5 -20 -61.5 l170 0 l41 43 l74 -69 q-9 -12 -40 -13 q-19 -108 -51 -210 q-32 -102 -85.5 -193 q-53.5 -91 -137 -166.5 q-83.5 -75.5 -204.5 -129.5 l-11 14 q132 75 217 182.5 q85 107.5 133.5 238 q48.5 130.5 69.5 274.5 l-187 0 q-15 -40 -32.5 -77 q-17.5 -37 -37.5 -71 q68 -22 105.5 -50 q37.5 -28 51.5 -55.5 q14 -27.5 10 -47.5 q-4 -20 -20 -26.5 q-16 -6.5 -38 7.5 q-12 38 -47 80.5 q-35 42.5 -73 73.5 q-61 -102 -140 -169 l-14 10 q74 93 132.5 230 q58.5 137 84.5 297 l105 -26 ZM745 814 q-2 -10 -9.5 -17.5 q-7.5 -7.5 -26.5 -10.5 l0 -270 q94 -32 149 -69.5 q55 -37.5 79 -73 q24 -35.5 24.5 -61.5 q0.5 -26 -15.5 -35.5 q-16 -9.5 -42 4.5 q-15 35 -46.5 73 q-31.5 38 -71 74 q-39.5 36 -77.5 64 l0 -549 q0 -7 -16.5 -15.5 q-16.5 -8.5 -36.5 -8.5 l-13 0 l0 906 l102 -11 Z" /><glyph glyph-name="" unicode="&#x591a;" d="M625 411 q-16 -16 -35 -31.5 q-19 -15.5 -39 -31.5 l284 0 l44 39 l75 -69 q-6 -6 -18 -8 q-12 -2 -32 -3 q-87 -116 -204 -193 q-117 -77 -271.5 -123 q-154.5 -46 -357.5 -70 l-5 20 q175 32 316 78 q141 46 250.5 118 q109.5 72 189.5 181 l-310 0 q-23 -16 -48.5 -33 q-25.5 -17 -51.5 -33 q57 -15 89 -37.5 q32 -22.5 44 -46 q12 -23.5 9 -42 q-3 -18.5 -17 -25.5 q-14 -7 -34 4 q-12 35 -46 70.5 q-34 35.5 -72 60.5 q-60 -34 -126 -63 q-66 -29 -137 -50 l-9 16 q94 38 180 91.5 q86 53.5 155 112 q69 58.5 112 111.5 l110 -27 q-2 -8 -12.5 -12.5 q-10.5 -4.5 -32.5 -3.5 ZM525 789 q-19 -19 -40 -38 q-21 -19 -45 -39 l306 0 l40 38 l74 -67 q-6 -5 -18 -7 q-12 -2 -30 -3 q-122 -146 -301.5 -237.5 q-179.5 -91.5 -438.5 -140.5 l-8 18 q222 58 388 145.5 q166 87.5 278 224.5 l-328 0 q-17 -13 -35.5 -25.5 q-18.5 -12.5 -37.5 -24.5 q55 -14 87 -34.5 q32 -20.5 44.5 -42 q12.5 -21.5 10 -38 q-2.5 -16.5 -16 -23 q-13.5 -6.5 -32.5 3.5 q-14 31 -48 64 q-34 33 -69 56 q-46 -28 -96 -52 q-50 -24 -103 -42 l-10 14 q76 37 147 87.5 q71 50.5 128.5 105 q57.5 54.5 91.5 101.5 l106 -28 q-5 -17 -44 -16 Z" /><glyph glyph-name="" unicode="&#x591c;" d="M408 848 q61 -13 94.5 -35.5 q33.5 -22.5 44.5 -46.5 q11 -24 6 -42.5 q-5 -18.5 -21 -24.5 q-16 -6 -36 7 q-8 35 -37.5 73 q-29.5 38 -60.5 60 l10 9 ZM544 445 q58 -21 88.5 -46 q30.5 -25 40.5 -48.5 q10 -23.5 5 -40 q-5 -16.5 -19.5 -20.5 q-14.5 -4 -32.5 9 q-6 23 -21.5 48.5 q-15.5 25.5 -34.5 49 q-19 23.5 -38 40.5 l12 8 ZM864 756 q0 0 16 -12.5 q16 -12.5 37.5 -31 q21.5 -18.5 38.5 -35.5 q-3 -16 -26 -16 l-876 0 l-9 30 l769 0 l50 65 ZM608 621 q-7 -19 -38 -19 q-15 -43 -33 -84 l250 0 l44 42 l73 -69 q-11 -11 -42 -12 q-31 -96 -78.5 -181.5 q-47.5 -85.5 -116.5 -158.5 q61 -47 138.5 -83.5 q77.5 -36.5 174.5 -59.5 l-2 -10 q-23 -6 -39 -20.5 q-16 -14.5 -22 -40.5 q-93 32 -164.5 75.5 q-71.5 43.5 -126.5 98.5 q-64 -58 -146.5 -104 q-82.5 -46 -187.5 -79 l-10 15 q95 38 172 90 q77 52 138 116 q-43 50 -75 108 q-32 58 -58 123 q-26 -43 -55 -80.5 q-29 -37.5 -61 -67.5 l-15 10 q36 51 70 118.5 q34 67.5 62 145.5 q28 78 47 158 l101 -31 ZM626 175 q57 68 98 147 q41 79 66 166 l-266 0 q-12 -25 -24.5 -49.5 q-12.5 -24.5 -26.5 -47.5 q28 -62 66 -116 q38 -54 87 -100 ZM294 432 q-5 -15 -30 -19 l0 -471 q-1 -4 -17.5 -12 q-16.5 -8 -35.5 -8 l-12 0 l0 457 q-34 -40 -69.5 -74 q-35.5 -34 -72.5 -60 l-14 12 q44 45 89 107 q45 62 85.5 136 q40.5 74 70.5 153 l95 -40 q-4 -7 -13.5 -12 q-9.5 -5 -26.5 -3 q-40 -79 -90 -151 l41 -15 Z" /><glyph glyph-name="" unicode="&#x2f24;&#x5927;" d="M454 836 l109 -11 q-2 -11 -10 -18.5 q-8 -7.5 -26 -9.5 q-1 -65 -3 -128.5 q-2 -63.5 -8 -125.5 l289 0 l54 68 q0 0 17 -13 q17 -13 40.5 -32 q23.5 -19 42.5 -36 q-3 -16 -27 -16 l-400 0 q14 -71 43 -143 q29 -72 79.5 -140.5 q50.5 -68.5 128.5 -130.5 q78 -62 189 -112 l-2 -11 q-27 -3 -44.5 -15 q-17.5 -12 -25.5 -41 q-104 57 -173.5 128.5 q-69.5 71.5 -113 149.5 q-43.5 78 -66.5 158.5 q-23 80.5 -34 155.5 q-10 -87 -36 -169 q-26 -82 -77 -157 q-51 -75 -136 -142 q-85 -67 -213 -124 l-12 18 q110 59 183.5 124.5 q73.5 65.5 119 138 q45.5 72.5 69 150.5 q23.5 78 32.5 162 l-385 0 l-8 29 l396 0 q7 70 7.5 143.5 q0.5 73.5 0.5 149.5 Z" /><glyph glyph-name="" unicode="&#x592a;" d="M845 639 q0 0 16.5 -12.5 q16.5 -12.5 39 -30.5 q22.5 -18 40.5 -35 q-4 -16 -28 -16 l-382 0 q14 -71 42.5 -145.5 q28.5 -74.5 78.5 -147.5 q50 -73 127 -140 q77 -67 186 -122 l-2 -12 q-27 -2 -44.5 -13.5 q-17.5 -11.5 -25.5 -39.5 q-100 60 -167.5 134 q-67.5 74 -110.5 154 q-43 80 -66.5 160.5 q-23.5 80.5 -35.5 154.5 q-10 -83 -34.5 -163.5 q-24.5 -80.5 -74.5 -156.5 q68 -33 105 -68 q37 -35 49 -66 q12 -31 6 -52 q-6 -21 -23 -26.5 q-17 -5.5 -39 11.5 q-7 29 -24.5 61 q-17.5 32 -40 64 q-22.5 32 -44.5 58 q-52 -75 -134.5 -144 q-82.5 -69 -205.5 -128 l-13 17 q111 65 185 136.5 q74 71.5 119 149 q45 77.5 68.5 159 q23.5 81.5 32.5 165.5 l-380 0 l-9 30 l392 0 q5 65 6 130.5 q1 65.5 1 130.5 l109 -12 q-1 -10 -9 -17.5 q-8 -7.5 -26 -9.5 q-1 -55 -3 -110.5 q-2 -55.5 -7 -111.5 l273 0 l53 64 Z" /><glyph glyph-name="" unicode="&#x5931;" d="M248 814 l105 -28 q-3 -9 -12 -15 q-9 -6 -26 -6 q-10 -37 -23.5 -71 q-13.5 -34 -28.5 -66 l207 0 l0 205 l105 -11 q-1 -10 -9 -17.5 q-8 -7.5 -26 -10.5 l-2 -166 l189 0 l50 62 q0 0 16 -12.5 q16 -12.5 37.5 -30 q21.5 -17.5 39.5 -33.5 q-3 -16 -27 -16 l-306 0 q-1 -58 -5 -111 q-4 -53 -13 -102 l297 0 l52 63 q0 0 16 -12.5 q16 -12.5 37.5 -30 q21.5 -17.5 39.5 -34.5 q-4 -15 -27 -15 l-389 0 q20 -66 67 -133 q47 -67 133 -127 q86 -60 223 -107 l-2 -12 q-26 -4 -43.5 -15.5 q-17.5 -11.5 -22.5 -40.5 q-97 41 -163.5 93.5 q-66.5 52.5 -109 110.5 q-42.5 58 -66.5 117 q-24 59 -36 114 l-11 0 q-16 -73 -47 -136 q-31 -63 -84.5 -117 q-53.5 -54 -135.5 -99 q-82 -45 -199 -81 l-10 18 q133 50 216 112 q83 62 128 137.5 q45 75.5 64 165.5 l-386 0 l-8 29 l400 0 q8 49 12 102 q4 53 5 111 l-221 0 q-28 -53 -62.5 -97.5 q-34.5 -44.5 -74.5 -77.5 l-14 9 q51 68 91.5 168.5 q40.5 100.5 59.5 213.5 Z" /><glyph glyph-name="" unicode="&#x5b58;" d="M848 739 q0 0 16 -12 q16 -12 38 -29.5 q22 -17.5 39 -34.5 q-4 -16 -26 -16 l-511 0 q-24 -49 -53.5 -98.5 q-29.5 -49.5 -64.5 -96.5 l31 -12 q-5 -14 -30 -18 l0 -465 q-1 -7 -16.5 -20.5 q-15.5 -13.5 -37.5 -13.5 l-11 0 l0 452 q-37 -40 -78.5 -75.5 q-41.5 -35.5 -88.5 -66.5 l-11 12 q96 79 168 185 q72 106 120 217 l-253 0 l-9 30 l275 0 q33 83 53 162 l105 -32 q-3 -9 -11.5 -13.5 q-8.5 -4.5 -28.5 -3.5 q-10 -27 -21 -55.5 q-11 -28.5 -24 -57.5 l380 0 l50 62 ZM847 341 q0 0 15 -12 q15 -12 35.5 -28.5 q20.5 -16.5 36.5 -32.5 q-3 -16 -26 -16 l-244 0 l0 -235 q0 -27 -7 -46.5 q-7 -19.5 -29.5 -31.5 q-22.5 -12 -70.5 -17 q-2 15 -7 26.5 q-5 11.5 -16 19.5 q-12 8 -33 14.5 q-21 6.5 -56 10.5 l0 16 q0 0 17 -1 q17 -1 40 -3 q23 -2 44 -3 q21 -1 28 -1 q14 0 19 4.5 q5 4.5 5 15.5 l0 231 l-248 0 l-8 30 l256 0 l0 100 l46 -5 q27 26 58 58 q31 32 54 61 l-346 0 l-9 30 l365 0 l43 41 l75 -71 q-6 -6 -16 -7.5 q-10 -1.5 -26 -2.5 q-29 -26 -75 -57 q-46 -31 -90 -56 l22 -2 q-5 -21 -35 -24 l0 -65 l135 0 l48 59 Z" /><glyph glyph-name="" unicode="&#x5b83;" d="M437 839 q60 -13 90.5 -36 q30.5 -23 39 -46.5 q8.5 -23.5 1 -42 q-7.5 -18.5 -25 -23.5 q-17.5 -5 -38.5 10 q-4 34 -27 71 q-23 37 -50 60 l10 7 ZM169 733 q9 -26 12 -52 l654 0 l45 44 l79 -77 q-9 -8 -39 -9 q-21 -30 -56 -66 q-35 -36 -64 -61 l-14 8 q13 26 27 63 q14 37 24 68 l-653 0 q2 -52 -15 -86.5 q-17 -34.5 -40 -51.5 q-19 -14 -43 -14 q-24 0 -34 19 q-7 17 2 32.5 q9 15.5 25 25.5 q31 17 54.5 60.5 q23.5 43.5 18.5 95.5 l17 1 ZM363 554 q-3 -22 -34 -26 l0 -300 q75 34 149 76.5 q74 42.5 136 87.5 q62 45 100 84 l96 -58 q-13 -16 -50 -6 q-50 -35 -119 -73.5 q-69 -38.5 -149 -73.5 q-80 -35 -163 -61 l0 -145 q0 -21 14.5 -29 q14.5 -8 69.5 -8 l187 0 q66 0 112 0.5 q46 0.5 65 2.5 q15 2 21.5 6.5 q6.5 4.5 10.5 13.5 q8 17 17.5 60 q9.5 43 22.5 107 l13 0 l2 -175 q21 -6 28.5 -12.5 q7.5 -6.5 7.5 -17.5 q0 -14 -11.5 -23 q-11.5 -9 -43.5 -14 q-32 -5 -91 -7 q-59 -2 -155 -2 l-188 0 q-57 0 -89.5 7 q-32.5 7 -45.5 26 q-13 19 -13 54 l0 517 l100 -11 Z" /><glyph glyph-name="" unicode="&#x5b87;" d="M437 839 q60 -13 90.5 -36 q30.5 -23 39 -46.5 q8.5 -23.5 1 -42 q-7.5 -18.5 -25 -23.5 q-17.5 -5 -38.5 10 q-4 34 -27 71 q-23 37 -50 60 l10 7 ZM169 733 q5 -13 7.5 -26.5 q2.5 -13.5 3.5 -25.5 l655 0 l44 44 l80 -77 q-9 -8 -39 -9 q-20 -26 -54 -58 q-34 -32 -63 -54 l-13 7 q11 24 24 56.5 q13 32.5 23 60.5 l-654 0 q0 -49 -17 -81 q-17 -32 -39 -47 q-19 -13 -43 -12 q-24 1 -33 20 q-7 17 2 32 q9 15 26 25 q29 16 53 55.5 q24 39.5 20 88.5 l17 1 ZM855 384 q0 0 15.5 -12 q15.5 -12 36.5 -29 q21 -17 38 -33 q-3 -16 -26 -16 l-387 0 l0 -270 q0 -26 -7.5 -46.5 q-7.5 -20.5 -31.5 -34.5 q-24 -14 -73 -19 q-1 16 -6.5 29 q-5.5 13 -16.5 20 q-13 9 -36 15.5 q-23 6.5 -62 10.5 l0 15 q0 0 18 -1 q18 -1 43.5 -3 q25.5 -2 48 -3 q22.5 -1 31.5 -1 q15 0 20.5 5 q5.5 5 5.5 16 l0 267 l-406 0 l-9 29 l415 0 l0 173 l-265 0 l-8 30 l473 0 l46 54 q0 0 14.5 -11 q14.5 -11 35 -26.5 q20.5 -15.5 36.5 -30.5 q-4 -16 -27 -16 l-239 0 l0 -173 l275 0 l48 61 Z" /><glyph glyph-name="" unicode="&#x5b99;" d="M437 839 q60 -13 90.5 -36 q30.5 -23 39 -46.5 q8.5 -23.5 1 -42 q-7.5 -18.5 -25 -23.5 q-17.5 -5 -38.5 10 q-4 34 -27 71 q-23 37 -50 60 l10 7 ZM169 733 q5 -13 7.5 -26.5 q2.5 -13.5 3.5 -25.5 l655 0 l45 44 l79 -77 q-9 -8 -39 -9 q-21 -26 -56 -58 q-35 -32 -64 -54 l-14 7 q12 24 26 56.5 q14 32.5 24 60.5 l-653 0 q0 -49 -17 -81 q-17 -32 -39 -47 q-19 -13 -43 -12 q-24 1 -33 20 q-7 17 2 32 q9 15 26 25 q29 16 53 55.5 q24 39.5 20 88.5 l17 1 ZM571 605 q-3 -22 -36 -26 l0 -125 l207 0 l37 41 l81 -63 q-11 -13 -43 -19 l0 -460 q-1 -4 -20 -13 q-19 -9 -36 -9 l-9 0 l0 64 l-500 0 l0 -49 q0 -5 -16 -13.5 q-16 -8.5 -37 -8.5 l-11 0 l0 563 l70 -33 l212 0 l0 163 l101 -12 ZM752 425 l-217 0 l0 -176 l217 0 l0 176 ZM752 24 l0 196 l-217 0 l0 -196 l217 0 ZM470 425 l-218 0 l0 -176 l218 0 l0 176 ZM252 24 l218 0 l0 196 l-218 0 l0 -196 Z" /><glyph glyph-name="" unicode="&#x5b9e;" d="M437 839 q60 -13 90.5 -36 q30.5 -23 39 -46.5 q8.5 -23.5 1 -42 q-7.5 -18.5 -25 -23.5 q-17.5 -5 -38.5 10 q-4 34 -27 71 q-23 37 -50 60 l10 7 ZM183 452 q73 -15 114.5 -38.5 q41.5 -23.5 58 -48.5 q16.5 -25 13.5 -45 q-3 -20 -18.5 -28 q-15.5 -8 -38.5 4 q-11 25 -34.5 52 q-23.5 27 -51 52.5 q-27.5 25.5 -52.5 42.5 l9 9 ZM263 600 q68 -14 106.5 -36 q38.5 -22 53.5 -45 q15 -23 11.5 -41 q-3.5 -18 -18.5 -25 q-15 -7 -37 4 q-11 21 -33 46 q-22 25 -46.5 48.5 q-24.5 23.5 -46.5 39.5 l10 9 ZM169 733 q5 -14 7.5 -27.5 q2.5 -13.5 3.5 -25.5 l655 0 l44 44 l80 -76 q-6 -5 -14.5 -6.5 q-8.5 -1.5 -24.5 -2.5 q-19 -27 -50.5 -59.5 q-31.5 -32.5 -59.5 -54.5 l-12 8 q9 23 20.5 56 q11.5 33 19.5 61 l-655 0 q0 -48 -17 -79.5 q-17 -31.5 -40 -46.5 q-19 -13 -43 -11.5 q-24 1.5 -33 20.5 q-6 17 3 32 q9 15 25 25 q30 16 54 55 q24 39 20 87 l17 1 ZM853 318 q0 0 15.5 -13 q15.5 -13 37.5 -31 q22 -18 39 -35 q-3 -16 -27 -16 l-379 0 q-4 -12 -10 -24 q-6 -12 -12 -24 q110 -24 182.5 -53.5 q72.5 -29.5 115 -60 q42.5 -30.5 60.5 -57.5 q18 -27 16.5 -46 q-1.5 -19 -15 -26 q-13.5 -7 -34.5 3 q-24 32 -71.5 71.5 q-47.5 39.5 -114 79.5 q-66.5 40 -149.5 73 q-33 -52 -90.5 -95.5 q-57.5 -43.5 -147.5 -79 q-90 -35.5 -221 -64.5 l-8 19 q132 35 218 77 q86 42 136.5 93.5 q50.5 51.5 75.5 113.5 l-394 0 l-9 30 l414 0 q23 74 25.5 164 q2.5 90 2.5 197 l104 -10 q-1 -10 -9 -17.5 q-8 -7.5 -25 -9.5 q-2 -94 -6 -175 q-4 -81 -24 -149 l254 0 l50 65 Z" /><glyph glyph-name="" unicode="&#x5bc2;" d="M430 842 q57 -8 87 -26.5 q30 -18.5 39 -39.5 q9 -21 2.5 -38.5 q-6.5 -17.5 -23 -23 q-16.5 -5.5 -36.5 7.5 q-6 29 -29.5 61 q-23.5 32 -49.5 51 l10 8 ZM229 236 q-3 -7 -12 -13 q-9 -6 -25 -6 q-25 -64 -61.5 -120.5 q-36.5 -56.5 -77.5 -94.5 l-14 10 q29 47 54.5 114.5 q25.5 67.5 41.5 139.5 l94 -30 ZM393 257 q56 -29 84 -61.5 q28 -32.5 35 -61.5 q7 -29 -0.5 -48.5 q-7.5 -19.5 -24 -24 q-16.5 -4.5 -34.5 12.5 q-1 29 -12 61.5 q-11 32.5 -27 62.5 q-16 30 -33 53 l12 6 ZM165 754 q7 -23 10 -47 l660 0 l42 43 l76 -74 q-5 -5 -14.5 -6.5 q-9.5 -1.5 -23.5 -3.5 q-18 -25 -46 -55.5 q-28 -30.5 -54 -50.5 l-13 7 q9 22 19.5 53 q10.5 31 17.5 58 l-661 0 q2 -49 -15.5 -82 q-17.5 -33 -38.5 -48 q-18 -13 -40.5 -13 q-22.5 0 -31.5 16 q-7 17 1 31 q8 14 23 23 q31 16 53 57.5 q22 41.5 18 90.5 l18 1 ZM350 634 q-1 -10 -8.5 -16.5 q-7.5 -6.5 -24.5 -8.5 l0 -93 l76 0 l39 49 q0 0 12.5 -10 q12.5 -10 29.5 -24.5 q17 -14.5 31 -28.5 q-4 -16 -26 -16 l-162 0 l0 -133 l116 0 l43 52 q0 0 13.5 -10.5 q13.5 -10.5 31.5 -25.5 q18 -15 33 -30 q-4 -16 -26 -16 l-203 0 l0 -311 q0 -25 -6.5 -44.5 q-6.5 -19.5 -27.5 -32 q-21 -12.5 -64 -17.5 q-1 14 -5.5 26 q-4.5 12 -12.5 20 q-10 8 -28.5 13 q-18.5 5 -50.5 9 l0 15 q0 0 14 -1 q14 -1 34 -2 q20 -1 37.5 -2 q17.5 -1 24.5 -1 q13 0 17.5 4 q4.5 4 4.5 14 l0 310 l-190 0 l-8 30 l190 0 l0 291 l96 -10 ZM580 488 l-44 0 l-9 29 l289 0 l42 41 l71 -66 q-5 -7 -14.5 -9 q-9.5 -2 -26.5 -4 q-22 -91 -56 -172.5 q-34 -81.5 -87 -150.5 q47 -58 106 -101.5 q59 -43.5 130 -74.5 l-3 -10 q-45 -2 -65 -49 q-64 36 -115 83.5 q-51 47.5 -91 106.5 q-57 -61 -136 -109 q-79 -48 -186 -81 l-9 16 q101 40 176 95.5 q75 55.5 128 124.5 q-37 68 -61.5 150.5 q-24.5 82.5 -38.5 180.5 ZM602 488 q30 -167 110 -286 q40 63 66.5 135 q26.5 72 42.5 151 l-219 0 Z" /><glyph glyph-name="" unicode="&#x5bf9;" d="M487 455 q68 -30 105 -66.5 q37 -36.5 49.5 -70.5 q12.5 -34 7.5 -59 q-5 -25 -21 -32.5 q-16 -7.5 -36 10.5 q-9 29 -23.5 66 q-14.5 37 -37 75 q-22.5 38 -54.5 67 l10 10 ZM878 652 q0 0 14 -12.5 q14 -12.5 33 -30 q19 -17.5 33 -33.5 q-4 -16 -26 -16 l-128 0 l0 -538 q0 -26 -7 -47 q-7 -21 -31.5 -34 q-24.5 -13 -75.5 -18 q-2 15 -8 27.5 q-6 12.5 -18 21.5 q-13 9 -36.5 16 q-23.5 7 -63.5 11 l0 15 q0 0 19 -1 q19 -1 45.5 -3 q26.5 -2 50 -3 q23.5 -1 32.5 -1 q17 0 22.5 5 q5.5 5 5.5 17 l0 532 l-292 0 l-8 29 l300 0 l0 244 l102 -12 q-2 -10 -10.5 -17 q-8.5 -7 -26.5 -9 l0 -206 l29 0 l45 63 ZM114 577 q53 -42 97.5 -86 q44.5 -44 81.5 -88 q27 71 47 142 q20 71 33 140 l-316 0 l-9 30 l321 0 l40 42 l73 -68 q-5 -7 -14 -9.5 q-9 -2.5 -26 -4.5 q-17 -79 -42.5 -162.5 q-25.5 -83.5 -62.5 -164.5 q30 -40 53 -79 q23 -39 39 -74 q23 -50 24.5 -84 q1.5 -34 -9.5 -49 q-11 -15 -28 -7.5 q-17 7.5 -31 40.5 q-10 39 -30.5 88.5 q-20.5 49.5 -47.5 101.5 q-48 -92 -112.5 -175.5 q-64.5 -83.5 -150.5 -151.5 l-15 12 q77 77 137.5 174.5 q60.5 97.5 104.5 203.5 q-35 60 -78.5 117 q-43.5 57 -92.5 102 l14 10 Z" /><glyph glyph-name="" unicode="&#x5bfb;" d="M234 252 q78 -20 122.5 -50 q44.5 -30 62.5 -60 q18 -30 15 -53.5 q-3 -23.5 -19.5 -32 q-16.5 -8.5 -39.5 5.5 q-10 32 -35 65.5 q-25 33.5 -56 64 q-31 30.5 -60 51.5 l10 9 ZM764 619 l0 129 l-604 0 l-9 29 l603 0 l37 40 l80 -61 q-9 -12 -41 -19 l0 -317 q-1 -5 -20 -13.5 q-19 -8.5 -36 -8.5 l-10 0 l0 39 l-613 0 l-9 30 l622 0 l0 123 l-561 0 l-9 29 l570 0 ZM885 368 q0 0 15.5 -12 q15.5 -12 36.5 -29.5 q21 -17.5 38 -33.5 q-4 -16 -26 -16 l-220 0 l0 -255 q0 -27 -7 -48 q-7 -21 -31.5 -33.5 q-24.5 -12.5 -75.5 -17.5 q-3 16 -8.5 28.5 q-5.5 12.5 -17.5 20.5 q-13 8 -36 14.5 q-23 6.5 -62 11.5 l0 15 q0 0 19 -1 q19 -1 45 -3 q26 -2 49 -3 q23 -1 32 -1 q15 0 20.5 5 q5.5 5 5.5 16 l0 251 l-604 0 l-8 29 l612 0 l0 100 l102 -11 q-4 -21 -35 -25 l0 -64 l107 0 l49 62 Z" /><glyph glyph-name="" unicode="&#x2f29;&#x5c0f;" d="M667 574 q106 -67 166.5 -132.5 q60.5 -65.5 85.5 -121.5 q25 -56 23.5 -94.5 q-1.5 -38.5 -20 -51 q-18.5 -12.5 -45.5 9.5 q-6 47 -28.5 98.5 q-22.5 51.5 -54.5 103 q-32 51.5 -68.5 98 q-36.5 46.5 -72.5 83.5 l14 7 ZM251 580 l107 -38 q-3 -9 -11 -13 q-8 -4 -27 -3 q-24 -59 -62.5 -127.5 q-38.5 -68.5 -91.5 -133 q-53 -64.5 -120 -113.5 l-11 12 q54 56 96.5 128 q42.5 72 73 147.5 q30.5 75.5 46.5 140.5 ZM469 825 l107 -12 q-2 -10 -10 -17.5 q-8 -7.5 -27 -9.5 l0 -756 q0 -29 -8 -51 q-8 -22 -34.5 -36 q-26.5 -14 -82.5 -20 q-2 18 -8.5 31.5 q-6.5 13.5 -20.5 22.5 q-15 9 -40.5 16 q-25.5 7 -69.5 13 l0 16 q0 0 21.5 -1.5 q21.5 -1.5 51 -4 q29.5 -2.5 56 -4 q26.5 -1.5 36.5 -1.5 q17 0 23 6 q6 6 6 19 l0 789 Z" /><glyph glyph-name="" unicode="&#x5c11;" d="M834 344 q-6 -8 -15 -10.5 q-9 -2.5 -29 1.5 q-67 -107 -143 -179 q-76 -72 -163.5 -117.5 q-87.5 -45.5 -188 -73 q-100.5 -27.5 -215.5 -44.5 l-4 20 q106 24 200.5 57 q94.5 33 177.5 83 q83 50 154 126 q71 76 130 187 l96 -50 ZM377 651 q-4 -8 -12 -12 q-8 -4 -27 -2 q-26 -59 -66.5 -128.5 q-40.5 -69.5 -94 -136.5 q-53.5 -67 -118.5 -120 l-11 11 q52 60 96.5 135 q44.5 75 78 151.5 q33.5 76.5 52.5 140.5 l102 -39 ZM662 685 q101 -52 160 -103.5 q59 -51.5 85 -95 q26 -43.5 27.5 -73 q1.5 -29.5 -14.5 -39.5 q-16 -10 -41 6 q-13 35 -38.5 74.5 q-25.5 39.5 -57.5 79.5 q-32 40 -66.5 77 q-34.5 37 -65.5 65 l11 9 ZM573 822 q-2 -10 -10 -17 q-8 -7 -27 -9 l0 -532 q0 -8 -18 -20 q-18 -12 -38 -12 l-11 0 l0 601 l104 -11 Z" /><glyph glyph-name="" unicode="&#x5c31;" d="M212 837 q55 -16 84 -38 q29 -22 37.5 -44.5 q8.5 -22.5 2.5 -39.5 q-6 -17 -22 -22 q-16 -5 -35 8 q-7 32 -31 68.5 q-24 36.5 -47 59.5 l11 8 ZM227 234 q-3 -8 -12 -14 q-9 -6 -25 -5 q-25 -60 -61 -111 q-36 -51 -78 -86 l-14 9 q29 44 55.5 106 q26.5 62 42.5 131 l92 -30 ZM370 262 q56 -27 84.5 -57.5 q28.5 -30.5 36 -57.5 q7.5 -27 0.5 -45 q-7 -18 -23 -22.5 q-16 -4.5 -34 11.5 q-4 41 -27 87 q-23 46 -49 77 l12 7 ZM762 785 q56 -19 85.5 -43.5 q29.5 -24.5 38 -47.5 q8.5 -23 2.5 -39.5 q-6 -16.5 -21 -21 q-15 -4.5 -33 9.5 q-7 33 -32.5 71.5 q-25.5 38.5 -50.5 63.5 l11 7 ZM474 738 q0 0 15 -12 q15 -12 36 -29 q21 -17 37 -33 q-4 -16 -27 -16 l-487 0 l-8 30 l387 0 l47 60 ZM879 614 q0 0 14.5 -11.5 q14.5 -11.5 34.5 -28 q20 -16.5 36 -32.5 q-3 -16 -25 -16 l-170 0 l0 -502 q0 -12 4.5 -16.5 q4.5 -4.5 21.5 -4.5 l47 0 q17 0 29 0 q12 0 17 1 q5 1 8.5 3.5 q3.5 2.5 5.5 9.5 q4 9 9 34 q5 25 10.5 58.5 q5.5 33.5 9.5 65.5 l13 0 l3 -163 q15 -7 20 -13.5 q5 -6.5 5 -14.5 q0 -20 -26.5 -30 q-26.5 -10 -103.5 -10 l-62 0 q-45 0 -58.5 14.5 q-13.5 14.5 -13.5 48.5 l0 519 l-25 0 q-4 -94 -18 -179.5 q-14 -85.5 -43.5 -161.5 q-29.5 -76 -81.5 -142 q-52 -66 -133 -122 l-13 16 q88 75 135 165.5 q47 90.5 66.5 196.5 q19.5 106 23.5 227 l-102 0 l-8 30 l111 0 q2 65 1.5 135.5 q-0.5 70.5 -0.5 143.5 l103 -11 q-3 -10 -10.5 -17 q-7.5 -7 -25.5 -10 q-1 -63 -1.5 -123.5 q-0.5 -60.5 -2.5 -117.5 l149 0 l46 58 ZM403 530 l-233 0 l0 -156 l233 0 l0 156 ZM319 16 q0 -25 -6.5 -45 q-6.5 -20 -26.5 -32.5 q-20 -12.5 -61 -17.5 q-1 14 -4.5 26.5 q-3.5 12.5 -11.5 20.5 q-9 8 -26 14 q-17 6 -46 9 l0 16 q0 0 12.5 -1 q12.5 -1 30 -2.5 q17.5 -1.5 33.5 -2.5 q16 -1 22 -1 q13 0 17 4 q4 4 4 14 l0 326 l-86 0 l0 -27 q0 -4 -16 -12 q-16 -8 -36 -8 l-9 0 l0 293 l66 -30 l218 0 l35 37 l76 -58 q-10 -13 -39 -18 l0 -192 q-1 -5 -19 -13 q-18 -8 -34 -8 l-9 0 l0 36 l-84 0 l0 -328 Z" /><glyph glyph-name="" unicode="&#x5c42;" d="M766 514 q0 0 15 -12 q15 -12 36 -29 q21 -17 37 -33 q-4 -16 -27 -16 l-523 0 l-8 29 l422 0 l48 61 ZM869 351 q0 0 15 -12 q15 -12 36 -29 q21 -17 38 -33 q-4 -16 -27 -16 l-403 0 l77 -44 q-4 -7 -14 -11 q-10 -4 -26 0 q-28 -27 -68 -59.5 q-40 -32.5 -86 -64 q-46 -31.5 -92 -58.5 q57 3 134 7.5 q77 4.5 168 11 q91 6.5 188 13.5 q-28 34 -60 65 q-32 31 -59 55 l11 9 q89 -39 141.5 -79.5 q52.5 -40.5 75.5 -76.5 q23 -36 23 -61.5 q0 -25.5 -15.5 -34 q-15.5 -8.5 -38.5 5.5 q-9 22 -25 46.5 q-16 24.5 -36 49.5 q-97 -15 -234 -34 q-137 -19 -299 -39 q-4 -10 -10.5 -15.5 q-6.5 -5.5 -13.5 -7.5 l-33 84 q0 0 10.5 2 q10.5 2 16.5 6 q33 18 68 46 q35 28 68.5 61.5 q33.5 33.5 62 65.5 q28.5 32 46.5 57 l-270 0 l-8 29 l591 0 l48 61 ZM224 605 l584 0 l0 146 l-584 0 l0 -146 ZM159 790 l0 24 l77 -34 l562 0 l37 41 l82 -63 q-5 -6 -17 -11 q-12 -5 -26 -8 l0 -183 q-1 -4 -20 -12.5 q-19 -8.5 -36 -8.5 l-10 0 l0 41 l-584 0 l0 -106 q0 -69 -5 -142.5 q-5 -73.5 -21.5 -146 q-16.5 -72.5 -51.5 -139.5 q-35 -67 -96 -123 l-15 11 q56 75 82 163 q26 88 34 183.5 q8 95.5 8 192.5 l0 321 Z" /><glyph glyph-name="" unicode="&#x2f30;&#x5df1;" d="M141 457 l0 33 l79 -33 l509 0 l0 276 l-591 0 l-9 30 l589 0 l37 42 l87 -65 q-6 -7 -18 -13.5 q-12 -6.5 -29 -9.5 l0 -352 q-1 -4 -20.5 -13 q-19.5 -9 -35.5 -9 l-10 0 l0 85 l-522 0 l0 -363 q0 -29 27 -38 q27 -9 74 -9 l422 0 q56 0 80.5 6.5 q24.5 6.5 35.5 28.5 q7 14 15 43 q8 29 15.5 64.5 q7.5 35.5 12.5 65.5 l14 0 l1 -186 q26 -7 35.5 -12.5 q9.5 -5.5 9.5 -16.5 q0 -17 -18 -29.5 q-18 -12.5 -64 -19 q-46 -6.5 -131 -6.5 l-423 0 q-86 0 -129 22.5 q-43 22.5 -43 88.5 l0 390 Z" /><glyph glyph-name="" unicode="&#x5df2;" d="M93 751 l634 0 l38 42 l87 -65 q-6 -7 -18 -13.5 q-12 -6.5 -29 -9.5 l0 -340 q-1 -5 -20.5 -14 q-19.5 -9 -36.5 -9 l-10 0 l0 81 l-519 0 l0 -356 q0 -31 27.5 -40.5 q27.5 -9.5 78.5 -9.5 l392 0 q56 0 81.5 6.5 q25.5 6.5 36.5 29.5 q7 14 15 43.5 q8 29.5 16.5 65 q8.5 35.5 13.5 65.5 l12 0 l1 -187 q26 -7 36 -12.5 q10 -5.5 10 -16.5 q0 -17 -18 -29.5 q-18 -12.5 -65 -19.5 q-47 -7 -134 -7 l-391 0 q-88 0 -133 24 q-45 24 -45 90 l0 534 l99 -10 q-2 -10 -9 -17 q-7 -7 -24 -9 l0 -115 l519 0 l0 269 l-636 0 l-9 30 Z" /><glyph glyph-name="" unicode="&#x5e02;" d="M406 839 q65 -14 100.5 -37.5 q35.5 -23.5 47.5 -48.5 q12 -25 6.5 -44.5 q-5.5 -19.5 -22.5 -26.5 q-17 -7 -39 7 q-10 38 -40.5 77.5 q-30.5 39.5 -62.5 64.5 l10 8 ZM866 739 q0 0 16 -12.5 q16 -12.5 38 -30 q22 -17.5 39 -34.5 q-3 -16 -26 -16 l-402 0 l0 -138 l217 0 l34 41 l85 -64 q-11 -13 -43 -19 l0 -320 q0 -25 -6.5 -44 q-6.5 -19 -28.5 -31 q-22 -12 -69 -17 q-2 14 -7 26 q-5 12 -16 20 q-10 8 -30 14 q-20 6 -54 9 l0 16 q0 0 15.5 -1 q15.5 -1 37 -2.5 q21.5 -1.5 41 -2.5 q19.5 -1 28.5 -1 q14 0 18.5 5 q4.5 5 4.5 15 l0 326 l-227 0 l0 -534 q0 -4 -15 -13 q-15 -9 -41 -9 l-11 0 l0 556 l-223 0 l0 -399 q0 -5 -16.5 -13 q-16.5 -8 -37.5 -8 l-11 0 l0 483 l71 -33 l217 0 l0 138 l-412 0 l-9 29 l771 0 l52 64 Z" /><glyph glyph-name="" unicode="&#x5e03;" d="M511 592 l98 -10 q-2 -10 -9 -16 q-7 -6 -24 -9 l0 -114 l193 0 l33 41 l84 -62 q-10 -13 -43 -20 l0 -309 q0 -25 -6.5 -45 q-6.5 -20 -28 -32.5 q-21.5 -12.5 -68.5 -17.5 q-2 16 -7 29 q-5 13 -14 20 q-11 8 -31 14.5 q-20 6.5 -53 10.5 l0 17 q0 0 15.5 -1 q15.5 -1 37 -3 q21.5 -2 40.5 -3 q19 -1 27 -1 q14 0 19 5 q5 5 5 16 l0 312 l-203 0 l0 -469 q0 -7 -17 -15.5 q-17 -8.5 -35 -8.5 l-13 0 l0 493 l-193 0 l0 -397 q0 -4 -14.5 -13.5 q-14.5 -9.5 -37.5 -9.5 l-11 0 l0 412 q-44 -52 -96 -97.5 q-52 -45.5 -114 -83.5 l-10 11 q99 78 174 183 q75 105 124 217 l-273 0 l-8 29 l294 0 q38 91 59 177 l106 -32 q-3 -9 -11.5 -13.5 q-8.5 -4.5 -28.5 -3.5 q-22 -64 -51 -128 l391 0 l51 64 q0 0 16 -12.5 q16 -12.5 38 -30.5 q22 -18 40 -34 q-4 -16 -28 -16 l-522 0 q-22 -45 -49.5 -90 q-27.5 -45 -59.5 -88 l34 -15 l180 0 l0 149 Z" /><glyph glyph-name="" unicode="&#x5e76;" d="M257 834 q69 -28 106.5 -61 q37.5 -33 50.5 -63.5 q13 -30.5 8.5 -52.5 q-4.5 -22 -21 -29 q-16.5 -7 -37.5 8 q-5 32 -24 67 q-19 35 -44.5 67.5 q-25.5 32.5 -50.5 56.5 l12 7 ZM672 841 l106 -30 q-4 -9 -12.5 -14.5 q-8.5 -5.5 -25.5 -4.5 q-25 -40 -64 -86.5 q-39 -46.5 -79 -86.5 l189 0 l49 61 q0 0 15.5 -12.5 q15.5 -12.5 37 -29.5 q21.5 -17 38.5 -33 q-4 -16 -25 -16 l-210 0 l0 -238 l125 0 l51 63 q0 0 15.5 -12 q15.5 -12 37.5 -29.5 q22 -17.5 39 -34.5 q-3 -16 -27 -16 l-241 0 l0 -379 q0 -4 -15.5 -12.5 q-15.5 -8.5 -41.5 -8.5 l-11 0 l0 400 l-250 0 q-3 -59 -18 -116 q-15 -57 -49 -109.5 q-34 -52.5 -95.5 -97.5 q-61.5 -45 -157.5 -80 l-10 14 q102 53 157.5 114.5 q55.5 61.5 78 130.5 q22.5 69 26.5 144 l-252 0 l-8 29 l261 0 l0 17 l0 221 l-215 0 l-8 30 l485 0 q29 49 57.5 110.5 q28.5 61.5 46.5 111.5 ZM623 351 l0 238 l-249 0 l0 -219 l0 -19 l249 0 Z" /><glyph glyph-name="" unicode="&#x5e78;" d="M275 515 q59 -22 88 -50 q29 -28 36 -54 q7 -26 -2 -44.5 q-9 -18.5 -27 -22.5 q-18 -4 -38 13 q-3 39 -23.5 81.5 q-20.5 42.5 -44.5 70.5 l11 6 ZM800 402 q0 0 15.5 -12 q15.5 -12 37.5 -29.5 q22 -17.5 39 -33.5 q-4 -16 -27 -16 l-332 0 l0 -159 l261 0 l51 62 q0 0 16 -12 q16 -12 37.5 -29.5 q21.5 -17.5 39.5 -34.5 q-4 -16 -27 -16 l-378 0 l0 -181 q0 -4 -15 -11.5 q-15 -7.5 -41 -7.5 l-11 0 l0 200 l-391 0 l-9 30 l400 0 l0 159 l-331 0 l-9 29 l462 0 q21 39 40.5 88 q19.5 49 30.5 89 l110 -26 q-3 -8 -12 -14 q-9 -6 -26 -6 q-19 -30 -50.5 -65.5 q-31.5 -35.5 -63.5 -65.5 l132 0 l51 62 ZM867 614 q0 0 16.5 -12.5 q16.5 -12.5 38.5 -30 q22 -17.5 40 -34.5 q-4 -16 -27 -16 l-888 0 l-8 30 l427 0 l0 135 l-318 0 l-8 30 l326 0 l0 122 l100 -10 q-1 -10 -8.5 -16.5 q-7.5 -6.5 -24.5 -9.5 l0 -86 l190 0 l49 62 q0 0 16 -12.5 q16 -12.5 38 -30 q22 -17.5 39 -33.5 q-4 -16 -26 -16 l-306 0 l0 -135 l283 0 l51 63 Z" /><glyph glyph-name="" unicode="&#x5ea6;" d="M449 851 q60 -10 92.5 -30 q32.5 -20 43.5 -42 q11 -22 5.5 -39 q-5.5 -17 -22 -23.5 q-16.5 -6.5 -37.5 6.5 q-11 29 -38.5 64 q-27.5 35 -53.5 57 l10 7 ZM866 770 q0 0 15.5 -12 q15.5 -12 36.5 -29.5 q21 -17.5 37 -33.5 q-1 -8 -8.5 -12 q-7.5 -4 -17.5 -4 l-724 0 l0 -222 q0 -63 -4 -133.5 q-4 -70.5 -19 -142 q-15 -71.5 -46.5 -139 q-31.5 -67.5 -85.5 -124.5 l-16 11 q48 78 70.5 165.5 q22.5 87.5 29 179.5 q6.5 92 6.5 182 l0 286 l77 -34 l600 0 l49 62 ZM708 272 l48 40 l70 -66 q-11 -11 -46 -12 q-68 -97 -173 -163 q75 -32 166 -50.5 q91 -18.5 194 -26.5 l0 -11 q-47 -10 -56 -60 q-109 17 -199 44.5 q-90 27.5 -161 71.5 q-82 -43 -183.5 -72 q-101.5 -29 -220.5 -44 l-6 17 q106 21 198.5 53 q92.5 32 168.5 76 q-44 34 -79.5 77 q-35.5 43 -61.5 97 l-79 0 l-9 29 l429 0 ZM702 243 l-310 0 q29 -46 70 -82 q41 -36 91 -64 q93 62 149 146 ZM481 640 q-1 -10 -9 -17 q-8 -7 -27 -9 l0 -73 l215 0 l0 110 l100 -11 q-3 -22 -36 -26 l0 -73 l82 0 l45 58 q0 0 13.5 -11.5 q13.5 -11.5 32.5 -28 q19 -16.5 34 -32.5 q-3 -16 -26 -16 l-181 0 l0 -174 q0 -6 -16.5 -13.5 q-16.5 -7.5 -35.5 -7.5 l-12 0 l0 44 l-215 0 l0 -35 q0 -6 -16.5 -13.5 q-16.5 -7.5 -34.5 -7.5 l-12 0 l0 207 l-146 0 l-8 30 l154 0 l0 110 l99 -11 ZM660 511 l-215 0 l0 -121 l215 0 l0 121 Z" /><glyph glyph-name="" unicode="&#x5ef6;" d="M918 762 q-14 -14 -50 1 q-72 -21 -169 -41 l0 -232 l95 0 l45 61 q0 0 15 -12 q15 -12 34.5 -29.5 q19.5 -17.5 34.5 -33.5 q-3 -16 -26 -16 l-198 0 l0 -272 l123 0 l48 63 q0 0 15 -12.5 q15 -12.5 35.5 -30 q20.5 -17.5 37.5 -34.5 q-4 -16 -26 -16 l-417 0 l-23 -36 l-72 49 q10 10 28 20 l0 376 l98 -11 q-3 -21 -37 -27 l0 -341 l126 0 l0 522 q-59 -10 -121 -17.5 q-62 -7.5 -123 -11.5 l-4 18 q60 10 124.5 25 q64.5 15 126 33 q61.5 18 114.5 36.5 q53 18.5 90 36.5 l76 -68 ZM88 355 q47 -136 120 -210 q31 65 48 136 q17 71 26 147 l-111 0 l-28 -25 l-61 50 q7 5 17 9 q10 4 20 7 q19 34 41.5 77.5 q22.5 43.5 44.5 88 q22 44.5 37 80.5 l-185 0 l-9 30 l195 0 l37 37 l76 -67 q-7 -7 -21 -10.5 q-14 -3.5 -31 -4.5 q-15 -32 -36.5 -75 q-21.5 -43 -45 -87 q-23.5 -44 -43.5 -81 l97 0 l38 39 l70 -62 q-9 -12 -38 -13 q-13 -82 -35.5 -161 q-22.5 -79 -64.5 -148 q80 -60 195 -78.5 q115 -18.5 275 -18.5 q22 0 54 0 q32 0 68 0 q36 0 69.5 0.5 q33.5 0.5 58.5 0.5 l0 -13 q-44 -8 -46 -53 q-24 0 -64 0 q-40 0 -80.5 0 q-40.5 0 -66.5 0 q-113 0 -203 10.5 q-90 10.5 -160 38 q-70 27.5 -124 78.5 q-32 -44 -75.5 -82.5 q-43.5 -38.5 -101.5 -69.5 l-10 14 q51 36 89.5 79.5 q38.5 43.5 65.5 92.5 q-69 84 -117 236 l15 8 Z" /><glyph glyph-name="" unicode="&#x5f00;" d="M832 811 q0 0 14.5 -11.5 q14.5 -11.5 34.5 -28 q20 -16.5 36 -32.5 q-3 -16 -26 -16 l-201 0 l0 -308 l150 0 l46 62 q0 0 14.5 -12 q14.5 -12 34.5 -29.5 q20 -17.5 36 -33.5 q-4 -16 -26 -16 l-255 0 l0 -439 q0 -4 -15.5 -13.5 q-15.5 -9.5 -41.5 -9.5 l-11 0 l0 462 l-250 0 q-3 -69 -18 -135 q-15 -66 -49.5 -125.5 q-34.5 -59.5 -96 -110.5 q-61.5 -51 -157.5 -91 l-11 14 q104 60 160 129.5 q56 69.5 78.5 149.5 q22.5 80 25.5 169 l-257 0 l-8 29 l266 0 l0 19 l0 289 l-218 0 l-9 30 l707 0 l47 58 ZM373 436 l0 -21 l249 0 l0 308 l-249 0 l0 -287 Z" /><glyph glyph-name="" unicode="&#x5f03;" d="M438 849 q57 -19 86 -43 q29 -24 37.5 -47.5 q8.5 -23.5 1.5 -40.5 q-7 -17 -23.5 -21.5 q-16.5 -4.5 -35.5 9.5 q-6 34 -29.5 72.5 q-23.5 38.5 -47.5 63.5 l11 7 ZM866 750 q0 0 14.5 -11.5 q14.5 -11.5 34.5 -28 q20 -16.5 36 -31.5 q-4 -16 -26 -16 l-469 0 l88 -33 q-3 -7 -13.5 -12.5 q-10.5 -5.5 -30.5 -3.5 q-31 -22 -74.5 -47.5 q-43.5 -25.5 -92 -50 q-48.5 -24.5 -96.5 -44.5 q60 2 141.5 6 q81.5 4 178 9.5 q96.5 5.5 198.5 11.5 q-26 28 -55.5 52.5 q-29.5 24.5 -55.5 41.5 l10 10 q84 -25 133 -56.5 q49 -31.5 70.5 -62.5 q21.5 -31 22 -55 q0.5 -24 -14 -33.5 q-14.5 -9.5 -37.5 2.5 q-7 20 -21.5 40.5 q-14.5 20.5 -32.5 40.5 q-101 -14 -247 -33 q-146 -19 -320 -38 q-7 -11 -17 -16 l-42 82 q0 0 17 2.5 q17 2.5 24 6.5 q30 13 64.5 35 q34.5 22 68.5 48 q34 26 63.5 51.5 q29.5 25.5 48.5 45.5 l-370 0 l-9 29 l764 0 l47 58 ZM868 325 q0 0 15.5 -12 q15.5 -12 37 -29.5 q21.5 -17.5 38.5 -33.5 q-4 -16 -27 -16 l-234 0 l0 -290 q0 -7 -16.5 -15 q-16.5 -8 -36.5 -8 l-12 0 l0 313 l-249 0 q-4 -46 -20 -91 q-16 -45 -50.5 -86.5 q-34.5 -41.5 -94.5 -76 q-60 -34.5 -152 -59.5 l-9 15 q99 37 154 84.5 q55 47.5 79 102 q24 54.5 28 111.5 l-269 0 l-9 29 l279 0 l0 10 l0 142 l99 -10 q-1 -10 -8 -16.5 q-7 -6.5 -25 -8.5 l0 -109 l0 -8 l247 0 l0 150 l102 -12 q-1 -10 -9 -17 q-8 -7 -28 -9 l0 -112 l120 0 l50 62 Z" /><glyph glyph-name="" unicode="&#x5f53;" d="M875 734 q-9 -19 -39 -15 q-41 -60 -90.5 -117.5 q-49.5 -57.5 -95.5 -98.5 l-15 10 q32 49 70 121 q38 72 69 145 l101 -45 ZM152 773 q78 -41 122 -83.5 q44 -42.5 61 -79 q17 -36.5 13.5 -62 q-3.5 -25.5 -20 -33 q-16.5 -7.5 -39.5 9.5 q-10 39 -34.5 82.5 q-24.5 43.5 -55.5 85 q-31 41.5 -59 72.5 l12 8 ZM569 826 q-1 -10 -9.5 -17.5 q-8.5 -7.5 -27.5 -10.5 l0 -326 l237 0 l38 42 l82 -64 q-12 -14 -44 -20 l0 -484 q-1 -5 -19.5 -14.5 q-18.5 -9.5 -36.5 -9.5 l-10 0 l0 69 l-677 0 l-9 29 l686 0 l0 203 l-617 0 l-9 29 l626 0 l0 191 l-671 0 l-9 29 l367 0 l0 365 l103 -11 Z" /><glyph glyph-name="" unicode="&#x5f81;" d="M247 835 l93 -48 q-4 -7 -12 -10.5 q-8 -3.5 -25 0.5 q-27 -33 -67.5 -72 q-40.5 -39 -88 -75.5 q-47.5 -36.5 -97.5 -65.5 l-12 12 q42 36 82 81.5 q40 45.5 73.5 92.5 q33.5 47 53.5 85 ZM265 633 l96 -46 q-4 -8 -12.5 -11.5 q-8.5 -3.5 -26.5 0.5 q-17 -27 -39.5 -57 q-22.5 -30 -49.5 -61 l36 -14 q-6 -13 -30 -18 l0 -481 q-1 -5 -17 -14.5 q-16 -9.5 -35 -9.5 l-13 0 l0 472 q-31 -32 -65.5 -62 q-34.5 -30 -70.5 -56 l-11 12 q49 49 95 110 q46 61 83.5 123 q37.5 62 59.5 113 ZM409 517 l100 -11 q-1 -10 -9.5 -17 q-8.5 -7 -27.5 -11 l0 -488 l141 0 l0 721 l-255 0 l-8 30 l475 0 l47 58 q0 0 14.5 -11.5 q14.5 -11.5 34.5 -28 q20 -16.5 36 -32.5 q-4 -16 -27 -16 l-252 0 l0 -316 l128 0 l45 58 q0 0 14.5 -11.5 q14.5 -11.5 34.5 -28 q20 -16.5 36 -31.5 q-4 -16 -27 -16 l-231 0 l0 -376 l166 0 l46 59 q0 0 15 -12 q15 -12 35.5 -28.5 q20.5 -16.5 35.5 -32.5 q-3 -15 -25 -15 l-660 0 l-8 29 l126 0 l0 527 Z" /><glyph glyph-name="" unicode="&#x5f88;" d="M354 781 q-4 -7 -12.5 -10 q-8.5 -3 -25.5 1 q-30 -35 -73.5 -76 q-43.5 -41 -95.5 -80 q-52 -39 -106 -70 l-11 13 q45 38 90 86.5 q45 48.5 82.5 98 q37.5 49.5 60.5 89.5 l91 -52 ZM933 300 q-9 -11 -29 -4 q-18 -15 -47.5 -36 q-29.5 -21 -64.5 -43 q-35 -22 -70 -40 q47 -64 108.5 -112 q61.5 -48 136.5 -74 l-1 -11 q-19 -4 -34.5 -18 q-15.5 -14 -22.5 -38 q-129 65 -204 184 q-75 119 -112 288 l-110 0 l0 -376 q39 14 86 32 q47 18 96 37 l6 -14 q-35 -21 -96.5 -57.5 q-61.5 -36.5 -132.5 -74.5 q-4 -10 -11 -15.5 q-7 -5.5 -12 -8.5 l-34 72 q23 11 28.5 19 q5.5 8 5.5 24 l0 781 l76 -38 l292 0 l37 41 l80 -63 q-5 -5 -16.5 -10.5 q-11.5 -5.5 -26.5 -8.5 l0 -353 q-1 -5 -19 -14 q-18 -9 -35 -9 l-10 0 l0 36 l-183 0 q35 -113 96 -202 q27 25 56 55 q29 30 54 58.5 q25 28.5 40 47.5 l73 -55 ZM483 718 l0 -114 l314 0 l0 144 l-314 0 l0 -30 ZM483 575 l0 -150 l314 0 l0 150 l-314 0 ZM283 446 q-4 -15 -30 -19 l0 -482 q-1 -5 -16.5 -14.5 q-15.5 -9.5 -35.5 -9.5 l-12 0 l0 466 q-33 -34 -69 -67 q-36 -33 -74 -62 l-11 12 q49 51 96 115 q47 64 85 128.5 q38 64.5 61 116.5 l95 -48 q-4 -7 -12 -10.5 q-8 -3.5 -27 -0.5 q-16 -25 -37 -54 q-21 -29 -46 -59 l33 -12 Z" /><glyph glyph-name="" unicode="&#x2f3c;&#x5fc3;" d="M435 831 q83 -46 129.5 -92 q46.5 -46 65 -86 q18.5 -40 15 -67 q-3.5 -27 -21 -35 q-17.5 -8 -41.5 10 q-10 42 -36.5 89.5 q-26.5 47.5 -59.5 93 q-33 45.5 -64 79.5 l13 8 ZM397 648 q-1 -10 -9 -17 q-8 -7 -25 -9 l0 -557 q0 -19 12 -27 q12 -8 54 -8 l141 0 q49 0 83 1 q34 1 50 3 q12 1 17 5 q5 4 9 11 q7 15 17 62 q10 47 21 108 l13 0 l3 -178 q19 -5 25.5 -11.5 q6.5 -6.5 6.5 -17.5 q0 -17 -19 -27.5 q-19 -10.5 -72 -15 q-53 -4.5 -156 -4.5 l-145 0 q-73 0 -99 17.5 q-26 17.5 -26 66.5 l0 609 l99 -11 ZM766 518 q80 -59 122.5 -117.5 q42.5 -58.5 57.5 -108.5 q15 -50 10.5 -84 q-4.5 -34 -21.5 -44.5 q-17 -10.5 -37 11.5 q-8 44 -25 103.5 q-17 59.5 -45.5 121 q-28.5 61.5 -72.5 109.5 l11 9 ZM175 533 q21 -87 17.5 -156.5 q-3.5 -69.5 -20 -119 q-16.5 -49.5 -35.5 -76.5 q-18 -27 -43.5 -38.5 q-25.5 -11.5 -40.5 2.5 q-13 11 -9.5 28.5 q3.5 17.5 15.5 33.5 q26 27 49 77.5 q23 50.5 36.5 115 q13.5 64.5 12.5 133.5 l18 0 Z" /><glyph glyph-name="" unicode="&#x5feb;" d="M190 838 l100 -10 q-2 -10 -9 -18 q-7 -8 -27 -11 l0 -853 q0 -7 -16.5 -15.5 q-16.5 -8.5 -34.5 -8.5 l-13 0 l0 916 ZM111 642 l18 0 q21 -77 13.5 -136 q-7.5 -59 -26.5 -87 q-12 -19 -34 -25 q-22 -6 -34 9 q-10 14 -5 29.5 q5 15.5 18 28.5 q14 16 26 45.5 q12 29.5 19 65.5 q7 36 5 70 ZM287 667 q45 -30 66.5 -60 q21.5 -30 25.5 -55.5 q4 -25.5 -4.5 -42.5 q-8.5 -17 -23.5 -20 q-15 -3 -31 13 q0 39 -14.5 84 q-14.5 45 -32.5 76 l14 5 ZM776 609 l-152 0 q-1 -68 -3.5 -129 q-2.5 -61 -9.5 -115 l165 0 l0 244 ZM558 828 l101 -11 q-1 -10 -9 -18 q-8 -8 -25 -10 l-1 -151 l142 0 l37 39 l78 -60 q-12 -14 -43 -20 l0 -232 l21 0 l40 59 q0 0 13 -12 q13 -12 31 -29 q18 -17 31 -32 q-4 -16 -25 -16 l-316 0 q16 -66 53.5 -126.5 q37.5 -60.5 107 -111 q69.5 -50.5 181.5 -88.5 l-2 -12 q-25 -4 -40.5 -14.5 q-15.5 -10.5 -20.5 -37.5 q-79 33 -132 77 q-53 44 -86.5 95.5 q-33.5 51.5 -52 107 q-18.5 55.5 -27.5 110.5 l-7 0 q-14 -91 -49 -163.5 q-35 -72.5 -101 -129 q-66 -56.5 -175 -99.5 l-12 18 q90 43 145 97.5 q55 54.5 85 123 q30 68.5 43 153.5 l-240 0 l-8 30 l252 0 q7 54 9 115 q2 61 3 129 l-177 0 l-9 29 l186 0 l-1 190 Z" /><glyph glyph-name="" unicode="&#x6001;" d="M396 258 q-3 -21 -31 -24 l0 -207 q0 -11 8.5 -15.5 q8.5 -4.5 43.5 -4.5 l133 0 q44 0 76.5 1 q32.5 1 44.5 2 q11 1 15.5 3 q4.5 2 8.5 9 q7 12 15 42 q8 30 17 69 l13 0 l2 -115 q18 -5 24.5 -11 q6.5 -6 6.5 -16 q0 -16 -16.5 -25 q-16.5 -9 -65 -13 q-48.5 -4 -144.5 -4 l-137 0 q-45 0 -69 5.5 q-24 5.5 -32.5 20 q-8.5 14.5 -8.5 40.5 l0 253 l96 -10 ZM207 247 q12 -61 2.5 -108 q-9.5 -47 -29.5 -78 q-20 -31 -41 -46 q-19 -14 -41 -17 q-22 -3 -32 13 q-7 14 0 28 q7 14 22 24 q24 14 46 41 q22 27 37.5 64 q15.5 37 17.5 79 l18 0 ZM770 245 q74 -33 114.5 -70 q40.5 -37 55.5 -71.5 q15 -34.5 10 -59 q-5 -24.5 -22 -32 q-17 -7.5 -39 9.5 q-5 36 -26 75.5 q-21 39.5 -49 76 q-28 36.5 -56 62.5 l12 9 ZM451 299 q64 -27 99 -58.5 q35 -31.5 47 -60.5 q12 -29 7 -49.5 q-5 -20.5 -20 -26.5 q-15 -6 -35 9 q-4 30 -21.5 62.5 q-17.5 32.5 -41 63 q-23.5 30.5 -46.5 51.5 l11 9 ZM870 728 q0 0 14.5 -11.5 q14.5 -11.5 35 -28 q20.5 -16.5 36.5 -32.5 q-4 -16 -26 -16 l-357 0 q37 -72 97.5 -130 q60.5 -58 136 -100.5 q75.5 -42.5 156.5 -67.5 l-1 -11 q-44 -5 -59 -54 q-121 53 -213.5 144.5 q-92.5 91.5 -139.5 218.5 l-62 0 q-15 -40 -35.5 -77 q-20.5 -37 -46.5 -71 q64 -19 100.5 -43.5 q36.5 -24.5 50.5 -49.5 q14 -25 11.5 -43.5 q-2.5 -18.5 -17 -26 q-14.5 -7.5 -34.5 3.5 q-9 24 -29.5 50 q-20.5 26 -45.5 50.5 q-25 24.5 -49 42.5 q-55 -65 -140 -118 q-85 -53 -210 -88 l-8 13 q107 40 181.5 94.5 q74.5 54.5 122.5 121 q48 66.5 76 141.5 l-345 0 l-9 30 l364 0 q13 41 21.5 83 q8.5 42 13.5 85 l107 -20 q-6 -23 -38 -23 q-11 -66 -30 -125 l324 0 l47 58 Z" /><glyph glyph-name="" unicode="&#x600e;" d="M383 263 q-3 -20 -30 -23 l0 -207 q0 -12 9 -16 q9 -4 46 -4 l142 0 q49 0 83.5 0 q34.5 0 48.5 1 q11 2 15.5 4.5 q4.5 2.5 8.5 10.5 q7 13 15 45 q8 32 16 75 l13 0 l3 -125 q19 -5 25.5 -11.5 q6.5 -6.5 6.5 -16.5 q0 -12 -9 -20 q-9 -8 -34 -13.5 q-25 -5.5 -72 -7.5 q-47 -2 -122 -2 l-148 0 q-46 0 -70.5 6 q-24.5 6 -33.5 20.5 q-9 14.5 -9 41.5 l0 253 l96 -11 ZM197 225 q12 -59 3.5 -103.5 q-8.5 -44.5 -27 -75 q-18.5 -30.5 -37.5 -46.5 q-17 -15 -40 -18 q-23 -3 -33 13 q-8 14 -1 28.5 q7 14.5 22 24.5 q22 14 43 40.5 q21 26.5 36 62 q15 35.5 17 74.5 l17 0 ZM754 244 q80 -31 124.5 -68 q44.5 -37 61.5 -71.5 q17 -34.5 14 -59.5 q-3 -25 -20 -33 q-17 -8 -40 8 q-8 36 -33 76 q-25 40 -56.5 76.5 q-31.5 36.5 -62.5 62.5 l12 9 ZM476 260 q57 -22 86.5 -49.5 q29.5 -27.5 38.5 -53 q9 -25.5 3 -43.5 q-6 -18 -21.5 -23 q-15.5 -5 -34.5 9 q-4 26 -17 54 q-13 28 -30.5 54.5 q-17.5 26.5 -35.5 44.5 l11 7 ZM395 791 q-4 -7 -12.5 -8.5 q-8.5 -1.5 -25.5 4.5 q-9 -20 -19.5 -41.5 q-10.5 -21.5 -23.5 -43.5 l496 0 l48 60 q0 0 15 -11.5 q15 -11.5 36 -28 q21 -16.5 39 -33.5 q-4 -16 -26 -16 l-416 0 l0 -119 l236 0 l45 55 q0 0 14 -11 q14 -11 33.5 -27 q19.5 -16 35.5 -31 q-4 -16 -26 -16 l-338 0 l0 -113 l271 0 l48 58 q0 0 15 -11.5 q15 -11.5 35.5 -28 q20.5 -16.5 36.5 -32.5 q-4 -16 -26 -16 l-380 0 l0 -92 q0 -4 -14.5 -12 q-14.5 -8 -40.5 -8 l-10 0 l0 404 l-144 0 q-42 -70 -98 -138 q-56 -68 -118 -117 l-12 10 q46 50 89.5 120 q43.5 70 78.5 146.5 q35 76.5 56 146.5 l102 -50 Z" /><glyph glyph-name="" unicode="&#x602a;" d="M272 672 q51 -31 77 -62.5 q26 -31.5 33 -59 q7 -27.5 0 -45 q-7 -17.5 -22 -21.5 q-15 -4 -32 11 q-2 28 -12.5 59 q-10.5 31 -25.5 60.5 q-15 29.5 -30 51.5 l12 6 ZM111 642 q22 -79 16.5 -139.5 q-5.5 -60.5 -23.5 -89.5 q-11 -19 -32.5 -25.5 q-21.5 -6.5 -35.5 7.5 q-10 12 -5.5 28.5 q4.5 16.5 17.5 30.5 q13 17 24 47.5 q11 30.5 17 68 q6 37.5 4 73.5 l18 -1 ZM277 827 q-2 -10 -9 -17.5 q-7 -7.5 -27 -10.5 l0 -854 q0 -7 -16 -15 q-16 -8 -35 -8 l-13 0 l0 916 l100 -11 ZM585 502 q-110 96 -165 244 l-83 0 l-9 29 l448 0 l45 40 l72 -66 q-9 -11 -43 -12 q-32 -66 -76.5 -123.5 q-44.5 -57.5 -102.5 -105.5 q63 -37 136.5 -62.5 q73.5 -25.5 154.5 -41.5 l-2 -11 q-44 -6 -58 -54 q-81 23 -150.5 55.5 q-69.5 32.5 -128.5 76.5 q-67 -47 -149 -83 q-82 -36 -182 -60 l-8 16 q89 29 164.5 69 q75.5 40 136.5 89 ZM625 537 q48 46 86 98.5 q38 52.5 63 110.5 l-331 0 q30 -64 76.5 -116 q46.5 -52 105.5 -93 ZM813 288 q0 0 14.5 -12 q14.5 -12 34.5 -28.5 q20 -16.5 36 -32.5 q-3 -16 -27 -16 l-223 0 l0 -200 l186 0 l47 61 q0 0 15 -12 q15 -12 35.5 -29 q20.5 -17 37.5 -33 q-4 -16 -27 -16 l-645 0 l-8 29 l293 0 l0 200 l-220 0 l-8 30 l228 0 l0 164 l98 -10 q-1 -10 -8 -16.5 q-7 -6.5 -24 -8.5 l0 -129 l118 0 l47 59 Z" /><glyph glyph-name="" unicode="&#x6052;" d="M358 750 l454 0 l48 60 q0 0 15 -12 q15 -12 35.5 -29 q20.5 -17 37.5 -33 q-4 -16 -26 -16 l-556 0 l-8 30 ZM313 -3 l526 0 l47 60 q0 0 15 -12 q15 -12 35.5 -29 q20.5 -17 36.5 -32 q-4 -16 -26 -16 l-626 0 l-8 29 ZM190 838 l100 -10 q-2 -10 -9 -18 q-7 -8 -27 -11 l0 -853 q0 -7 -16.5 -15.5 q-16.5 -8.5 -34.5 -8.5 l-13 0 l0 916 ZM116 644 l18 -1 q20 -79 10.5 -137.5 q-9.5 -58.5 -29.5 -85.5 q-12 -19 -33.5 -25 q-21.5 -6 -34.5 8 q-10 13 -5 28.5 q5 15.5 18 28.5 q14 17 27 46.5 q13 29.5 21.5 66 q8.5 36.5 7.5 71.5 ZM283 674 q46 -29 68.5 -58.5 q22.5 -29.5 27.5 -54.5 q5 -25 -3.5 -41.5 q-8.5 -16.5 -23.5 -19.5 q-15 -3 -31 12 q-1 38 -16.5 82 q-15.5 44 -35.5 74 l14 6 ZM489 365 l0 -180 l295 0 l0 180 l-295 0 ZM489 393 l295 0 l0 176 l-295 0 l0 -176 ZM425 598 l0 33 l69 -33 l280 0 l37 40 l77 -61 q-4 -5 -14.5 -10.5 q-10.5 -5.5 -24.5 -7.5 l0 -437 q-1 -5 -19.5 -14 q-18.5 -9 -36.5 -9 l-9 0 l0 57 l-295 0 l0 -43 q0 -6 -16 -14.5 q-16 -8.5 -38 -8.5 l-10 0 l0 508 Z" /><glyph glyph-name="" unicode="&#x60b2;" d="M383 235 q-2 -21 -30 -24 l0 -180 q0 -11 8.5 -15 q8.5 -4 45.5 -4 l143 0 q50 0 84.5 1 q34.5 1 47.5 2 q11 1 16 3 q5 2 9 8 q6 12 14 41.5 q8 29.5 16 66.5 l13 0 l2 -111 q19 -5 26 -11.5 q7 -6.5 7 -15.5 q0 -12 -9 -20.5 q-9 -8.5 -34 -13.5 q-25 -5 -72 -7 q-47 -2 -122 -2 l-148 0 q-47 0 -71 5.5 q-24 5.5 -32.5 20 q-8.5 14.5 -8.5 40.5 l0 226 l95 -10 ZM199 221 q13 -60 4.5 -105.5 q-8.5 -45.5 -28 -76.5 q-19.5 -31 -40.5 -46 q-20 -14 -42.5 -16 q-22.5 -2 -31.5 14 q-7 15 0 30 q7 15 23 25 q23 13 45 39 q22 26 37 61.5 q15 35.5 16 75.5 l17 -1 ZM766 224 q76 -34 118 -72 q42 -38 57 -72 q15 -34 11 -58.5 q-4 -24.5 -21 -31.5 q-17 -7 -40 9 q-8 35 -30.5 75 q-22.5 40 -51 77.5 q-28.5 37.5 -55.5 64.5 l12 8 ZM471 300 q63 -32 96 -67 q33 -35 43 -66 q10 -31 4 -52 q-6 -21 -22 -26 q-16 -5 -36 11 q-3 32 -18.5 67 q-15.5 35 -36.5 68.5 q-21 33.5 -42 57.5 l12 7 ZM468 827 q-2 -10 -10 -17 q-8 -7 -27 -9 l0 -505 q0 -6 -16.5 -14 q-16.5 -8 -35.5 -8 l-12 0 l0 122 l-294 0 l-9 30 l303 0 l0 118 l-242 0 l-9 29 l251 0 l0 112 l-275 0 l-9 30 l284 0 l0 123 l101 -11 ZM670 828 q-2 -10 -9.5 -17 q-7.5 -7 -27.5 -9 l0 -87 l165 0 l44 56 q0 0 14.5 -11 q14.5 -11 34.5 -27 q20 -16 36 -32 q-4 -16 -26 -16 l-268 0 l0 -112 l137 0 l43 52 q0 0 13.5 -10.5 q13.5 -10.5 32 -25.5 q18.5 -15 33.5 -30 q-4 -16 -26 -16 l-233 0 l0 -117 l181 0 l45 57 q0 0 14.5 -11 q14.5 -11 35 -27.5 q20.5 -16.5 36.5 -31.5 q-4 -16 -26 -16 l-286 0 l0 -100 q0 -6 -16.5 -14 q-16.5 -8 -35.5 -8 l-12 0 l0 564 l101 -11 Z" /><glyph glyph-name="" unicode="&#x60c5;" d="M184 838 l99 -10 q-2 -10 -9.5 -17.5 q-7.5 -7.5 -26.5 -10.5 l0 -854 q0 -7 -16 -15.5 q-16 -8.5 -34 -8.5 l-13 0 l0 916 ZM104 658 l18 0 q20 -79 10.5 -137.5 q-9.5 -58.5 -28.5 -86.5 q-13 -18 -34 -25 q-21 -7 -33 7 q-9 13 -4.5 28.5 q4.5 15.5 16.5 28.5 q14 16 27 45.5 q13 29.5 21 66.5 q8 37 7 73 ZM276 692 q45 -27 66.5 -55 q21.5 -28 25.5 -52 q4 -24 -4 -40 q-8 -16 -22.5 -18.5 q-14.5 -2.5 -30.5 12.5 q-1 35 -16 77 q-15 42 -32 70 l13 6 ZM800 371 l-315 0 l0 -89 l315 0 l0 89 ZM421 400 l0 33 l69 -33 l300 0 l33 41 l84 -62 q-10 -14 -43 -20 l0 -344 q0 -25 -6 -44 q-6 -19 -26 -31 q-20 -12 -62 -16 q-1 15 -5 27.5 q-4 12.5 -13 20.5 q-8 8 -24 13 q-16 5 -44 9 l0 16 q0 0 12 -1 q12 -1 29 -2 q17 -1 32.5 -2 q15.5 -1 22.5 -1 q12 0 16 4.5 q4 4.5 4 15.5 l0 107 l-315 0 l0 -184 q0 -5 -16.5 -14 q-16.5 -9 -36.5 -9 l-11 0 l0 476 ZM485 252 l0 -92 l315 0 l0 92 l-315 0 ZM603 834 l97 -9 q-1 -10 -8.5 -16.5 q-7.5 -6.5 -24.5 -9.5 l0 -64 l159 0 l46 56 q0 0 14 -11.5 q14 -11.5 33 -27.5 q19 -16 35 -31 q-4 -16 -27 -16 l-260 0 l0 -81 l134 0 l42 53 q0 0 13.5 -11 q13.5 -11 32 -26.5 q18.5 -15.5 33.5 -29.5 q-4 -16 -25 -16 l-230 0 l0 -89 l177 0 l44 57 q0 0 14 -11.5 q14 -11.5 33.5 -27.5 q19.5 -16 35.5 -31 q-4 -16 -26 -16 l-610 0 l-8 29 l276 0 l0 89 l-198 0 l-8 30 l206 0 l0 81 l-241 0 l-8 30 l249 0 l0 99 Z" /><glyph glyph-name="" unicode="&#x60f3;" d="M383 215 q-2 -21 -30 -24 l0 -157 q0 -10 8.5 -14 q8.5 -4 45.5 -4 l143 0 q50 0 84.5 0.5 q34.5 0.5 47.5 1.5 q12 1 16.5 3.5 q4.5 2.5 8.5 9.5 q6 11 14 38.5 q8 27.5 16 64.5 l13 0 l2 -107 q19 -5 25.5 -11 q6.5 -6 6.5 -17 q0 -12 -9 -20 q-9 -8 -34 -13 q-25 -5 -71.5 -7 q-46.5 -2 -122.5 -2 l-147 0 q-47 0 -71 5.5 q-24 5.5 -32.5 19.5 q-8.5 14 -8.5 40 l0 203 l95 -10 ZM191 201 q12 -56 3.5 -99 q-8.5 -43 -27 -71.5 q-18.5 -28.5 -38.5 -42.5 q-19 -14 -40.5 -16 q-21.5 -2 -30.5 14 q-7 14 1 28 q8 14 22 24 q21 12 41.5 36 q20.5 24 35 57 q14.5 33 16.5 70 l17 0 ZM769 208 q72 -30 111.5 -65 q39.5 -35 53.5 -67 q14 -32 9.5 -55 q-4.5 -23 -21 -30 q-16.5 -7 -37.5 9 q-5 34 -25.5 70.5 q-20.5 36.5 -47.5 70.5 q-27 34 -54 58 l11 9 ZM454 252 q64 -23 98 -52 q34 -29 45.5 -56.5 q11.5 -27.5 6.5 -47 q-5 -19.5 -20.5 -25.5 q-15.5 -6 -35.5 9 q-4 28 -20.5 58.5 q-16.5 30.5 -39.5 58 q-23 27.5 -45 47.5 l11 8 ZM412 732 q0 0 14 -11.5 q14 -11.5 33 -28 q19 -16.5 34 -32.5 q-3 -16 -26 -16 l-160 0 l0 -80 q63 -19 97.5 -45 q34.5 -26 47 -52 q12.5 -26 8 -45 q-4.5 -19 -20 -25.5 q-15.5 -6.5 -35.5 6.5 q-7 37 -36 75 q-29 38 -61 66 l0 -275 q0 -7 -17 -15.5 q-17 -8.5 -34 -8.5 l-13 0 l0 279 q-72 -136 -198 -235 l-13 14 q65 69 112.5 157.5 q47.5 88.5 75.5 183.5 l-167 0 l-8 30 l198 0 l0 170 l99 -9 q-2 -11 -9.5 -18 q-7.5 -7 -25.5 -10 l0 -133 l60 0 l45 58 ZM822 349 l0 111 l-245 0 l0 -111 l245 0 ZM577 278 q0 -5 -16 -13.5 q-16 -8.5 -37 -8.5 l-11 0 l0 546 l69 -32 l230 0 l37 41 l81 -63 q-11 -13 -43 -19 l0 -452 q-1 -4 -19.5 -13 q-18.5 -9 -35.5 -9 l-10 0 l0 64 l-245 0 l0 -41 ZM822 489 l0 113 l-245 0 l0 -113 l245 0 ZM822 632 l0 109 l-245 0 l0 -109 l245 0 Z" /><glyph glyph-name="" unicode="&#x6109;" d="M689 437 l90 -11 q-1 -10 -9 -16.5 q-8 -6.5 -25 -9.5 l0 -311 q0 -5 -15 -12.5 q-15 -7.5 -31 -7.5 l-10 0 l0 368 ZM452 555 l210 0 l44 55 q0 0 14 -11 q14 -11 33 -27 q19 -16 35 -30 q-4 -16 -26 -16 l-302 0 l-8 29 ZM636 782 q-34 -57 -89 -117 q-55 -60 -122.5 -113.5 q-67.5 -53.5 -141.5 -91.5 l-6 14 q48 33 94.5 77 q46.5 44 87.5 93.5 q41 49.5 73 99 q32 49.5 51 94.5 l106 -28 q-2 -7 -10.5 -11.5 q-8.5 -4.5 -27.5 -6.5 q56 -74 142.5 -138.5 q86.5 -64.5 186.5 -102.5 l-1 -14 q-21 -7 -33 -24 q-12 -17 -17 -37 q-94 55 -170 134 q-76 79 -123 172 ZM840 467 l96 -11 q-2 -10 -10 -16 q-8 -6 -26 -9 l0 -413 q0 -26 -5.5 -45 q-5.5 -19 -25 -31 q-19.5 -12 -61.5 -17 q-2 15 -6 27.5 q-4 12.5 -14 20.5 q-18 15 -72 22 l0 16 q0 0 13.5 -1 q13.5 -1 32 -2.5 q18.5 -1.5 35 -2.5 q16.5 -1 22.5 -1 q21 0 21 20 l0 443 ZM173 838 l98 -10 q-2 -10 -9.5 -17.5 q-7.5 -7.5 -25.5 -10.5 l0 -854 q0 -7 -16.5 -15.5 q-16.5 -8.5 -33.5 -8.5 l-13 0 l0 916 ZM98 658 l17 -1 q22 -75 16.5 -133.5 q-5.5 -58.5 -22.5 -85.5 q-11 -19 -32.5 -25 q-21.5 -6 -33.5 7 q-9 13 -5 29 q4 16 17 29 q12 16 22.5 45.5 q10.5 29.5 16.5 65 q6 35.5 4 69.5 ZM263 678 q41 -24 59.5 -49 q18.5 -25 21.5 -46.5 q3 -21.5 -5.5 -35.5 q-8.5 -14 -23 -16 q-14.5 -2 -29.5 13 q1 32 -10.5 68 q-11.5 36 -25.5 61 l13 5 ZM542 277 l-138 0 l0 -95 l138 0 l0 95 ZM542 307 l0 99 l-138 0 l0 -99 l138 0 ZM346 436 l0 29 l63 -29 l123 0 l30 36 l78 -57 q-9 -12 -39 -19 l0 -378 q0 -37 -13 -60 q-13 -23 -65 -29 q-1 14 -4 27.5 q-3 13.5 -10 20.5 q-13 14 -50 21 l0 16 q0 0 14 -1 q14 -1 30.5 -2 q16.5 -1 22.5 -1 q10 0 13 3.5 q3 3.5 3 12.5 l0 128 l-138 0 l0 -203 q0 -6 -14.5 -14 q-14.5 -8 -33.5 -8 l-10 0 l0 507 Z" /><glyph glyph-name="" unicode="&#x6210;" d="M669 815 q63 -5 100 -21.5 q37 -16.5 52.5 -37 q15.5 -20.5 14.5 -38 q-1 -17.5 -14 -25 q-13 -7.5 -33 1.5 q-11 20 -32.5 40.5 q-21.5 20.5 -47 39 q-25.5 18.5 -49.5 29.5 l9 11 ZM142 637 l0 34 l78 -34 l313 0 q-4 48 -5.5 98 q-1.5 50 -1.5 101 l102 -11 q-1 -10 -9 -18 q-8 -8 -26 -10 q-1 -40 0.5 -80 q1.5 -40 3.5 -80 l223 0 l48 60 q0 0 15 -12 q15 -12 36 -29 q21 -17 37 -32 q-3 -16 -26 -16 l-331 0 q8 -100 27 -192.5 q19 -92.5 54 -170.5 q38 64 65.5 132 q27.5 68 43.5 137 l105 -31 q-3 -10 -11.5 -14.5 q-8.5 -4.5 -29.5 -3.5 q-23 -71 -58 -142 q-35 -71 -85 -137 q28 -46 64 -84 q36 -38 82 -65 q14 -10 21 -9.5 q7 0.5 14 16.5 q9 17 21.5 49.5 q12.5 32.5 21.5 63.5 l13 -3 l-17 -149 q23 -26 27.5 -39 q4.5 -13 -1.5 -21 q-11 -15 -33 -14 q-22 1 -48 13.5 q-26 12.5 -51 29.5 q-48 31 -87 71.5 q-39 40.5 -70 89.5 q-57 -64 -131.5 -117 q-74.5 -53 -169.5 -91 l-8 13 q89 46 159 108.5 q70 62.5 123 135.5 q-45 88 -69.5 195.5 q-24.5 107.5 -35.5 228.5 l-328 0 l0 -166 l172 0 l37 39 l74 -59 q-11 -12 -39 -15 q-4 -150 -17 -226 q-13 -76 -39 -100 q-16 -15 -39 -22.5 q-23 -7.5 -49 -7.5 q0 14 -3 26.5 q-3 12.5 -11 19.5 q-7 7 -26 12.5 q-19 5.5 -39 8.5 l0 17 q21 -2 51.5 -4.5 q30.5 -2.5 43.5 -2.5 q21 0 30 10 q14 14 23 81.5 q9 67.5 12 194.5 l-181 0 q0 -58 -5 -122.5 q-5 -64.5 -21 -130.5 q-16 -66 -48.5 -128.5 q-32.5 -62.5 -87.5 -115.5 l-13 12 q50 73 73 155 q23 82 30 168 q7 86 7 169 l0 216 Z" /><glyph glyph-name="" unicode="&#x6211;" d="M703 777 q66 -20 102.5 -46.5 q36.5 -26.5 50 -52.5 q13.5 -26 10 -45 q-3.5 -19 -19 -25.5 q-15.5 -6.5 -35.5 7.5 q-7 26 -26.5 54.5 q-19.5 28.5 -44 55 q-24.5 26.5 -47.5 44.5 l10 8 ZM454 819 l79 -65 q-14 -13 -50 -1 q-28 -10 -61 -20.5 q-33 -10.5 -71 -20.5 l0 -198 l230 0 q-9 74 -12.5 153 q-3.5 79 -3.5 162 l103 -12 q-1 -9 -9 -17 q-8 -8 -26 -10 q-1 -70 1.5 -140 q2.5 -70 9.5 -136 l178 0 l49 60 q0 0 15 -12 q15 -12 36.5 -28.5 q21.5 -16.5 38.5 -32.5 q-4 -16 -27 -16 l-286 0 q8 -64 21.5 -123 q13.5 -59 33.5 -112 q33 47 58.5 95 q25.5 48 43.5 95 l96 -40 q-4 -9 -12.5 -12.5 q-8.5 -3.5 -27.5 -0.5 q-24 -49 -57 -98.5 q-33 -49.5 -75 -96.5 q25 -48 58 -86.5 q33 -38.5 76 -65.5 q13 -10 19 -9 q6 1 13 16 q8 18 20.5 50 q12.5 32 20.5 63 l13 -3 l-16 -148 q23 -26 26.5 -39 q3.5 -13 -1.5 -21 q-11 -15 -32 -14 q-21 1 -46 13 q-25 12 -48 28 q-47 32 -84 74 q-37 42 -65 94 q-59 -58 -133 -108 q-74 -50 -163 -85 l-8 14 q83 43 153.5 101.5 q70.5 58.5 126.5 125.5 q-28 64 -46 137.5 q-18 73.5 -29 155.5 l-233 0 l0 -162 l201 50 l4 -16 q-43 -16 -94 -35.5 q-51 -19.5 -111 -40.5 l0 -258 q0 -26 -7 -47 q-7 -21 -29 -35 q-22 -14 -69 -19 q-1 15 -6.5 28.5 q-5.5 13.5 -15.5 20.5 q-21 16 -88 26 l0 15 q0 0 16 -1 q16 -1 38.5 -3 q22.5 -2 43 -3 q20.5 -1 28.5 -1 q14 0 19 5 q5 5 5 16 l0 233 l-184 -62 q-6 -20 -22 -25 l-37 84 q37 5 100.5 19 q63.5 14 142.5 33 l0 178 l-237 0 l-9 29 l246 0 l0 181 q-55 -13 -113.5 -24.5 q-58.5 -11.5 -114.5 -18.5 l-5 17 q72 17 148 42 q76 25 143 54 q67 29 110 54 Z" /><glyph glyph-name="" unicode="&#x6218;" d="M699 796 q60 -23 91.5 -50 q31.5 -27 41.5 -52.5 q10 -25.5 4.5 -44 q-5.5 -18.5 -21 -23.5 q-15.5 -5 -34.5 9 q-5 26 -20.5 54 q-15.5 28 -35 54.5 q-19.5 26.5 -38.5 45.5 l12 7 ZM663 824 q-1 -10 -9 -17.5 q-8 -7.5 -27 -10.5 q-1 -65 1.5 -130.5 q2.5 -65.5 9.5 -128.5 l173 20 l40 62 q0 0 15.5 -10 q15.5 -10 37.5 -23.5 q22 -13.5 39 -26.5 q-2 -17 -24 -19 l-277 -32 q9 -73 25 -141 q16 -68 41 -127 q34 57 59 116 q25 59 41 116 l103 -37 q-4 -7 -12 -11 q-8 -4 -28 -3 q-22 -60 -55.5 -121.5 q-33.5 -61.5 -77.5 -120.5 q24 -43 55 -79 q31 -36 70 -63 q13 -10 19.5 -9.5 q6.5 0.5 13.5 15.5 q9 18 21.5 50.5 q12.5 32.5 21.5 63.5 l13 -2 l-18 -152 q23 -30 27.5 -44.5 q4.5 -14.5 -3.5 -22.5 q-12 -15 -34.5 -13 q-22.5 2 -47.5 15.5 q-25 13.5 -48 31.5 q-41 31 -74.5 69.5 q-33.5 38.5 -60.5 84.5 q-52 -58 -117 -110 q-65 -52 -145 -90 l-10 13 q74 47 135.5 107.5 q61.5 60.5 109.5 129.5 q-34 71 -55.5 153 q-21.5 82 -34.5 173 l-155 -18 l-11 28 l163 19 q-9 73 -13 150 q-4 77 -4 157 l107 -12 ZM337 827 q-2 -10 -10 -17.5 q-8 -7.5 -27 -10.5 l0 -181 l95 0 l43 59 q0 0 14 -11.5 q14 -11.5 33 -28 q19 -16.5 33 -32.5 q-4 -16 -25 -16 l-193 0 l0 -203 l77 0 l36 39 l79 -60 q-11 -13 -42 -19 l0 -326 q0 -4 -18.5 -13 q-18.5 -9 -34.5 -9 l-10 0 l0 55 l-231 0 l0 -73 q0 -4 -14 -13 q-14 -9 -39 -9 l-10 0 l0 461 l76 -33 l67 0 l0 452 l101 -11 ZM156 82 l231 0 l0 274 l-231 0 l0 -274 Z" /><glyph glyph-name="" unicode="&#x2f3f;&#x624b;" d="M785 837 l78 -73 q-7 -6 -20.5 -6 q-13.5 0 -33.5 8 q-57 -13 -126 -25 q-69 -12 -145 -23 l0 -193 l230 0 l51 62 q0 0 15.5 -12.5 q15.5 -12.5 37 -30 q21.5 -17.5 38.5 -33.5 q-3 -15 -26 -15 l-346 0 l0 -195 l286 0 l52 63 q0 0 16 -12.5 q16 -12.5 38 -30 q22 -17.5 40 -34.5 q-4 -16 -27 -16 l-405 0 l0 -244 q0 -26 -8 -48 q-8 -22 -34.5 -36.5 q-26.5 -14.5 -80.5 -19.5 q-2 16 -9 29 q-7 13 -20 21 q-16 9 -42 15.5 q-26 6.5 -71 12.5 l0 15 q0 0 21.5 -1.5 q21.5 -1.5 51.5 -4 q30 -2.5 57 -4 q27 -1.5 37 -1.5 q17 0 23.5 6 q6.5 6 6.5 20 l0 240 l-431 0 l-8 30 l439 0 l0 195 l-365 0 l-8 29 l373 0 l0 185 q-90 -10 -185 -17 q-95 -7 -188 -9 l-4 19 q92 8 190 21.5 q98 13.5 191.5 32 q93.5 18.5 173.5 39 q80 20.5 137 41.5 Z" /><glyph glyph-name="" unicode="&#x624d;" d="M866 691 q0 0 15.5 -12.5 q15.5 -12.5 36.5 -30.5 q21 -18 37 -35 q-3 -16 -27 -16 l-284 0 l0 -577 q0 -28 -7.5 -49 q-7.5 -21 -32 -34 q-24.5 -13 -75.5 -18 q-2 16 -8 29 q-6 13 -17 21 q-24 17 -96 28 l0 15 q0 0 18 -1.5 q18 -1.5 43.5 -3 q25.5 -1.5 47.5 -3 q22 -1.5 31 -1.5 q16 0 21.5 5.5 q5.5 5.5 5.5 17.5 l0 501 q-85 -150 -220.5 -279.5 q-135.5 -129.5 -308.5 -218.5 l-11 14 q107 68 201 158.5 q94 90.5 168.5 192.5 q74.5 102 121.5 203 l-469 0 l-9 29 l527 0 l0 210 l105 -11 q-3 -23 -36 -27 l0 -172 l173 0 l49 65 Z" /><glyph glyph-name="" unicode="&#x626f;" d="M35 320 q25 5 66 16.5 q41 11.5 93 27.5 l0 229 l-147 0 l-8 30 l155 0 l0 215 l100 -11 q-2 -10 -10.5 -17.5 q-8.5 -7.5 -26.5 -9.5 l0 -177 l37 0 l41 55 q0 0 13 -11 q13 -11 30.5 -27 q17.5 -16 31.5 -31 q-3 -16 -25 -16 l-128 0 l0 -211 l142 43 l4 -14 l-146 -74 l0 -319 q0 -27 -6 -46.5 q-6 -19.5 -26.5 -32 q-20.5 -12.5 -64.5 -17.5 q-1 15 -5 28 q-4 13 -14 21 q-19 16 -74 23 l0 16 q0 0 13.5 -1 q13.5 -1 32.5 -2 q19 -1 36 -2 q17 -1 23 -1 q13 0 17.5 4.5 q4.5 4.5 4.5 15.5 l0 283 l-98 -46 q-6 -18 -21 -25 l-40 84 ZM307 -4 l130 0 l0 589 l99 -11 q-2 -10 -10 -17.5 q-8 -7.5 -26 -10.5 l0 -550 l142 0 l0 823 l102 -11 q-1 -10 -9 -17.5 q-8 -7.5 -26 -10.5 l0 -312 l97 0 l45 60 q0 0 14.5 -12 q14.5 -12 34 -28.5 q19.5 -16.5 35.5 -32.5 q-4 -16 -26 -16 l-200 0 l0 -443 l125 0 l48 62 q0 0 15 -12.5 q15 -12.5 35.5 -30 q20.5 -17.5 36.5 -32.5 q-4 -16 -26 -16 l-628 0 l-8 29 Z" /><glyph glyph-name="" unicode="&#x6295;" d="M484 783 l0 23 l74 -33 l169 0 l36 37 l71 -62 q-9 -9 -37 -14 l0 -208 q0 -8 3 -11.5 q3 -3.5 15 -3.5 l38 0 q12 0 22 0 q10 0 15 1 q4 0 7.5 0 q3.5 0 6.5 0 q4 1 8 1.5 q4 0.5 8 1.5 l13 0 q15 -5 21.5 -10 q6.5 -5 6.5 -16 q0 -19 -22.5 -28 q-22.5 -9 -90.5 -9 l-50 0 q-40 0 -51.5 12.5 q-11.5 12.5 -11.5 43.5 l0 235 l-189 0 l0 -54 q0 -33 -5.5 -71 q-5.5 -38 -23.5 -77.5 q-18 -39.5 -54.5 -76.5 q-36.5 -37 -97.5 -66 l-11 13 q56 42 84 89 q28 47 37 95 q9 48 9 94 l0 94 ZM605 102 q-89 100 -132 249 l-75 0 l-9 29 l393 0 l43 41 l71 -67 q-6 -6 -15.5 -8.5 q-9.5 -2.5 -27.5 -2.5 q-30 -68 -72 -128 q-42 -60 -98 -110 q59 -41 131 -70 q72 -29 154 -47 l-2 -11 q-45 -6 -60 -54 q-81 25 -148 60.5 q-67 35.5 -120 84.5 q-64 -48 -146.5 -85.5 q-82.5 -37.5 -184.5 -62.5 l-8 16 q92 30 168.5 72 q76.5 42 137.5 94 ZM642 137 q47 47 81.5 100.5 q34.5 53.5 58.5 113.5 l-287 0 q24 -65 61 -118.5 q37 -53.5 86 -95.5 ZM335 665 q0 0 13 -11 q13 -11 31.5 -27 q18.5 -16 32.5 -31 q-3 -16 -25 -16 l-131 0 l0 -164 l115 66 l9 -13 l-124 -100 l0 -346 q0 -27 -6.5 -48 q-6.5 -21 -28.5 -34 q-22 -13 -69 -18 q-2 16 -7 29.5 q-5 13.5 -16 21.5 q-11 9 -31.5 16 q-20.5 7 -54.5 11 l0 16 q0 0 16 -1 q16 -1 38.5 -3 q22.5 -2 42.5 -3 q20 -1 27 -1 q14 0 19.5 5 q5.5 5 5.5 16 l0 289 l-91 -69 q-2 -20 -15 -28 l-50 77 q23 10 64 31.5 q41 21.5 92 49.5 l0 200 l-145 0 l-8 29 l153 0 l0 229 l101 -11 q-2 -10 -10.5 -17 q-8.5 -7 -26.5 -9 l0 -192 l37 0 l42 56 Z" /><glyph glyph-name="" unicode="&#x62d3;&#xfa02;" d="M339 742 l490 0 l48 62 q0 0 15 -12.5 q15 -12.5 36 -30 q21 -17.5 38 -33.5 q-4 -16 -26 -16 l-297 0 q-18 -74 -45.5 -147 q-27.5 -73 -64.5 -141 l20 -9 l267 0 l38 42 l82 -64 q-5 -6 -16.5 -12 q-11.5 -6 -26.5 -9 l0 -420 q-1 -5 -20.5 -14 q-19.5 -9 -36.5 -9 l-9 0 l0 86 l-290 0 l0 -71 q0 -4 -15 -13.5 q-15 -9.5 -38 -9.5 l-11 0 l0 410 q-82 -123 -196 -216 l-12 12 q75 79 133.5 175 q58.5 96 99 201 q40.5 105 59.5 209 l-214 0 l-8 30 ZM831 43 l0 342 l-290 0 l0 -342 l290 0 ZM26 313 q24 5 65.5 18 q41.5 13 93.5 29 l0 220 l-136 0 l-8 29 l144 0 l0 229 l100 -11 q-1 -10 -9.5 -17.5 q-8.5 -7.5 -27.5 -9.5 l0 -191 l30 0 l41 56 q0 0 13 -11 q13 -11 31 -27 q18 -16 31 -31 q-4 -16 -25 -16 l-121 0 l0 -199 l144 48 l5 -15 l-149 -77 l0 -319 q0 -27 -6 -46.5 q-6 -19.5 -26 -32 q-20 -12.5 -63 -17.5 q-2 15 -6.5 28 q-4.5 13 -13.5 21 q-10 8 -27.5 13.5 q-17.5 5.5 -47.5 9.5 l0 16 q0 0 13.5 -1 q13.5 -1 32.5 -2 q19 -1 36 -2 q17 -1 23 -1 q14 0 18 4.5 q4 4.5 4 15.5 l0 280 l-105 -51 q-2 -10 -8 -16 q-6 -6 -13 -9 l-33 85 Z" /><glyph glyph-name="" unicode="&#x62e5;" d="M685 300 l167 0 l0 200 l-167 0 l0 -200 ZM398 760 l0 23 l74 -33 l369 0 l35 43 l86 -66 q-5 -7 -18 -12.5 q-13 -5.5 -30 -8.5 l0 -690 q0 -26 -6 -46 q-6 -20 -25.5 -32.5 q-19.5 -12.5 -62.5 -17.5 q-3 34 -19 50 q-18 18 -73 25 l0 17 q0 0 13 -1 q13 -1 31.5 -3 q18.5 -2 35 -3 q16.5 -1 23.5 -1 q13 0 17 5 q4 5 4 16 l0 246 l-167 0 l0 -294 q0 -4 -14 -12.5 q-14 -8.5 -38 -8.5 l-9 0 l0 315 l-172 0 q-10 -96 -43 -189.5 q-33 -93.5 -110 -167.5 l-15 11 q52 74 76 159.5 q24 85.5 31 177 q7 91.5 7 184.5 l0 314 ZM624 300 l0 200 l-164 0 l0 -53 q0 -35 -1 -72 q-1 -37 -4 -75 l169 0 ZM685 720 l0 -191 l167 0 l0 191 l-167 0 ZM624 720 l-164 0 l0 -191 l164 0 l0 191 ZM307 668 q0 0 13 -11 q13 -11 30.5 -26.5 q17.5 -15.5 30.5 -30.5 q-4 -16 -26 -16 l-106 0 l0 -186 l121 48 l6 -14 l-127 -77 l0 -335 q0 -27 -6 -47 q-6 -20 -27 -32.5 q-21 -12.5 -65 -17.5 q-2 16 -6 29 q-4 13 -14 21 q-19 16 -78 25 l0 17 q0 0 14 -1 q14 -1 34 -3 q20 -2 38 -3 q18 -1 25 -1 q13 0 17.5 4.5 q4.5 4.5 4.5 15.5 l0 291 l-96 -55 q-3 -20 -19 -27 l-37 81 q23 7 62.5 22 q39.5 15 89.5 34 l0 211 l-134 0 l-8 29 l142 0 l0 225 l100 -11 q-2 -10 -10.5 -17 q-8.5 -7 -26.5 -9 l0 -188 l18 0 l40 55 Z" /><glyph glyph-name="" unicode="&#x6307;" d="M519 163 l0 -139 l309 0 l0 139 l-309 0 ZM519 191 l309 0 l0 134 l-309 0 l0 -134 ZM456 355 l0 31 l69 -31 l293 0 l37 39 l81 -61 q-12 -14 -43 -20 l0 -364 q-1 -5 -19.5 -13.5 q-18.5 -8.5 -35.5 -8.5 l-10 0 l0 68 l-309 0 l0 -52 q0 -5 -16 -13.5 q-16 -8.5 -37 -8.5 l-10 0 l0 434 ZM830 792 l84 -62 q-12 -15 -49 -3 q-42 -20 -99 -42 q-57 -22 -121.5 -41 q-64.5 -19 -131.5 -32 l0 -81 q0 -13 9.5 -17.5 q9.5 -4.5 48.5 -4.5 l148 0 q49 0 86 0.5 q37 0.5 50 1.5 q12 1 17 3 q5 2 9 8 q7 10 14.5 36.5 q7.5 26.5 15.5 60.5 l12 0 l3 -100 q19 -5 25.5 -10.5 q6.5 -5.5 6.5 -15.5 q0 -12 -9 -20 q-9 -8 -34.5 -13 q-25.5 -5 -73.5 -7 q-48 -2 -125 -2 l-151 0 q-47 0 -72 6 q-25 6 -34 21 q-9 15 -9 42 l0 314 l93 -10 q-3 -20 -30 -24 l0 -165 q61 21 121.5 47.5 q60.5 26.5 111.5 55.5 q51 29 84 54 ZM27 313 q25 6 69 19.5 q44 13.5 99 31.5 l0 216 l-145 0 l-8 29 l153 0 l0 229 l100 -11 q-2 -10 -10.5 -17.5 q-8.5 -7.5 -26.5 -9.5 l0 -191 l42 0 l42 57 q0 0 13 -11.5 q13 -11.5 31 -27.5 q18 -16 32 -31 q-3 -16 -25 -16 l-135 0 l0 -196 l153 52 l5 -15 l-158 -81 l0 -321 q0 -27 -6 -46.5 q-6 -19.5 -26.5 -32 q-20.5 -12.5 -63.5 -17.5 q-2 16 -6.5 28.5 q-4.5 12.5 -13.5 20.5 q-20 16 -76 23 l0 16 q0 0 14 -1 q14 -1 33 -2 q19 -1 36 -2 q17 -1 24 -1 q13 0 17.5 4 q4.5 4 4.5 15 l0 284 l-113 -54 q-2 -9 -8 -15.5 q-6 -6.5 -13 -9.5 l-34 84 Z" /><glyph glyph-name="" unicode="&#x63a2;" d="M644 644 q-5 -7 -15 -11.5 q-10 -4.5 -25 -0.5 q-44 -61 -98.5 -115 q-54.5 -54 -108.5 -89 l-13 13 q43 43 90.5 111 q47.5 68 83.5 142 l86 -50 ZM696 682 q77 -34 121.5 -70.5 q44.5 -36.5 62.5 -69 q18 -32.5 16.5 -55.5 q-1.5 -23 -16.5 -30.5 q-15 -7.5 -37 5.5 q-12 33 -39 71.5 q-27 38.5 -59 75.5 q-32 37 -61 64 l12 9 ZM870 438 q0 0 14.5 -11.5 q14.5 -11.5 34.5 -28 q20 -16.5 36 -32.5 q-4 -16 -26 -16 l-241 0 q32 -64 78.5 -121.5 q46.5 -57.5 100.5 -103 q54 -45.5 106 -73.5 l-1 -10 q-43 -5 -60 -53 q-70 54 -133 140 q-63 86 -104 194 l0 -380 q0 -7 -16.5 -15.5 q-16.5 -8.5 -33.5 -8.5 l-13 0 l0 365 q-53 -93 -132 -171.5 q-79 -78.5 -177 -138.5 l-12 15 q92 70 163.5 165 q71.5 95 114.5 196 l-203 0 l-8 29 l254 0 l0 167 l99 -11 q-2 -10 -9.5 -17 q-7.5 -7 -26.5 -9 l0 -130 l148 0 l47 59 ZM454 822 q6 -29 9 -52 l385 0 l42 41 l75 -73 q-9 -7 -38 -9 q-10 -13 -25.5 -32 q-15.5 -19 -30.5 -37.5 q-15 -18.5 -27 -32.5 l-14 7 l23 106 l-388 0 q1 -49 -12 -75 q-13 -26 -30.5 -34.5 q-17.5 -8.5 -32.5 -3 q-15 5.5 -19 20.5 q-4 15 12 35 q24 15 38 49.5 q14 34.5 16 89.5 l17 0 ZM306 666 q0 0 12.5 -10.5 q12.5 -10.5 30 -25.5 q17.5 -15 30.5 -30 q-4 -16 -26 -16 l-106 0 l0 -164 l116 60 l8 -12 l-124 -93 l0 -355 q0 -27 -6 -47 q-6 -20 -26.5 -32.5 q-20.5 -12.5 -64.5 -17.5 q-2 16 -6.5 29 q-4.5 13 -14.5 21 q-17 16 -77 25 l0 17 q0 0 14 -1 q14 -1 34 -3 q20 -2 37.5 -3 q17.5 -1 24.5 -1 q14 0 18.5 4.5 q4.5 4.5 4.5 15.5 l0 303 l-90 -63 q-2 -20 -17 -28 l-43 78 q22 10 61.5 28.5 q39.5 18.5 88.5 43.5 l0 195 l-134 0 l-8 29 l142 0 l0 225 l99 -11 q-2 -10 -10.5 -17 q-8.5 -7 -26.5 -9 l0 -188 l20 0 l39 53 Z" /><glyph glyph-name="" unicode="&#x6401;" d="M383 833 q58 -17 89.5 -41 q31.5 -24 41.5 -47 q10 -23 5 -40.5 q-5 -17.5 -20.5 -23.5 q-15.5 -6 -35.5 7 q-6 23 -21.5 48.5 q-15.5 25.5 -34 49 q-18.5 23.5 -35.5 40.5 l11 7 ZM432 679 q-1 -11 -9 -18 q-8 -7 -28 -9 l0 -704 q0 -7 -15 -15.5 q-15 -8.5 -33 -8.5 l-11 0 l0 766 l96 -11 ZM262 667 q0 0 11.5 -10 q11.5 -10 27.5 -25 q16 -15 29 -29 q-4 -16 -26 -16 l-85 0 l0 -187 l93 41 l6 -14 l-99 -69 l0 -341 q0 -26 -5.5 -46 q-5.5 -20 -24.5 -31.5 q-19 -11.5 -60 -15.5 q-1 14 -5 27 q-4 13 -12 21 q-17 17 -66 24 l0 17 q0 0 12 -1 q12 -1 28 -2.5 q16 -1.5 31 -2.5 q15 -1 21 -1 q20 0 20 18 l0 292 l-68 -44 q-2 -18 -17 -27 l-39 79 q19 7 51.5 20 q32.5 13 72.5 30 l0 213 l-107 0 l-8 30 l115 0 l0 221 l98 -11 q-2 -10 -10.5 -17 q-8.5 -7 -26.5 -9 l0 -184 l6 0 l37 50 ZM840 746 l33 41 l83 -62 q-12 -14 -44 -20 l0 -691 q0 -25 -6.5 -44 q-6.5 -19 -27.5 -30.5 q-21 -11.5 -65 -16.5 q-2 14 -6 25.5 q-4 11.5 -15 18.5 q-20 14 -80 23 l0 16 q0 0 15 -1 q15 -1 35.5 -3 q20.5 -2 39 -3 q18.5 -1 25.5 -1 q14 0 18.5 5 q4.5 5 4.5 17 l0 697 l-295 0 l-9 29 l294 0 ZM618 661 q-7 -19 -37 -19 q-5 -13 -10.5 -25.5 q-5.5 -12.5 -11.5 -25.5 l131 0 l40 37 l66 -60 q-8 -10 -41 -11 q-36 -72 -96 -132 q36 -22 80 -40.5 q44 -18.5 96 -31.5 l-3 -11 q-16 -3 -27.5 -13.5 q-11.5 -10.5 -16.5 -30.5 q-98 38 -164 95 q-55 -46 -125 -80 l55 -24 l131 0 l27 34 l67 -51 q-4 -5 -12.5 -9.5 q-8.5 -4.5 -23.5 -6.5 l0 -210 q0 -3 -14 -10.5 q-14 -7.5 -33 -7.5 l-8 0 l0 56 l-146 0 l0 -45 q0 -3 -12 -10.5 q-12 -7.5 -34 -7.5 l-8 0 l0 287 q-16 -8 -34 -15 q-18 -7 -37 -14 l-10 15 q109 51 186 130 q-21 23 -39 48 q-18 25 -33 52 q-41 -65 -93 -108 l-15 10 q35 47 66 117 q31 70 49 146 l90 -28 ZM534 545 q34 -50 85 -92 q21 26 38.5 53.5 q17.5 27.5 30.5 55.5 l-144 0 l-10 -17 ZM542 113 l146 0 l0 146 l-146 0 l0 -146 Z" /><glyph glyph-name="" unicode="&#x653e;" d="M205 828 q59 -25 90.5 -53.5 q31.5 -28.5 41 -55 q9.5 -26.5 3.5 -45 q-6 -18.5 -22 -23.5 q-16 -5 -36 10 q-5 26 -20 55.5 q-15 29.5 -33 57 q-18 27.5 -36 48.5 l12 6 ZM438 691 q0 0 14.5 -11.5 q14.5 -11.5 34 -27.5 q19.5 -16 35.5 -32 q-4 -16 -26 -16 l-262 0 q-1 -37 -2 -73.5 q-1 -36.5 -3 -71.5 l139 0 l37 41 l75 -62 q-6 -6 -15.5 -10 q-9.5 -4 -25.5 -5 q-4 -144 -13 -238.5 q-9 -94.5 -23.5 -147.5 q-14.5 -53 -35.5 -75 q-19 -19 -44 -27.5 q-25 -8.5 -52 -8.5 q0 14 -2.5 26.5 q-2.5 12.5 -11.5 20.5 q-8 7 -26.5 13 q-18.5 6 -39.5 10 l1 17 q22 -2 52.5 -4.5 q30.5 -2.5 43.5 -2.5 q12 0 19.5 2.5 q7.5 2.5 14.5 9.5 q20 20 34.5 119.5 q14.5 99.5 20.5 292.5 l-150 0 q-7 -98 -25 -187.5 q-18 -89.5 -54 -169.5 q-36 -80 -98 -151 l-12 11 q58 97 86 204.5 q28 107.5 36.5 224.5 q8.5 117 6.5 242 l-119 0 l-8 30 l353 0 l45 57 ZM717 814 q-5 -22 -36 -23 q-11 -47 -24.5 -91.5 q-13.5 -44.5 -30.5 -85.5 l208 0 l46 60 q0 0 15 -12 q15 -12 35 -28.5 q20 -16.5 36 -32.5 q-3 -16 -26 -16 l-58 0 q-18 -115 -52.5 -216 q-34.5 -101 -93.5 -185 q43 -64 100.5 -115 q57.5 -51 133.5 -88 l-3 -9 q-22 -4 -38.5 -16 q-16.5 -12 -23.5 -35 q-67 42 -117 97 q-50 55 -87 119 q-54 -64 -126.5 -118 q-72.5 -54 -167.5 -97 l-10 13 q92 53 159.5 117.5 q67.5 64.5 116.5 138.5 q-34 73 -55.5 155.5 q-21.5 82.5 -35.5 171.5 q-24 -46 -51.5 -85.5 q-27.5 -39.5 -59.5 -71.5 l-15 9 q36 58 66 132.5 q30 74.5 52.5 160 q22.5 85.5 34.5 175.5 l108 -24 ZM614 585 l-16 -35 q17 -85 42 -163.5 q25 -78.5 62 -146.5 q42 77 67 163.5 q25 86.5 37 181.5 l-192 0 Z" /><glyph glyph-name="" unicode="&#x6570;" d="M506 773 q-3 -7 -12 -12 q-9 -5 -24 -4 q-22 -29 -48 -59 q-26 -30 -49 -52 l-16 10 q14 28 30.5 69.5 q16.5 41.5 30.5 82.5 l88 -35 ZM99 797 q50 -20 75.5 -43.5 q25.5 -23.5 32 -46 q6.5 -22.5 0 -38 q-6.5 -15.5 -21 -19 q-14.5 -3.5 -31.5 9.5 q-4 32 -24 69 q-20 37 -43 61 l12 7 ZM290 348 l-28 -53 l146 0 l39 37 l67 -61 q-11 -12 -40 -12 q-16 -47 -38.5 -88 q-22.5 -41 -52.5 -76 q40 -21 57.5 -42 q17.5 -21 18.5 -38 q1 -17 -10.5 -24.5 q-11.5 -7.5 -31.5 -1.5 q-14 17 -34 32 q-20 15 -44 29 q-50 -43 -119.5 -75 q-69.5 -32 -161.5 -52 l-6 16 q156 48 244 134 q-48 23 -100 40.5 q-52 17.5 -96 26.5 q16 21 36 55 q20 34 39 70 l-124 0 l-9 30 l149 0 q15 30 27.5 56.5 q12.5 26.5 19.5 44.5 l94 -31 q-3 -8 -11.5 -13.5 q-8.5 -5.5 -30.5 -3.5 ZM409 265 l-164 0 q-17 -29 -36 -59 q-19 -30 -36 -56 q50 -5 90 -14 q40 -9 71 -20 q26 32 44 69.5 q18 37.5 31 79.5 ZM731 812 q-5 -22 -36 -23 q-10 -46 -22.5 -90.5 q-12.5 -44.5 -27.5 -86.5 l196 0 l48 59 q0 0 14.5 -12 q14.5 -12 34.5 -28.5 q20 -16.5 36 -32.5 q-4 -16 -26 -16 l-68 0 q-13 -121 -43 -223.5 q-30 -102.5 -86 -186.5 q42 -59 97 -107.5 q55 -48.5 125 -84.5 l-3 -10 q-22 -3 -38 -14 q-16 -11 -24 -34 q-62 41 -109.5 92 q-47.5 51 -83.5 111 q-51 -61 -123 -111.5 q-72 -50.5 -170 -90.5 l-9 14 q94 50 161 110.5 q67 60.5 112 131.5 q-34 68 -56.5 145.5 q-22.5 77.5 -36.5 162.5 q-19 -40 -41 -75.5 q-22 -35.5 -47 -65.5 l-15 9 q31 61 57 139 q26 78 46 165.5 q20 87.5 31 176.5 l107 -24 ZM634 582 l-25 -60 q17 -81 43 -154.5 q26 -73.5 63 -138.5 q40 76 61 164.5 q21 88.5 30 188.5 l-172 0 ZM475 684 q0 0 13 -10.5 q13 -10.5 31.5 -26 q18.5 -15.5 32.5 -30.5 q-3 -16 -26 -16 l-209 0 l0 -16 q67 -20 105 -46 q38 -26 53 -51 q15 -25 13 -44 q-2 -19 -16.5 -25.5 q-14.5 -6.5 -34.5 4.5 q-14 34 -49.5 73 q-35.5 39 -70.5 68 l0 -150 q0 -7 -16 -15 q-16 -8 -33 -8 l-13 0 l0 142 q-40 -49 -93.5 -88.5 q-53.5 -39.5 -116.5 -71.5 l-10 16 q60 42 109 96.5 q49 54.5 81 115.5 l-170 0 l-8 30 l208 -1 l0 208 l98 -10 q-1 -10 -9 -17 q-8 -7 -27 -10 l0 -170 l116 0 l42 53 Z" /><glyph glyph-name="" unicode="&#x2f42;&#x6587;" d="M407 836 q72 -22 112 -51.5 q40 -29.5 55 -58.5 q15 -29 11.5 -50.5 q-3.5 -21.5 -20 -29 q-16.5 -7.5 -38.5 7.5 q-8 30 -29 62 q-21 32 -48 61.5 q-27 29.5 -53 50.5 l10 8 ZM700 590 l-425 0 q34 -115 92.5 -207.5 q58.5 -92.5 137.5 -164.5 q73 80 121 173 q48 93 74 199 ZM864 685 q0 0 15.5 -13 q15.5 -13 37.5 -31 q22 -18 39 -35 q-4 -16 -26 -16 l-146 0 q-34 -122 -91 -224.5 q-57 -102.5 -143 -185.5 q86 -68 192 -115 q106 -47 227 -76 l-3 -11 q-25 -1 -45 -15.5 q-20 -14.5 -30 -40.5 q-234 69 -389 214 q-85 -71 -197.5 -125 q-112.5 -54 -255.5 -92 l-8 16 q133 44 238 104.5 q105 60.5 184 135.5 q-74 81 -127 184 q-53 103 -82 231 l-198 0 l-9 30 l765 0 l52 65 Z" /><glyph glyph-name="" unicode="&#x65ad;" d="M539 705 q-3 -7 -11.5 -13 q-8.5 -6 -24.5 -6 q-18 -39 -40.5 -81.5 q-22.5 -42.5 -45.5 -73.5 l-17 8 q13 38 27 91 q14 53 25 104 l87 -29 ZM192 725 q50 -44 68 -84.5 q18 -40.5 14 -69 q-4 -28.5 -20.5 -37.5 q-16.5 -9 -34.5 10 q2 42 -11.5 92 q-13.5 50 -30.5 84 l15 5 ZM423 97 q0 0 13.5 -10.5 q13.5 -10.5 31.5 -26 q18 -15.5 33 -29.5 q-4 -16 -26 -16 l-324 0 l-24 -36 l-72 49 q10 10 28 20 l0 765 l97 -11 q-3 -20 -36 -26 l0 -732 l238 0 l41 53 ZM891 561 q0 0 14.5 -11.5 q14.5 -11.5 34 -28.5 q19.5 -17 35.5 -32 q-4 -16 -26 -16 l-105 0 l0 -531 q0 -4 -14 -12 q-14 -8 -39 -8 l-9 0 l0 551 l-139 0 l0 -56 q0 -64 -5.5 -131 q-5.5 -67 -23 -132 q-17.5 -65 -54 -124.5 q-36.5 -59.5 -98.5 -108.5 l-16 12 q60 67 88.5 145 q28.5 78 37.5 164 q9 86 9 175 l0 344 l73 -25 q40 14 80.5 31.5 q40.5 17.5 76 36 q35.5 18.5 59.5 33.5 l84 -71 q-13 -13 -51 -1 q-32 -10 -75.5 -20 q-43.5 -10 -91 -18.5 q-47.5 -8.5 -93.5 -14.5 l0 -210 l201 0 l47 59 ZM487 553 q0 0 12 -10 q12 -10 28 -24 q16 -14 29 -28 q-3 -16 -25 -16 l-156 0 l0 -40 q60 -30 93 -62.5 q33 -32.5 44.5 -60.5 q11.5 -28 7 -47.5 q-4.5 -19.5 -19 -24.5 q-14.5 -5 -32.5 9 q-4 26 -19 55.5 q-15 29.5 -34.5 58 q-19.5 28.5 -39.5 50.5 l0 -294 q0 -7 -14.5 -15 q-14.5 -8 -31.5 -8 l-11 0 l0 259 q-57 -115 -152 -204 l-12 15 q50 65 86 145 q36 80 58 164 l-132 0 l-8 30 l160 0 l0 310 l94 -11 q-2 -10 -9.5 -17 q-7.5 -7 -27.5 -10 l0 -272 l75 0 l37 48 Z" /><glyph glyph-name="" unicode="&#x65c5;" d="M168 836 q58 -22 88 -49 q30 -27 39 -53 q9 -26 2.5 -44.5 q-6.5 -18.5 -22 -23.5 q-15.5 -5 -34.5 10 q-2 26 -15.5 54.5 q-13.5 28.5 -31.5 54.5 q-18 26 -37 44 l11 7 ZM899 546 q-11 -11 -34 -1 q-36 -14 -89 -27 q-53 -13 -109 -24 q11 -53 25.5 -104.5 q14.5 -51.5 33.5 -99.5 q27 27 54 58 q27 31 50 60.5 q23 29.5 36 49.5 l81 -57 q-4 -6 -15.5 -9.5 q-11.5 -3.5 -25.5 2.5 q-28 -25 -75 -60.5 q-47 -35.5 -96 -65.5 q40 -90 98 -160.5 q58 -70.5 135 -109.5 l-2 -10 q-19 -4 -34.5 -19 q-15.5 -15 -23.5 -40 q-117 82 -176 224.5 q-59 142.5 -85 337.5 q-24 -4 -47.5 -8 q-23.5 -4 -46.5 -6 l0 -445 q33 10 71 21.5 q38 11.5 77 24.5 l4 -15 q-28 -17 -81.5 -50 q-53.5 -33 -114.5 -65 q-9 -19 -22 -25 l-43 77 q30 17 38 25.5 q8 8.5 8 21.5 l0 491 l96 -30 q65 19 131 45 q66 26 107 51 l75 -58 ZM384 716 q0 0 14.5 -12 q14.5 -12 34 -28.5 q19.5 -16.5 35.5 -32.5 q-4 -16 -27 -16 l-218 0 q-1 -40 -2 -78 q-1 -38 -3 -76 l102 0 l37 39 l76 -61 q-6 -6 -15.5 -10 q-9.5 -4 -25.5 -5 q-3 -148 -11 -245.5 q-8 -97.5 -21 -152 q-13 -54.5 -34 -75.5 q-17 -20 -42 -28.5 q-25 -8.5 -52 -8.5 q0 14 -2.5 27 q-2.5 13 -11.5 20 q-8 8 -27 13 q-19 5 -39 9 l0 17 q23 -2 53 -4 q30 -2 43 -2 q22 0 33 11 q20 20 32 123 q12 103 17 303 l-114 0 q-10 -148 -44.5 -279.5 q-34.5 -131.5 -120.5 -243.5 l-14 10 q54 102 80 214 q26 112 33.5 233 q7.5 121 4.5 250 l-104 0 l-8 29 l294 0 l47 60 ZM875 722 q0 0 14.5 -12 q14.5 -12 34.5 -28.5 q20 -16.5 36 -32.5 q-4 -16 -26 -16 l-386 0 q-57 -90 -128 -148 l-14 11 q48 60 90 150 q42 90 66 191 l98 -31 q-3 -8 -11.5 -14 q-8.5 -6 -25.5 -5 q-12 -33 -26.5 -64 q-14.5 -31 -30.5 -60 l262 0 l47 59 Z" /><glyph glyph-name="" unicode="&#x2f47;&#x65e5;" d="M735 370 l-467 0 l0 -322 l467 0 l0 322 ZM735 400 l0 310 l-467 0 l0 -310 l467 0 ZM202 739 l0 34 l73 -34 l450 0 l38 43 l83 -65 q-12 -14 -43 -20 l0 -737 q-1 -5 -20.5 -15 q-19.5 -10 -37.5 -10 l-10 0 l0 84 l-467 0 l0 -62 q0 -7 -15.5 -17 q-15.5 -10 -38.5 -10 l-12 0 l0 809 Z" /><glyph glyph-name="" unicode="&#x65e9;" d="M192 764 l0 33 l72 -33 l470 0 l37 41 l82 -63 q-12 -14 -42 -20 l0 -374 q-1 -4 -20.5 -13 q-19.5 -9 -36.5 -9 l-10 0 l0 52 l-213 0 l0 -155 l283 0 l53 66 q0 0 16.5 -13 q16.5 -13 39 -31.5 q22.5 -18.5 40.5 -35.5 q-1 -8 -8 -12 q-7 -4 -18 -4 l-406 0 l0 -251 q0 -4 -15 -12.5 q-15 -8.5 -41 -8.5 l-11 0 l0 272 l-417 0 l-9 30 l426 0 l0 155 l-207 0 l0 -38 q0 -5 -16.5 -14 q-16.5 -9 -37.5 -9 l-11 0 l0 447 ZM744 735 l-487 0 l0 -145 l487 0 l0 145 ZM257 408 l487 0 l0 153 l-487 0 l0 -153 Z" /><glyph glyph-name="" unicode="&#x65f6;" d="M450 447 q73 -39 112 -81 q39 -42 51 -80 q12 -38 5.5 -64 q-6.5 -26 -24.5 -33 q-18 -7 -40 12 q-1 41 -19 84.5 q-18 43.5 -44 84 q-26 40.5 -53 70.5 l12 7 ZM298 167 l0 260 l-154 0 l0 -260 l154 0 ZM82 780 l74 -33 l132 0 l37 41 l80 -63 q-11 -12 -44 -19 l0 -632 q-1 -5 -18.5 -14 q-17.5 -9 -34.5 -9 l-10 0 l0 86 l-154 0 l0 -112 q0 -4 -14 -13.5 q-14 -9.5 -39 -9.5 l-9 0 l0 778 ZM298 457 l0 260 l-154 0 l0 -260 l154 0 ZM885 658 q0 0 15 -12.5 q15 -12.5 35.5 -30.5 q20.5 -18 35.5 -35 q-4 -16 -26 -16 l-153 0 l0 -541 q0 -27 -7.5 -48 q-7.5 -21 -32.5 -34.5 q-25 -13.5 -78 -18.5 q-3 16 -9 28.5 q-6 12.5 -19 19.5 q-14 9 -38.5 16 q-24.5 7 -67.5 12 l0 15 q0 0 20.5 -1.5 q20.5 -1.5 48.5 -3 q28 -1.5 53.5 -3 q25.5 -1.5 34.5 -1.5 q17 0 23 5.5 q6 5.5 6 18.5 l0 536 l-333 0 l-8 30 l341 0 l0 232 l103 -11 q-1 -11 -9.5 -18 q-8.5 -7 -27.5 -9 l0 -194 l46 0 l47 64 Z" /><glyph glyph-name="" unicode="&#x660e;" d="M837 745 l-257 0 l0 -200 l257 0 l0 200 ZM516 774 l0 33 l75 -33 l236 0 l33 42 l85 -63 q-11 -14 -44 -21 l0 -712 q0 -26 -7 -46 q-7 -20 -31 -33 q-24 -13 -75 -19 q-3 16 -9 28.5 q-6 12.5 -18 20.5 q-13 8 -36.5 14.5 q-23.5 6.5 -63.5 11.5 l0 16 q0 0 19 -1.5 q19 -1.5 46 -3 q27 -1.5 51 -3 q24 -1.5 33 -1.5 q16 0 21.5 5.5 q5.5 5.5 5.5 18.5 l0 253 l-270 0 q-11 -69 -39 -134 q-28 -65 -79 -122.5 q-51 -57.5 -134 -104.5 l-14 12 q91 69 137 150 q46 81 62 174.5 q16 93.5 16 197.5 l0 320 ZM837 516 l-257 0 l0 -61 q0 -36 -1.5 -72.5 q-1.5 -36.5 -6.5 -72.5 l265 0 l0 206 ZM143 728 l0 -224 l188 0 l0 224 l-188 0 ZM80 758 l0 31 l75 -31 l166 0 l36 40 l80 -62 q-9 -13 -43 -21 l0 -558 q-1 -5 -19 -14.5 q-18 -9.5 -35 -9.5 l-9 0 l0 80 l-188 0 l0 -97 q0 -4 -14.5 -13.5 q-14.5 -9.5 -38.5 -9.5 l-10 0 l0 665 ZM143 475 l0 -232 l188 0 l0 232 l-188 0 Z" /><glyph glyph-name="" unicode="&#x661f;" d="M738 610 l-462 0 l0 -113 l462 0 l0 113 ZM738 639 l0 110 l-462 0 l0 -110 l462 0 ZM209 777 l0 34 l72 -34 l447 0 l36 42 l83 -63 q-12 -14 -42 -20 l0 -290 q-1 -4 -21 -12.5 q-20 -8.5 -36 -8.5 l-10 0 l0 43 l-462 0 l0 -30 q0 -4 -18 -13 q-18 -9 -38 -9 l-11 0 l0 361 ZM279 442 l96 -42 q-4 -7 -13.5 -12 q-9.5 -5 -25.5 -2 q-21 -37 -45 -72 l186 0 l0 125 l103 -11 q-1 -10 -9.5 -17.5 q-8.5 -7.5 -26.5 -10.5 l0 -86 l213 0 l47 59 q0 0 14.5 -11.5 q14.5 -11.5 34.5 -28.5 q20 -17 36 -33 q-4 -15 -27 -15 l-318 0 l0 -128 l193 0 l45 59 q0 0 14.5 -11.5 q14.5 -11.5 34.5 -28.5 q20 -17 36 -32 q-4 -16 -27 -16 l-296 0 l0 -151 l276 0 l49 63 q0 0 15 -12.5 q15 -12.5 36 -30 q21 -17.5 38 -33.5 q-4 -16 -27 -16 l-879 0 l-9 29 l434 0 l0 151 l-284 0 l-8 29 l292 0 l0 128 l-208 0 q-75 -94 -167 -148 l-12 12 q53 48 104 126 q51 78 85 167 Z" /><glyph glyph-name="" unicode="&#x662f;" d="M718 616 l-428 0 l0 -112 l428 0 l0 112 ZM718 645 l0 109 l-428 0 l0 -109 l428 0 ZM223 783 l0 33 l72 -33 l413 0 l38 41 l82 -63 q-10 -14 -43 -20 l0 -289 q-1 -4 -20 -12.5 q-19 -8.5 -36 -8.5 l-11 0 l0 44 l-428 0 l0 -32 q0 -5 -18.5 -13 q-18.5 -8 -38.5 -8 l-10 0 l0 361 ZM267 308 l104 -25 q-8 -21 -39 -20 q-16 -53 -42 -103 q32 -64 75 -96 q43 -32 103 -45 l0 339 l-413 0 l-9 29 l771 0 l48 61 q0 0 15 -12 q15 -12 36 -29.5 q21 -17.5 38 -33.5 q-4 -15 -26 -15 l-393 0 l0 -139 l195 0 l48 62 q0 0 15 -12 q15 -12 36 -29.5 q21 -17.5 38 -33.5 q-4 -16 -27 -16 l-305 0 l0 -181 q45 -3 100 -3 q28 0 71.5 0 q43.5 0 92 0 q48.5 0 92.5 0.5 q44 0.5 73 1.5 l0 -14 q-18 -3 -27.5 -16 q-9.5 -13 -11.5 -32 q-24 0 -62 0 q-38 0 -81.5 0 q-43.5 0 -83 0 q-39.5 0 -66.5 0 q-92 0 -158.5 15 q-66.5 15 -113.5 57 q-47 42 -81 121 q-36 -63 -93 -119.5 q-57 -56.5 -140 -97.5 l-10 12 q68 46 114.5 108.5 q46.5 62.5 74.5 131 q28 68.5 42 134.5 Z" /><glyph glyph-name="" unicode="&#x663c;" d="M857 61 q0 0 16.5 -12.5 q16.5 -12.5 38.5 -30.5 q22 -18 40 -34 q-4 -16 -28 -16 l-852 0 l-8 29 l743 0 l50 64 ZM192 788 l0 24 l78 -34 l476 0 l36 41 l83 -63 q-5 -6 -17 -11 q-12 -5 -26 -8 l0 -195 q-1 -4 -20.5 -11 q-19.5 -7 -35.5 -7 l-10 0 l0 43 l-109 0 q47 -85 130 -147 q83 -62 178 -90 l-1 -10 q-19 -4 -33.5 -18 q-14.5 -14 -20.5 -37 q-93 42 -163 118 l0 -294 q-1 -4 -20 -12 q-19 -8 -35 -8 l-10 0 l0 43 l-369 0 l0 -40 q0 -4 -17 -12.5 q-17 -8.5 -37 -8.5 l-10 0 l0 399 l70 -32 l357 0 l23 24 q-19 29 -35 60 q-16 31 -29 65 l-375 0 q-7 -58 -27.5 -119.5 q-20.5 -61.5 -60.5 -120 q-40 -58.5 -107 -107.5 l-12 12 q65 72 96.5 150 q31.5 78 42 156.5 q10.5 78.5 10.5 149.5 l0 100 ZM672 389 l-369 0 l0 -109 l369 0 l0 109 ZM303 141 l369 0 l0 109 l-369 0 l0 -109 ZM253 596 l503 0 l0 153 l-499 0 l0 -61 q0 -21 -1 -44 q-1 -23 -3 -48 Z" /><glyph glyph-name="" unicode="&#x663e;" d="M906 323 q-4 -7 -13.5 -12 q-9.5 -5 -25.5 -4 q-37 -67 -83.5 -132 q-46.5 -65 -93.5 -110 l-15 10 q22 35 45.5 82 q23.5 47 46 100.5 q22.5 53.5 39.5 105.5 l100 -40 ZM131 353 q68 -49 105 -94.5 q37 -45.5 50.5 -83 q13.5 -37.5 8.5 -62 q-5 -24.5 -21 -31 q-16 -6.5 -36 10.5 q-6 39 -26 85 q-20 46 -45.5 90 q-25.5 44 -49.5 78 l14 7 ZM868 63 q0 0 16 -12.5 q16 -12.5 38 -30.5 q22 -18 40 -35 q-4 -16 -26 -16 l-879 0 l-9 29 l312 0 l0 423 l97 -10 q-3 -21 -32 -24 l0 -389 l147 0 l0 423 l97 -10 q-1 -10 -8 -16.5 q-7 -6.5 -24 -8.5 l0 -388 l179 0 l52 65 ZM738 748 l-481 0 l0 -119 l481 0 l0 119 ZM257 414 q0 -4 -17 -12.5 q-17 -8.5 -37 -8.5 l-11 0 l0 418 l70 -33 l466 0 l37 41 l81 -63 q-10 -14 -42 -20 l0 -310 q-1 -4 -20 -12.5 q-19 -8.5 -36 -8.5 l-10 0 l0 46 l-481 0 l0 -37 ZM257 481 l481 0 l0 119 l-481 0 l0 -119 Z" /><glyph glyph-name="" unicode="&#x666f;" d="M626 124 q103 -14 163 -39 q60 -25 87 -52.5 q27 -27.5 28.5 -50 q1.5 -22.5 -13.5 -33 q-15 -10.5 -38 -0.5 q-25 34 -86 79.5 q-61 45.5 -146 79.5 l5 16 ZM384 95 q-4 -7 -12 -9.5 q-8 -2.5 -24 1.5 q-29 -27 -73.5 -53.5 q-44.5 -26.5 -97 -49.5 q-52.5 -23 -105.5 -38 l-9 13 q45 22 90 53 q45 31 83.5 64.5 q38.5 33.5 61.5 63.5 l86 -45 ZM859 508 q0 0 14.5 -11 q14.5 -11 34.5 -27 q20 -16 36 -32 q-4 -16 -27 -16 l-850 0 l-8 30 l445 0 q-4 1 -7.5 2 q-3.5 1 -7.5 3 q-6 20 -24 41 q-18 21 -38 31 l9 9 q48 0 72.5 -12.5 q24.5 -12.5 30.5 -29 q6 -16.5 -2 -29.5 q-8 -13 -24 -15 l301 0 l45 56 ZM306 155 q0 -4 -18 -12.5 q-18 -8.5 -38 -8.5 l-9 0 l0 248 l70 -31 l381 0 l36 39 l82 -62 q-5 -5 -16.5 -10.5 q-11.5 -5.5 -26.5 -8.5 l0 -148 q-1 -4 -20 -12 q-19 -8 -35 -8 l-10 0 l0 35 l-170 0 l0 -161 q0 -25 -7 -44.5 q-7 -19.5 -28.5 -31.5 q-21.5 -12 -65.5 -17 q-1 14 -5 26.5 q-4 12.5 -14 19.5 q-10 8 -28.5 13.5 q-18.5 5.5 -50.5 8.5 l0 16 q0 0 14.5 -1 q14.5 -1 34 -2.5 q19.5 -1.5 38 -2.5 q18.5 -1 25.5 -1 q13 0 17 4 q4 4 4 13 l0 160 l-160 0 l0 -21 ZM702 321 l-396 0 l0 -115 l396 0 l0 115 ZM727 754 l-446 0 l0 -75 l446 0 l0 75 ZM281 518 q0 -5 -17 -13 q-17 -8 -37 -8 l-10 0 l0 319 l70 -32 l430 0 l36 40 l82 -62 q-12 -13 -43 -20 l0 -214 q-1 -5 -20 -13 q-19 -8 -35 -8 l-10 0 l0 36 l-446 0 l0 -25 ZM281 573 l446 0 l0 77 l-446 0 l0 -77 Z" /><glyph glyph-name="" unicode="&#x66b4;&#xfa06;" d="M858 397 q0 0 14.5 -11 q14.5 -11 35 -27 q20.5 -16 36.5 -32 q-3 -16 -26 -16 l-247 0 q37 -34 87.5 -62.5 q50.5 -28.5 106 -49 q55.5 -20.5 108.5 -31.5 l-1 -11 q-42 -8 -54 -54 q-82 29 -156.5 82.5 q-74.5 53.5 -121.5 125.5 l-249 0 q-38 -42 -83 -76 q47 -9 71.5 -26 q24.5 -17 31.5 -35 q7 -18 1 -31.5 q-6 -13.5 -20 -18 q-14 -4.5 -31 7.5 q-5 25 -24.5 51.5 q-19.5 26.5 -41.5 42.5 q-52 -37 -115.5 -66.5 q-63.5 -29.5 -134.5 -51.5 l-9 18 q82 34 151.5 81.5 q69.5 47.5 118.5 103.5 l-233 0 l-9 30 l274 0 l0 95 l-199 0 l-8 30 l207 0 l0 80 l96 -10 q-1 -9 -8 -15.5 q-7 -6.5 -24 -8.5 l0 -46 l198 0 l0 80 l96 -10 q-1 -9 -8 -15.5 q-7 -6.5 -24 -8.5 l0 -46 l85 0 l45 53 q0 0 14 -10.5 q14 -10.5 33.5 -26 q19.5 -15.5 35.5 -30.5 q-4 -16 -26 -16 l-187 0 l0 -95 l148 0 l46 56 ZM600 436 l-198 0 l0 -95 l198 0 l0 95 ZM727 761 l-448 0 l0 -74 l448 0 l0 74 ZM279 539 q0 -5 -17.5 -13 q-17.5 -8 -37.5 -8 l-10 0 l0 304 l70 -32 l433 0 l37 41 l81 -63 q-4 -6 -16 -11 q-12 -5 -27 -8 l0 -196 q-1 -4 -20 -12 q-19 -8 -35 -8 l-10 0 l0 28 l-448 0 l0 -22 ZM279 590 l448 0 l0 68 l-448 0 l0 -68 ZM563 287 q-2 -10 -10 -16 q-8 -6 -25 -8 l0 -131 l28 -4 q22 27 44.5 60 q22.5 33 33.5 55 l79 -52 q-2 -5 -12.5 -8.5 q-10.5 -3.5 -24.5 0.5 q-16 -13 -40.5 -29 q-24.5 -16 -50.5 -32 q81 -16 128.5 -38.5 q47.5 -22.5 68.5 -46 q21 -23.5 21.5 -41.5 q0.5 -18 -12.5 -26.5 q-13 -8.5 -33 -0.5 q-28 29 -89 69 q-61 40 -141 72 l0 -105 q0 -25 -5.5 -43 q-5.5 -18 -24.5 -28.5 q-19 -10.5 -59 -14.5 q-1 12 -5 23 q-4 11 -13 18 q-8 7 -24.5 12.5 q-16.5 5.5 -43.5 8.5 l0 16 q0 0 12.5 -1 q12.5 -1 29.5 -2 q17 -1 32.5 -2 q15.5 -1 21.5 -1 q12 0 15.5 3.5 q3.5 3.5 3.5 13.5 l0 94 q-45 -23 -105 -52 q-60 -29 -137 -64 q-3 -19 -19 -25 l-50 73 q29 7 77 20.5 q48 13.5 108.5 32 q60.5 18.5 125.5 38.5 l0 173 l95 -11 Z" /><glyph glyph-name="" unicode="&#x6700;" d="M668 90 q-70 86 -104 219 l-58 0 l-9 29 l291 0 l41 41 l72 -64 q-5 -7 -14.5 -9.5 q-9.5 -2.5 -26.5 -3.5 q-20 -57 -49 -108.5 q-29 -51.5 -70 -96.5 q46 -34 102.5 -58 q56.5 -24 121.5 -40 l-1 -10 q-21 -4 -36.5 -18 q-15.5 -14 -22.5 -39 q-63 23 -114 53.5 q-51 30.5 -92 70.5 q-41 -38 -94 -69.5 q-53 -31.5 -118 -55.5 l-9 15 q58 29 105.5 65 q47.5 36 84.5 79 ZM700 130 q30 41 52.5 86 q22.5 45 37.5 93 l-204 0 q37 -108 114 -179 ZM870 513 q0 0 15 -12 q15 -12 35.5 -29.5 q20.5 -17.5 36.5 -33.5 q-3 -16 -26 -16 l-460 0 l0 -318 l97 15 l3 -18 l-100 -26 l0 -134 q-1 -4 -15 -12 q-14 -8 -38 -8 l-10 0 l0 138 q-65 -16 -142.5 -34.5 q-77.5 -18.5 -168.5 -39.5 q-8 -18 -24 -22 l-32 83 q22 2 52.5 5.5 q30.5 3.5 68.5 7.5 l0 363 l-111 0 l-9 29 l780 0 l48 62 ZM224 68 l184 26 l0 84 l-184 0 l0 -110 ZM224 422 l0 -91 l184 0 l0 91 l-184 0 ZM224 208 l184 0 l0 94 l-184 0 l0 -94 ZM731 753 l-455 0 l0 -81 l455 0 l0 81 ZM276 502 q0 -5 -17 -13 q-17 -8 -38 -8 l-10 0 l0 334 l71 -32 l439 0 l37 40 l81 -62 q-12 -14 -43 -20 l0 -232 q-1 -4 -20 -12.5 q-19 -8.5 -35 -8.5 l-10 0 l0 39 l-455 0 l0 -25 ZM276 557 l455 0 l0 85 l-455 0 l0 -85 Z" /><glyph glyph-name="" unicode="&#x6709;" d="M423 841 l104 -32 q-3 -10 -11 -14 q-8 -4 -28 -3 q-10 -27 -22.5 -54.5 q-12.5 -27.5 -26.5 -55.5 l378 0 l49 61 q0 0 15.5 -12 q15.5 -12 37 -29 q21.5 -17 38.5 -33 q-4 -16 -27 -16 l-506 0 q-19 -34 -41 -68.5 q-22 -34.5 -47 -68.5 l19 -8 l366 0 l35 44 l89 -66 q-6 -7 -18 -13 q-12 -6 -29 -9 l0 -446 q0 -26 -6.5 -46 q-6.5 -20 -29.5 -32.5 q-23 -12.5 -71 -17.5 q-2 16 -6.5 29 q-4.5 13 -15.5 21 q-11 8 -31.5 14.5 q-20.5 6.5 -54.5 10.5 l0 16 q0 0 16 -1 q16 -1 38.5 -3 q22.5 -2 42.5 -3 q20 -1 28 -1 q15 0 19.5 5 q4.5 5 4.5 17 l0 139 l-390 0 l0 -221 q0 -4 -15 -13.5 q-15 -9.5 -38 -9.5 l-10 0 l0 525 q-47 -52 -104 -99 q-57 -47 -123 -84 l-11 13 q101 72 178.5 171 q77.5 99 129.5 205 l-292 0 l-9 29 l315 0 q19 41 34 81 q15 40 26 78 ZM342 323 l0 -128 l390 0 l0 128 l-390 0 ZM342 352 l390 0 l0 127 l-390 0 l0 -127 Z" /><glyph glyph-name="" unicode="&#x670d;" d="M481 781 l0 33 l76 -33 l269 0 l36 38 l73 -59 q-9 -11 -36 -15 q-2 -87 -10 -137.5 q-8 -50.5 -31 -68.5 q-16 -13 -39 -18.5 q-23 -5.5 -50 -5.5 q0 13 -3.5 24 q-3.5 11 -13.5 18 q-10 7 -35 13 q-25 6 -50 8 l1 17 q18 -1 43 -3 q25 -2 46.5 -3.5 q21.5 -1.5 30.5 -1.5 q22 0 29 8 q9 9 13 49.5 q4 40.5 5 107.5 l-291 0 l0 -300 l81 0 l208 0 l42 41 l71 -64 q-9 -11 -40 -14 q-18 -75 -47 -146.5 q-29 -71.5 -76 -136.5 q82 -86 196 -135 l-3 -10 q-45 -5 -65 -54 q-100 60 -167 149 q-36 -40 -81 -76 q-45 -36 -101 -65 l-11 14 q51 35 92 77 q41 42 74 91 q-75 120 -107 300 l-66 0 l0 -479 q0 -4 -14.5 -13.5 q-14.5 -9.5 -38.5 -9.5 l-10 0 l0 860 ZM837 423 l-206 0 q36 -146 117 -250 q32 59 54 122 q22 63 35 128 ZM175 752 l0 -195 l148 0 l0 195 l-148 0 ZM112 781 l0 33 l75 -33 l127 0 l32 40 l79 -61 q-10 -12 -39 -18 l0 -723 q0 -26 -6 -45.5 q-6 -19.5 -26.5 -31.5 q-20.5 -12 -64.5 -17 q-2 15 -6.5 28 q-4.5 13 -13.5 20 q-10 8 -28 14 q-18 6 -48 10 l0 16 q0 0 14 -1 q14 -1 33 -2.5 q19 -1.5 36.5 -2.5 q17.5 -1 23.5 -1 q14 0 18.5 5 q4.5 5 4.5 16 l0 267 l-153 0 q-7 -97 -32 -195 q-25 -98 -84 -178 l-18 9 q37 82 53 175 q16 93 19.5 190 q3.5 97 3.5 190 l0 296 ZM175 528 l0 -43 q0 -37 -0.5 -78 q-0.5 -41 -2.5 -84 l151 0 l0 205 l-148 0 Z" /><glyph glyph-name="" unicode="&#x673a;" d="M488 767 l0 34 l76 -34 l168 0 l37 43 l80 -69 q-10 -12 -43 -17 l0 -691 q0 -12 3.5 -17 q3.5 -5 16.5 -5 l31 0 q11 0 20 0 q9 0 13 1 q4 1 7 2.5 q3 1.5 6 6.5 q3 7 7.5 28.5 q4.5 21.5 9 48.5 q4.5 27 8.5 52 l13 0 l4 -133 q15 -6 20.5 -12 q5.5 -6 5.5 -16 q0 -19 -24.5 -28 q-24.5 -9 -90.5 -9 l-46 0 q-43 0 -55.5 15 q-12.5 15 -12.5 49 l0 722 l-191 0 l0 -320 q0 -70 -7 -139.5 q-7 -69.5 -29 -134 q-22 -64.5 -65.5 -121.5 q-43.5 -57 -117.5 -102 l-15 11 q74 63 110.5 138.5 q36.5 75.5 48.5 162.5 q12 87 12 184 l0 350 ZM208 836 l100 -10 q-2 -11 -9.5 -18 q-7.5 -7 -27.5 -10 l0 -181 l46 0 l44 58 q0 0 14 -11.5 q14 -11.5 33.5 -28.5 q19.5 -17 33.5 -32 q-1 -16 -25 -16 l-146 0 l0 -91 q64 -25 98.5 -53.5 q34.5 -28.5 46.5 -55.5 q12 -27 6.5 -45.5 q-5.5 -18.5 -21.5 -24 q-16 -5.5 -36 9.5 q-8 35 -36.5 77 q-28.5 42 -57.5 73 l0 -531 q0 -7 -16 -15.5 q-16 -8.5 -33 -8.5 l-14 0 l0 492 q-60 -147 -158 -257 l-15 11 q56 88 94 197.5 q38 109.5 60 221.5 l-140 0 l-8 30 l167 0 l0 219 Z" /><glyph glyph-name="" unicode="&#x6781;" d="M673 504 q16 33 34.5 76.5 q18.5 43.5 36 88 q17.5 44.5 29.5 79.5 l-229 0 l-2 -145 q22 -124 64.5 -234 q42.5 -110 109.5 -195 q47 63 79 136 q32 73 51 154 l-119 0 l-26 -25 l-64 49 q14 9 36 16 ZM837 737 q-11 -31 -29 -74 q-18 -43 -37.5 -87.5 q-19.5 -44.5 -36.5 -81.5 l108 0 l42 40 l71 -66 q-9 -11 -40 -12 q-25 -91 -65 -172.5 q-40 -81.5 -100 -149.5 q45 -48 100 -84.5 q55 -36.5 122 -59.5 l-2 -10 q-17 -4 -32.5 -18 q-15.5 -14 -23.5 -36 q-64 29 -116.5 69.5 q-52.5 40.5 -93.5 90.5 q-55 -51 -126 -92.5 q-71 -41.5 -162 -71.5 l-9 15 q84 35 150.5 82.5 q66.5 47.5 117.5 104.5 q-50 74 -83.5 165.5 q-33.5 91.5 -53.5 200.5 q-6 -113 -26 -215 q-20 -102 -65 -191.5 q-45 -89.5 -127 -164.5 l-16 17 q68 79 104 171 q36 92 50.5 195 q14.5 103 17 215.5 q2.5 112.5 2.5 230.5 l-106 0 l-9 29 l409 0 l32 37 l75 -62 q-5 -6 -16.5 -9.5 q-11.5 -3.5 -25.5 -5.5 ZM356 664 q0 0 14 -11.5 q14 -11.5 33 -28 q19 -16.5 34 -32.5 q-4 -16 -25 -16 l-142 0 l0 -95 q61 -26 93.5 -55.5 q32.5 -29.5 43 -56 q10.5 -26.5 5 -44.5 q-5.5 -18 -21 -23 q-15.5 -5 -34.5 9 q-9 35 -34.5 76.5 q-25.5 41.5 -51.5 72.5 l0 -514 q0 -7 -16.5 -16 q-16.5 -9 -33.5 -9 l-13 0 l0 484 q-30 -73 -71 -139.5 q-41 -66.5 -95 -124.5 l-15 14 q62 87 102 196.5 q40 109.5 62 224.5 l-138 0 l-8 30 l163 0 l0 237 l98 -11 q-1 -11 -8.5 -18 q-7.5 -7 -26.5 -10 l0 -198 l43 0 l43 58 Z" /><glyph glyph-name="" unicode="&#x67d3;" d="M128 492 q10 0 14.5 2 q4.5 2 14.5 12 q6 8 12 15 q6 7 17.5 21 q11.5 14 34.5 42 q23 28 62.5 77 q39.5 49 101.5 125 l16 -8 q-13 -21 -33 -50.5 q-20 -29.5 -43 -62 q-23 -32.5 -44 -63 q-21 -30.5 -36.5 -53 q-15.5 -22.5 -20.5 -31.5 q-9 -16 -16 -31.5 q-7 -15.5 -7 -28.5 q0 -19 11 -40 q11 -21 9 -54 q0 -47 -50 -47 q-24 0 -30 31 q7 51 3 77.5 q-4 26.5 -20 33.5 q-11 5 -21.5 7 q-10.5 2 -24.5 3 l0 23 q0 0 10 0 q10 0 22.5 0 q12.5 0 17.5 0 ZM133 827 q56 -3 88 -17.5 q32 -14.5 44.5 -33 q12.5 -18.5 10 -35 q-2.5 -16.5 -16 -23.5 q-13.5 -7 -33.5 2 q-12 27 -42 54 q-30 27 -60 43 l9 10 ZM70 705 q55 -2 86 -16 q31 -14 41.5 -32 q10.5 -18 6.5 -34 q-4 -16 -18 -22.5 q-14 -6.5 -34 4.5 q-10 26 -36.5 51.5 q-26.5 25.5 -53.5 39.5 l8 9 ZM527 838 l112 -8 q-4 -24 -37 -29 q-1 -26 -2.5 -52 q-1.5 -26 -4.5 -51 l109 0 l35 37 l71 -61 q-9 -11 -33 -15 l0 -194 q0 -7 3.5 -10 q3.5 -3 16.5 -3 l41 0 q14 0 24.5 0 q10.5 0 14.5 0 q5 1 8 2.5 q3 1.5 6 8.5 q4 10 11 42.5 q7 32.5 14 68.5 l13 0 l2 -114 q14 -6 18.5 -12 q4.5 -6 4.5 -15 q0 -20 -25 -30 q-25 -10 -94 -10 l-56 0 q-43 0 -54.5 13.5 q-11.5 13.5 -11.5 44.5 l0 217 l-123 0 q-13 -71 -46.5 -133.5 q-33.5 -62.5 -97 -112.5 q-63.5 -50 -168.5 -85 l-9 13 q83 37 135 85.5 q52 48.5 80 107.5 q28 59 38 125 l-158 0 l-9 30 l170 0 q4 34 4 69 q0 35 -2 71 ZM464 403 l104 -11 q-1 -10 -9.5 -17.5 q-8.5 -7.5 -27.5 -9.5 l0 -86 l282 0 l51 62 q0 0 16 -12 q16 -12 38 -29.5 q22 -17.5 40 -34.5 q-4 -16 -28 -16 l-368 0 q47 -54 114.5 -99.5 q67.5 -45.5 143.5 -79.5 q76 -34 150 -52 l-2 -11 q-20 -4 -36.5 -19.5 q-16.5 -15.5 -24.5 -41.5 q-112 43 -211.5 121 q-99.5 78 -161.5 182 l-3 0 l0 -304 q0 -7 -17.5 -15 q-17.5 -8 -37.5 -8 l-12 0 l0 289 q-74 -87 -182 -154.5 q-108 -67.5 -237 -111.5 l-9 15 q114 53 209.5 128.5 q95.5 75.5 156.5 160.5 l-345 0 l-8 30 l415 0 l0 124 Z" /><glyph glyph-name="" unicode="&#x6837;" d="M460 834 q61 -27 93 -58 q32 -31 41.5 -59 q9.5 -28 3 -47 q-6.5 -19 -23.5 -23.5 q-17 -4.5 -37 11.5 q-5 28 -19.5 58.5 q-14.5 30.5 -33 59.5 q-18.5 29 -36.5 51 l12 7 ZM340 664 q0 0 14 -11.5 q14 -11.5 32.5 -28 q18.5 -16.5 33.5 -32.5 q-3 -16 -26 -16 l-134 0 l0 -89 q59 -26 90 -54.5 q31 -28.5 41.5 -54.5 q10.5 -26 5 -44 q-5.5 -18 -21 -22.5 q-15.5 -4.5 -34.5 9.5 q-7 33 -31 72 q-24 39 -50 70 l0 -514 q0 -7 -16 -15.5 q-16 -8.5 -33 -8.5 l-14 0 l0 475 q-30 -73 -71.5 -139.5 q-41.5 -66.5 -95.5 -123.5 l-14 14 q62 88 103 199 q41 111 63 226 l-122 0 l-8 30 l145 0 l0 233 l99 -11 q-1 -11 -8.5 -18 q-7.5 -7 -27.5 -10 l0 -194 l36 0 l44 58 ZM858 686 q0 0 14.5 -11.5 q14.5 -11.5 34.5 -28 q20 -16.5 35 -31.5 q-4 -16 -25 -16 l-231 0 l0 -164 l99 0 l45 58 q0 0 14.5 -11.5 q14.5 -11.5 34 -28 q19.5 -16.5 35.5 -32.5 q-4 -16 -27 -16 l-201 0 l0 -190 l155 0 l46 59 q0 0 14.5 -11.5 q14.5 -11.5 34.5 -28 q20 -16.5 36 -32.5 q-4 -16 -27 -16 l-259 0 l0 -245 q0 -4 -14 -12 q-14 -8 -39 -8 l-10 0 l0 265 l-242 0 l-8 29 l250 0 l0 190 l-174 0 l-8 30 l182 0 l0 164 l-197 0 l-8 30 l275 0 q14 32 29 69 q15 37 29 74 q14 37 24 67 l107 -40 q-8 -20 -39 -16 q-23 -32 -56 -74 q-33 -42 -67 -80 l93 0 l45 57 Z" /><glyph glyph-name="" unicode="&#x6848;" d="M437 847 q53 -4 81 -19.5 q28 -15.5 36 -34 q8 -18.5 1.5 -34 q-6.5 -15.5 -22 -20.5 q-15.5 -5 -35.5 8 q-5 25 -26 51 q-21 26 -44 40 l9 9 ZM866 304 q0 0 14.5 -12 q14.5 -12 35 -28.5 q20.5 -16.5 36.5 -32.5 q-4 -16 -27 -16 l-367 0 q48 -48 116.5 -87.5 q68.5 -39.5 146 -68 q77.5 -28.5 152.5 -42.5 l-1 -12 q-22 -4 -38 -19.5 q-16 -15.5 -22 -41.5 q-115 37 -216 105.5 q-101 68.5 -165 162.5 l0 -267 q0 -5 -17.5 -13 q-17.5 -8 -37.5 -8 l-12 0 l0 251 q-78 -77 -187 -135.5 q-109 -58.5 -237 -96.5 l-9 16 q115 46 213 113 q98 67 163 143 l-347 0 l-9 30 l413 -1 l0 101 q-75 -23 -171 -36.5 q-96 -13.5 -217 -21.5 l-4 18 q131 15 236 38 q105 23 181 62 q-57 12 -119.5 22.5 q-62.5 10.5 -130.5 18.5 q17 19 39 46 q22 27 44 58 l-218 0 l-9 30 l249 0 q24 34 44 65 q20 31 31 52 l97 -42 q-4 -7 -14 -11.5 q-10 -4.5 -30 -1.5 l-47 -62 l363 0 l45 55 q0 0 14 -11 q14 -11 33.5 -27 q19.5 -16 35.5 -31 q-4 -16 -26 -16 l-162 0 q-40 -73 -101 -122 q98 -17 151.5 -36 q53.5 -19 73.5 -37 q20 -18 16.5 -30.5 q-3.5 -12.5 -22 -16.5 q-18.5 -4 -40.5 4 q-93 43 -240 76 q-46 -24 -100 -42 l102 -11 q-1 -10 -9.5 -17 q-8.5 -7 -27.5 -10 l0 -63 l288 0 l47 59 ZM329 461 q64 -4 118 -9 q54 -5 100 -11 q63 43 100 109 l-245 0 q-18 -23 -37 -46 q-19 -23 -36 -43 ZM164 778 q7 -22 9 -43 l657 0 l40 41 l74 -71 q-9 -7 -38 -9 q-21 -19 -55 -40 q-34 -21 -61 -33 l-12 8 q11 14 24.5 35 q13.5 21 23.5 40 l-651 0 q-1 -36 -14.5 -59.5 q-13.5 -23.5 -31.5 -34.5 q-17 -9 -37.5 -7.5 q-20.5 1.5 -27.5 17.5 q-6 15 2.5 28.5 q8.5 13.5 23.5 20.5 q25 12 42 41.5 q17 29.5 14 64.5 l18 1 Z" /><glyph glyph-name="" unicode="&#x6b22;" d="M732 527 q-3 -9 -12 -15.5 q-9 -6.5 -27 -6.5 l-1 -10 q11 -104 39 -196.5 q28 -92.5 86 -169.5 q58 -77 158 -133 l-3 -11 q-25 -4 -41.5 -17.5 q-16.5 -13.5 -22.5 -42.5 q-74 52 -119.5 125 q-45.5 73 -69.5 160.5 q-24 87.5 -36 180.5 q-8 -64 -26 -126.5 q-18 -62.5 -52.5 -122 q-34.5 -59.5 -92.5 -115.5 q-58 -56 -147 -107 l-14 18 q93 66 147.5 138 q54.5 72 82.5 149 q28 77 37.5 159 q9.5 82 12.5 169 l101 -26 ZM660 809 q-2 -8 -10.5 -14.5 q-8.5 -6.5 -25.5 -6.5 q-10 -39 -23 -77 q-13 -38 -27 -75 l272 0 l45 44 l79 -76 q-6 -5 -15 -6.5 q-9 -1.5 -25 -3.5 q-15 -23 -37.5 -54.5 q-22.5 -31.5 -46.5 -62.5 q-24 -31 -44 -53 l-15 6 q9 23 20 53.5 q11 30.5 22.5 63 q11.5 32.5 19.5 59.5 l-287 0 q-28 -67 -62.5 -126 q-34.5 -59 -74.5 -105 l-15 10 q30 57 57.5 130 q27.5 73 50 155 q22.5 82 35.5 166 l107 -27 ZM87 554 q62 -43 112 -85 q50 -42 87 -81 q23 68 38.5 138 q15.5 70 25.5 139 l-296 0 l-9 30 l300 0 l40 41 l72 -67 q-9 -11 -39 -14 q-13 -78 -33.5 -158.5 q-20.5 -80.5 -51.5 -158.5 q58 -68 84 -122.5 q26 -54.5 27.5 -89.5 q1.5 -35 -14 -46.5 q-15.5 -11.5 -39.5 6.5 q-10 41 -33.5 87.5 q-23.5 46.5 -54.5 94.5 q-43 -92 -105.5 -175.5 q-62.5 -83.5 -148.5 -150.5 l-14 12 q76 75 132.5 170 q56.5 95 96.5 200 q-46 62 -96.5 119.5 q-50.5 57.5 -95.5 101.5 l15 9 Z" /><glyph glyph-name="" unicode="&#x6b3e;" d="M216 201 q-3 -8 -11.5 -14 q-8.5 -6 -25.5 -5 q-22 -53 -55.5 -99 q-33.5 -46 -71.5 -76 l-14 11 q26 38 48 95 q22 57 35 118 l95 -30 ZM406 497 q0 0 13.5 -10.5 q13.5 -10.5 31.5 -25.5 q18 -15 33 -30 q-4 -16 -25 -16 l-359 0 l-8 30 l272 0 l42 52 ZM370 225 q56 -22 85 -49.5 q29 -27.5 37.5 -53.5 q8.5 -26 1.5 -44 q-7 -18 -23 -22.5 q-16 -4.5 -34 10.5 q-3 40 -27 82 q-24 42 -52 70 l12 7 ZM776 521 q-3 -9 -12 -15.5 q-9 -6.5 -27 -5.5 l-1 -13 q9 -103 32.5 -195 q23.5 -92 72 -169 q48.5 -77 130.5 -134 l-3 -11 q-23 -4 -38 -16.5 q-15 -12.5 -21 -40.5 q-58 50 -95 121 q-37 71 -57.5 155.5 q-20.5 84.5 -30.5 174.5 q-11 -81 -38 -159.5 q-27 -78.5 -83.5 -152 q-56.5 -73.5 -156.5 -140.5 l-15 18 q81 66 129 137.5 q48 71.5 72 148 q24 76.5 32.5 157.5 q8.5 81 10.5 166 l99 -26 ZM744 811 q-4 -8 -12.5 -14.5 q-8.5 -6.5 -25.5 -6.5 q-22 -82 -56 -158 l206 0 l42 41 l75 -72 q-6 -4 -15.5 -6 q-9.5 -2 -23.5 -4 q-14 -26 -35 -58.5 q-21 -32.5 -43.5 -64.5 q-22.5 -32 -43.5 -56 l-13 8 q10 24 21.5 56 q11.5 32 22 65 q10.5 33 17.5 61 l-224 0 q-53 -109 -126 -182 l-15 9 q48 76 86.5 183.5 q38.5 107.5 58.5 225.5 l104 -27 ZM461 358 q0 0 13.5 -11 q13.5 -11 32.5 -26.5 q19 -15.5 35 -30.5 q-4 -16 -27 -16 l-196 0 l0 -265 q0 -25 -6 -43.5 q-6 -18.5 -25 -29.5 q-19 -11 -59 -16 q-1 13 -4 24 q-3 11 -11 18 q-17 14 -66 21 l0 15 q0 0 11.5 -1 q11.5 -1 27 -1.5 q15.5 -0.5 30 -1.5 q14.5 -1 20.5 -1 q11 0 15 4 q4 4 4 13 l0 264 l-205 0 l-8 29 l373 0 l45 55 ZM458 776 q0 0 14 -11 q14 -11 33 -26.5 q19 -15.5 34 -30.5 q-4 -16 -26 -16 l-197 0 l0 -118 l80 0 l42 51 q0 0 13 -10 q13 -10 31 -25 q18 -15 32 -29 q-3 -16 -25 -16 l-408 0 l-8 29 l180 0 l0 118 l-195 0 l-8 29 l203 0 l0 115 l100 -11 q-1 -10 -9.5 -17 q-8.5 -7 -27.5 -9 l0 -78 l98 0 l44 55 Z" /><glyph glyph-name="" unicode="&#x2f4c;&#x6b62;" d="M41 -7 l172 0 l0 601 l104 -11 q-1 -11 -9 -18 q-8 -7 -27 -10 l0 -562 l207 0 l0 830 l103 -12 q-2 -10 -9.5 -17.5 q-7.5 -7.5 -26.5 -10.5 l0 -327 l194 0 l52 64 q0 0 16 -12.5 q16 -12.5 38.5 -30.5 q22.5 -18 40.5 -35 q-4 -15 -28 -15 l-313 0 l0 -434 l257 0 l52 64 q0 0 16.5 -12.5 q16.5 -12.5 39 -30 q22.5 -17.5 40.5 -34.5 q-4 -16 -28 -16 l-882 0 l-9 29 Z" /><glyph glyph-name="" unicode="&#x6b64;" d="M873 626 l76 -74 q-7 -6 -15.5 -6.5 q-8.5 -0.5 -23.5 6.5 q-59 -42 -125.5 -75.5 q-66.5 -33.5 -125.5 -54.5 l0 -380 q0 -18 8 -25.5 q8 -7.5 36 -7.5 l79 0 q30 0 49.5 0.5 q19.5 0.5 29.5 1.5 q13 1 20 14 q4 9 9 35.5 q5 26.5 11 62 q6 35.5 12 71.5 l13 0 l3 -175 q18 -7 24 -13.5 q6 -6.5 6 -17.5 q0 -15 -14.5 -24.5 q-14.5 -9.5 -53 -14 q-38.5 -4.5 -109.5 -4.5 l-90 0 q-57 0 -77 17.5 q-20 17.5 -20 59.5 l0 808 l100 -11 q-1 -10 -8.5 -17.5 q-7.5 -7.5 -27.5 -10.5 l0 -342 q51 33 108 80 q57 47 106 97 ZM40 12 q17 3 41 7.5 q24 4.5 53 10.5 l0 592 l98 -11 q-3 -22 -36 -27 l0 -541 l117 26 l0 761 l101 -11 q-1 -10 -9 -17.5 q-8 -7.5 -27 -10.5 l0 -294 l74 0 l47 67 q0 0 15 -13 q15 -13 35.5 -31.5 q20.5 -18.5 35.5 -35.5 q-1 -8 -8.5 -12 q-7.5 -4 -17.5 -4 l-181 0 l0 -384 l184 43 l5 -16 q-82 -31 -194.5 -71.5 q-112.5 -40.5 -264.5 -90.5 q-3 -9 -9.5 -15.5 q-6.5 -6.5 -13.5 -8.5 l-45 87 Z" /><glyph glyph-name="" unicode="&#x6b65;" d="M571 411 q-1 -11 -9 -18 q-8 -7 -28 -9 l0 -250 q0 -7 -17.5 -16 q-17.5 -9 -37.5 -9 l-10 0 l0 312 l102 -10 ZM871 330 q-6 -8 -15.5 -10 q-9.5 -2 -29.5 2 q-73 -112 -155.5 -185 q-82.5 -73 -176 -116.5 q-93.5 -43.5 -200.5 -66.5 q-107 -23 -230 -36 l-4 20 q114 21 216 50 q102 29 191.5 77 q89.5 48 167 124.5 q77.5 76.5 142.5 192.5 l94 -52 ZM374 351 q-5 -7 -13 -10.5 q-8 -3.5 -25 -0.5 q-27 -36 -68 -76 q-41 -40 -91 -77 q-50 -37 -105 -65 l-10 14 q46 34 88.5 79 q42.5 45 77 92.5 q34.5 47.5 54.5 88.5 l92 -45 ZM871 538 q0 0 15.5 -12 q15.5 -12 36.5 -29.5 q21 -17.5 37 -33.5 q-3 -16 -26 -16 l-884 0 l-9 30 l188 0 l0 281 l96 -10 q-1 -10 -8.5 -16.5 q-7.5 -6.5 -24.5 -8.5 l0 -246 l177 0 l0 361 l102 -10 q-1 -11 -9.5 -18 q-8.5 -7 -27.5 -10 l0 -134 l182 0 l48 61 q0 0 15.5 -12 q15.5 -12 37 -29 q21.5 -17 38.5 -33 q-4 -16 -27 -16 l-294 0 l0 -160 l288 0 l49 61 Z" /><glyph glyph-name="" unicode="&#x6b7b;" d="M868 821 q0 0 16 -12.5 q16 -12.5 38 -30 q22 -17.5 40 -34.5 q-4 -16 -27 -16 l-296 0 l0 -394 q51 44 106.5 103.5 q55.5 59.5 103.5 123.5 l85 -58 q-6 -7 -14.5 -8.5 q-8.5 -1.5 -24.5 3.5 q-59 -58 -126.5 -110 q-67.5 -52 -129.5 -87 l0 -233 q0 -17 8 -24 q8 -7 39 -7 l93 0 q33 0 56.5 0.5 q23.5 0.5 33.5 1.5 q13 1 20 12 q6 11 14.5 50.5 q8.5 39.5 17.5 82.5 l13 0 l3 -138 q17 -5 23 -12 q6 -7 6 -18 q0 -15 -15 -25 q-15 -10 -55.5 -14.5 q-40.5 -4.5 -118.5 -4.5 l-102 0 q-60 0 -80.5 17 q-20.5 17 -20.5 60 l0 679 l-244 0 q-11 -46 -27 -92 q-16 -46 -36 -90 l161 0 l42 42 l72 -67 q-6 -7 -14.5 -9.5 q-8.5 -2.5 -25.5 -4.5 q-18 -94 -49 -180.5 q-31 -86.5 -81 -162 q-50 -75.5 -126 -137 q-76 -61.5 -186 -105.5 l-10 15 q121 62 198.5 150 q77.5 88 121.5 197.5 q44 109.5 64 232.5 l-180 0 q-13 -28 -28.5 -54 q-15.5 -26 -32.5 -52 q58 -22 89.5 -49.5 q31.5 -27.5 42 -53 q10.5 -25.5 5 -44 q-5.5 -18.5 -21 -23.5 q-15.5 -5 -35.5 9 q-7 35 -34.5 73.5 q-27.5 38.5 -58.5 67.5 q-58 -84 -129 -149 l-12 11 q52 65 94.5 144.5 q42.5 79.5 72.5 164.5 q30 85 43 166 l-200 0 l-9 30 l777 0 l51 63 Z" /><glyph glyph-name="" unicode="&#x6b96;" d="M385 814 q0 0 14.5 -11.5 q14.5 -11.5 35 -28 q20.5 -16.5 37.5 -32.5 q-4 -16 -27 -16 l-195 0 q-15 -82 -39 -154 l112 0 l40 41 l71 -65 q-9 -11 -38 -14 q-13 -88 -36.5 -174.5 q-23.5 -86.5 -62 -167 q-38.5 -80.5 -99 -150.5 q-60.5 -70 -149.5 -124 l-11 13 q93 73 152 171 q59 98 92 211 q33 113 48 230 l-129 0 q-12 -31 -25 -61.5 q-13 -30.5 -29 -59.5 q53 -15 80.5 -37 q27.5 -22 36 -44 q8.5 -22 2 -38 q-6.5 -16 -22 -20.5 q-15.5 -4.5 -34.5 8.5 q-5 29 -26 59 q-21 30 -47 52 q-18 -32 -39 -62 q-21 -30 -44 -58 l-16 13 q56 91 90 203 q34 112 53 228 l-124 0 l-8 30 l289 0 l48 58 ZM883 750 q0 0 13 -10.5 q13 -10.5 31 -25.5 q18 -15 33 -30 q-4 -16 -26 -16 l-251 0 l-9 -97 l114 0 l35 44 l85 -65 q-8 -13 -45 -18 l0 -537 l2 0 l38 50 q0 0 12.5 -10 q12.5 -10 29.5 -25 q17 -15 30 -29 q-4 -16 -25 -16 l-616 0 l-8 30 l136 0 l0 608 l73 -32 l86 0 l3 97 l-200 0 l-8 30 l209 0 l4 140 l97 -8 q-2 -23 -33 -28 l-8 -104 l156 0 l42 52 ZM524 -5 l276 0 l0 125 l-276 0 l0 -125 ZM524 149 l276 0 l0 109 l-276 0 l0 -109 ZM524 287 l276 0 l0 109 l-276 0 l0 -109 ZM524 426 l276 0 l0 115 l-276 0 l0 -115 Z" /><glyph glyph-name="" unicode="&#x6bcf;" d="M387 292 q70 -10 111 -30 q41 -20 59 -43.5 q18 -23.5 17.5 -42.5 q-0.5 -19 -14.5 -27 q-14 -8 -35 2 q-12 23 -37 48 q-25 25 -54 46.5 q-29 21.5 -55 35.5 l8 11 ZM410 523 q67 -10 106 -29 q39 -19 56 -41 q17 -22 16.5 -40 q-0.5 -18 -13.5 -26 q-13 -8 -33 2 q-12 22 -35.5 45 q-23.5 23 -51.5 44 q-28 21 -54 34 l9 11 ZM876 413 q0 0 14 -11.5 q14 -11.5 33.5 -28 q19.5 -16.5 34.5 -31.5 q-4 -16 -26 -16 l-141 0 q-4 -61 -9.5 -113 q-5.5 -52 -12.5 -93 l40 0 l44 57 q0 0 14 -11.5 q14 -11.5 33 -27.5 q19 -16 35 -32 q-4 -16 -26 -16 l-146 0 q-18 -94 -46 -125 q-21 -23 -50 -33 q-29 -10 -63 -10 q0 14 -3 26.5 q-3 12.5 -14 20.5 q-10 8 -36.5 15.5 q-26.5 7.5 -53.5 11.5 l0 18 q21 -2 47 -4.5 q26 -2.5 49 -4 q23 -1.5 34 -1.5 q24 0 40 13 q16 15 30 73 l-456 0 l-31 -35 l-73 55 q7 5 18 10 q11 5 21 9 q17 82 36 197 l-160 0 l-9 29 l174 0 q11 74 20.5 145 q9.5 71 13.5 123 l82 -40 l394 0 l39 43 l77 -65 q-5 -6 -15 -10 q-10 -4 -27 -5 q-1 -52 -3.5 -100 q-2.5 -48 -4.5 -91 l38 0 l45 58 ZM240 120 l463 0 q7 39 13 90.5 q6 51.5 10 115.5 l-449 0 q-10 -55 -19.5 -108.5 q-9.5 -53.5 -17.5 -97.5 ZM281 355 l447 0 q2 44 5 94 q3 50 4 104 l-426 0 q-5 -42 -13 -93 q-8 -51 -17 -105 ZM832 775 q0 0 15 -11.5 q15 -11.5 36 -28.5 q21 -17 39 -34 q-4 -16 -26 -16 l-616 0 q-42 -63 -92 -113.5 q-50 -50.5 -104 -85.5 l-13 11 q59 59 115.5 150.5 q56.5 91.5 92.5 196.5 l99 -41 q-4 -8 -13 -13 q-9 -5 -26 -3 q-9 -19 -19 -37.5 q-10 -18.5 -21 -35.5 l484 0 l49 61 Z" /></font>
</defs>
</svg>
